<svg width="36" height="36" viewBox="0 0 36 36" fill="none" xmlns="http://www.w3.org/2000/svg">
<path d="M6.26099 3.13043L8.39972 32.7888V32.8696H26.8122L28.9509 3.22275V3.13043H6.26099ZM26.0557 32.0387H9.16193L7.55788 9.82376H8.43954L9.89002 29.4017C9.89851 29.5048 9.94461 29.601 10.0193 29.6714C10.094 29.7418 10.1919 29.7815 10.2939 29.7826H10.328C10.3811 29.7789 10.4329 29.7646 10.4806 29.7406C10.5282 29.7165 10.5707 29.6832 10.6056 29.6424C10.6404 29.6017 10.667 29.5544 10.6838 29.5031C10.7006 29.4519 10.7073 29.3979 10.7034 29.344L9.25294 9.82376H27.6597L26.0557 32.0387ZM27.7166 8.99286H9.19037L8.87184 4.66528C8.86183 4.5597 8.81293 4.46184 8.7349 4.39125C8.65687 4.32065 8.55546 4.28251 8.45092 4.28445C8.34378 4.29473 8.24477 4.34679 8.17474 4.42968C8.1047 4.51256 8.06913 4.61978 8.0755 4.72875L8.39404 8.99863H7.501L7.13696 3.95556H28.0807L27.7166 8.99286Z" fill="#407BFF"/>
<path d="M12.7797 13.9321C13.0452 13.9321 13.3047 13.8522 13.5255 13.7026C13.7462 13.553 13.9183 13.3403 14.0199 13.0914C14.1215 12.8426 14.1481 12.5688 14.0963 12.3047C14.0445 12.0405 13.9166 11.7979 13.7289 11.6074C13.5411 11.417 13.3019 11.2873 13.0415 11.2348C12.7811 11.1822 12.5112 11.2092 12.2659 11.3122C12.0206 11.4153 11.811 11.5898 11.6635 11.8138C11.516 12.0377 11.4373 12.301 11.4373 12.5703C11.4373 12.9315 11.5787 13.2779 11.8304 13.5332C12.0822 13.7886 12.4236 13.9321 12.7797 13.9321ZM12.7797 12.0337C12.8843 12.0337 12.9866 12.0652 13.0735 12.1241C13.1605 12.1831 13.2283 12.2669 13.2684 12.365C13.3084 12.463 13.3189 12.5709 13.2985 12.675C13.2781 12.7791 13.2277 12.8747 13.1537 12.9498C13.0797 13.0248 12.9855 13.0759 12.8829 13.0966C12.7802 13.1173 12.6739 13.1067 12.5772 13.0661C12.4806 13.0255 12.3979 12.9567 12.3398 12.8685C12.2817 12.7802 12.2507 12.6765 12.2507 12.5703C12.2507 12.428 12.3064 12.2915 12.4056 12.1909C12.5048 12.0902 12.6394 12.0337 12.7797 12.0337Z" fill="#407BFF"/>
<path d="M12.7738 18.3577C12.7772 18.6265 12.8589 18.8883 13.0087 19.1101C13.1585 19.3319 13.3696 19.5037 13.6155 19.6039C13.8614 19.7042 14.1311 19.7284 14.3905 19.6734C14.6499 19.6185 14.8875 19.4868 15.0733 19.2952C15.2591 19.1035 15.3848 18.8603 15.4346 18.5962C15.4844 18.3322 15.456 18.0591 15.353 17.8114C15.2501 17.5637 15.0772 17.3524 14.856 17.2042C14.6349 17.056 14.3755 16.9776 14.1105 16.9787C13.9332 16.9794 13.7579 17.0158 13.5946 17.0856C13.4312 17.1555 13.2832 17.2575 13.1589 17.3857C13.0346 17.5139 12.9366 17.6658 12.8705 17.8326C12.8044 17.9995 12.7715 18.1779 12.7738 18.3577ZM14.6395 18.3577C14.6395 18.4639 14.6085 18.5676 14.5503 18.6559C14.4922 18.7441 14.4096 18.8129 14.3129 18.8535C14.2163 18.8941 14.1099 18.9047 14.0073 18.884C13.9047 18.8633 13.8104 18.8122 13.7364 18.7372C13.6625 18.6621 13.6121 18.5665 13.5917 18.4624C13.5713 18.3583 13.5817 18.2504 13.6218 18.1524C13.6618 18.0543 13.7296 17.9705 13.8166 17.9116C13.9036 17.8526 14.0059 17.8211 14.1105 17.8211C14.2508 17.8211 14.3854 17.8777 14.4846 17.9783C14.5838 18.0789 14.6395 18.2154 14.6395 18.3577Z" fill="#407BFF"/>
<path d="M22.3129 18.3924C22.5784 18.3924 22.8379 18.3125 23.0587 18.1629C23.2794 18.0132 23.4515 17.8006 23.5531 17.5517C23.6547 17.3029 23.6813 17.0291 23.6295 16.765C23.5777 16.5008 23.4498 16.2582 23.2621 16.0677C23.0743 15.8773 22.8351 15.7476 22.5747 15.6951C22.3143 15.6425 22.0444 15.6695 21.7991 15.7725C21.5539 15.8756 21.3442 16.0501 21.1967 16.2741C21.0492 16.498 20.9705 16.7613 20.9705 17.0306C20.9705 17.3918 21.1119 17.7382 21.3636 17.9935C21.6154 18.2489 21.9568 18.3924 22.3129 18.3924ZM22.3129 16.4998C22.4177 16.4998 22.5202 16.5314 22.6073 16.5906C22.6944 16.6499 22.7622 16.734 22.8021 16.8324C22.842 16.9308 22.8521 17.039 22.8312 17.1432C22.8104 17.2475 22.7594 17.3431 22.6849 17.4179C22.6103 17.4927 22.5155 17.5434 22.4125 17.5634C22.3095 17.5835 22.203 17.572 22.1064 17.5305C22.0099 17.489 21.9277 17.4193 21.8702 17.3303C21.8128 17.2413 21.7827 17.137 21.7839 17.0306C21.7854 16.8893 21.8418 16.7543 21.9408 16.6549C22.0398 16.5555 22.1735 16.4998 22.3129 16.4998Z" fill="#407BFF"/>
<path d="M17.6373 15.8247C17.9028 15.8247 18.1624 15.7448 18.3831 15.5952C18.6039 15.4455 18.7759 15.2329 18.8775 14.984C18.9791 14.7352 19.0057 14.4614 18.9539 14.1972C18.9021 13.9331 18.7743 13.6905 18.5865 13.5C18.3988 13.3096 18.1596 13.1799 17.8992 13.1273C17.6388 13.0748 17.3689 13.1018 17.1236 13.2048C16.8783 13.3079 16.6687 13.4824 16.5212 13.7064C16.3737 13.9303 16.2949 14.1936 16.2949 14.4629C16.2949 14.8241 16.4364 15.1704 16.6881 15.4258C16.9399 15.6812 17.2813 15.8247 17.6373 15.8247ZM17.6373 13.9263C17.7419 13.9263 17.8442 13.9578 17.9312 14.0167C18.0182 14.0757 18.086 14.1595 18.126 14.2576C18.1661 14.3556 18.1766 14.4635 18.1562 14.5676C18.1357 14.6717 18.0854 14.7673 18.0114 14.8424C17.9374 14.9174 17.8431 14.9685 17.7405 14.9892C17.6379 15.0099 17.5315 14.9993 17.4349 14.9587C17.3382 14.9181 17.2556 14.8493 17.1975 14.761C17.1394 14.6728 17.1083 14.569 17.1083 14.4629C17.1045 14.3901 17.1153 14.3172 17.1401 14.2487C17.165 14.1802 17.2033 14.1176 17.2528 14.0647C17.3024 14.0117 17.362 13.9696 17.4281 13.9409C17.4942 13.9121 17.5654 13.8973 17.6373 13.8974V13.9263Z" fill="#407BFF"/>
<path d="M15.0776 23.5451C15.0832 23.7663 15.153 23.9809 15.2782 24.1621C15.4035 24.3433 15.5786 24.483 15.7817 24.5638C15.9848 24.6446 16.2069 24.6628 16.4201 24.6161C16.6334 24.5695 16.8283 24.4602 16.9806 24.3017C17.1329 24.1433 17.2358 23.9428 17.2763 23.7253C17.3169 23.5079 17.2933 23.2832 17.2086 23.0792C17.1239 22.8753 16.9817 22.7013 16.8 22.5789C16.6183 22.4564 16.405 22.3911 16.1868 22.3911C15.8901 22.3986 15.608 22.5235 15.4007 22.7391C15.1935 22.9547 15.0775 23.2439 15.0776 23.5451ZM16.1868 23.245C16.2453 23.245 16.3025 23.2626 16.3512 23.2956C16.3998 23.3286 16.4377 23.3754 16.4601 23.4302C16.4825 23.4851 16.4883 23.5454 16.4769 23.6036C16.4655 23.6618 16.4373 23.7153 16.396 23.7572C16.3546 23.7992 16.3019 23.8278 16.2445 23.8394C16.1872 23.8509 16.1277 23.845 16.0736 23.8223C16.0196 23.7996 15.9734 23.7611 15.9409 23.7118C15.9084 23.6624 15.891 23.6044 15.891 23.5451C15.891 23.4655 15.9222 23.3892 15.9777 23.3329C16.0331 23.2766 16.1084 23.245 16.1868 23.245Z" fill="#407BFF"/>
<path d="M20.4414 22.2929C20.6691 22.301 20.894 22.2394 21.0868 22.1163C21.2797 21.9932 21.4317 21.8142 21.523 21.6024C21.6144 21.3907 21.641 21.1559 21.5994 20.9287C21.5577 20.7014 21.4497 20.4921 21.2894 20.3278C21.1292 20.1635 20.9239 20.0519 20.7003 20.0073C20.4767 19.9627 20.2451 19.9872 20.0354 20.0777C19.8258 20.1682 19.6477 20.3205 19.5244 20.5149C19.401 20.7092 19.338 20.9367 19.3436 21.1678C19.3507 21.4619 19.4683 21.7423 19.6723 21.9514C19.8764 22.1606 20.1515 22.2827 20.4414 22.2929ZM20.4414 20.8677C20.5199 20.8677 20.5951 20.8993 20.6506 20.9556C20.706 21.0119 20.7372 21.0882 20.7372 21.1678C20.7372 21.2474 20.706 21.3237 20.6506 21.3799C20.5951 21.4362 20.5199 21.4678 20.4414 21.4678C20.3624 21.4678 20.2866 21.4364 20.2302 21.3803C20.1738 21.3242 20.1414 21.2479 20.1399 21.1678C20.1399 21.1279 20.1478 21.0884 20.163 21.0516C20.1782 21.0148 20.2005 20.9815 20.2286 20.9535C20.2566 20.9256 20.2899 20.9036 20.3265 20.8889C20.363 20.8742 20.4021 20.867 20.4414 20.8677Z" fill="#407BFF"/>
<path d="M22.7851 12.98C23.0101 12.98 23.23 12.9123 23.4171 12.7855C23.6042 12.6587 23.75 12.4785 23.8361 12.2676C23.9222 12.0567 23.9448 11.8247 23.9009 11.6008C23.857 11.377 23.7486 11.1714 23.5895 11.01C23.4304 10.8486 23.2277 10.7387 23.007 10.6941C22.7863 10.6496 22.5576 10.6725 22.3497 10.7598C22.1419 10.8472 21.9642 10.9951 21.8392 11.1848C21.7142 11.3746 21.6475 11.5977 21.6475 11.826C21.6475 12.1321 21.7673 12.4256 21.9807 12.642C22.194 12.8584 22.4834 12.98 22.7851 12.98ZM22.7851 11.5548C22.8291 11.542 22.8754 11.5398 22.9205 11.5483C22.9655 11.5568 23.0079 11.5758 23.0445 11.6038C23.081 11.6317 23.1107 11.6679 23.1311 11.7095C23.1515 11.7511 23.1621 11.7969 23.1621 11.8433C23.1621 11.8897 23.1515 11.9355 23.1311 11.9771C23.1107 12.0187 23.081 12.0549 23.0445 12.0828C23.0079 12.1108 22.9655 12.1298 22.9205 12.1383C22.8754 12.1468 22.8291 12.1446 22.7851 12.1318C22.7411 12.1446 22.6947 12.1468 22.6497 12.1383C22.6047 12.1298 22.5623 12.1108 22.5257 12.0828C22.4892 12.0549 22.4595 12.0187 22.4391 11.9771C22.4187 11.9355 22.4081 11.8897 22.4081 11.8433C22.4081 11.7969 22.4187 11.7511 22.4391 11.7095C22.4595 11.6679 22.4892 11.6317 22.5257 11.6038C22.5623 11.5758 22.6047 11.5568 22.6497 11.5483C22.6947 11.5398 22.7411 11.542 22.7851 11.5548Z" fill="#407BFF"/>
<path d="M11.6646 30.5904C11.6136 30.6142 11.568 30.6485 11.5306 30.691C11.4931 30.7335 11.4647 30.7834 11.4471 30.8375C11.4295 30.8916 11.4231 30.9488 11.4282 31.0056C11.4333 31.0623 11.4499 31.1174 11.4769 31.1674C11.5119 31.2348 11.5642 31.2913 11.6283 31.3309C11.6924 31.3705 11.7659 31.3918 11.841 31.3924C11.904 31.3942 11.9665 31.3803 12.023 31.352C13.7609 30.4488 15.6845 29.9744 17.6372 29.9672C19.7037 29.9977 21.7414 30.4634 23.6211 31.3347C23.6955 31.3741 23.78 31.3894 23.8632 31.3785C23.9464 31.3675 24.0243 31.331 24.0863 31.2737C24.1484 31.2164 24.1916 31.1412 24.2101 31.0582C24.2286 30.9752 24.2216 30.8884 24.1899 30.8096C24.1499 30.7073 24.0724 30.6246 23.9738 30.5788C21.9837 29.6554 19.8254 29.164 17.6372 29.1363C15.5614 29.1381 13.5152 29.6363 11.6646 30.5904Z" fill="#407BFF"/>
</svg>
