<svg aria-hidden="true" style="position: absolute; width: 0; height: 0; overflow: hidden;" version="1.1" xmlns="http://www.w3.org/2000/svg" xmlns:xlink="http://www.w3.org/1999/xlink">
<defs>
<symbol id="icon-eye-crossed" viewBox="0 0 32 32">
<path fill="none" stroke="#407bff" style="stroke: var(--color1, #407bff)" stroke-linejoin="round" stroke-linecap="round" stroke-miterlimit="4" stroke-width="2" d="M5.307 10.964c-1.247 1.472-2.176 3.187-2.728 5.036 1.723 5.784 7.080 10 13.421 10 1.324 0 2.604-0.184 3.817-0.527M8.304 8.304c2.283-1.507 4.96-2.308 7.696-2.304 6.341 0 11.697 4.216 13.42 9.997-0.944 3.159-2.971 5.885-5.724 7.699M8.304 8.304l-4.304-4.304M8.304 8.304l4.867 4.867M23.696 23.696l4.304 4.304M23.696 23.696l-4.867-4.867c0.371-0.371 0.666-0.812 0.867-1.298s0.304-1.006 0.304-1.531c0-0.525-0.103-1.046-0.304-1.531s-0.496-0.926-0.867-1.298c-0.371-0.371-0.812-0.666-1.298-0.867s-1.006-0.305-1.531-0.305c-0.525 0-1.046 0.103-1.531 0.305s-0.926 0.496-1.298 0.867M18.828 18.828l-5.655-5.655"></path>
</symbol>
</defs>
</svg>
