<svg xmlns="http://www.w3.org/2000/svg" width="36" height="36" viewBox="0 0 36 36" fill="none">
  <path d="M6.26099 3.13049L8.39972 32.7888V32.8696H26.8122L28.9509 3.22281V3.13049H6.26099ZM26.0557 32.0387H9.16193L7.55788 9.82382H8.43954L9.89002 29.4018C9.89851 29.5049 9.94461 29.601 10.0193 29.6715C10.094 29.7419 10.1919 29.7815 10.2939 29.7826H10.328C10.3811 29.779 10.4329 29.7647 10.4806 29.7407C10.5282 29.7166 10.5707 29.6833 10.6056 29.6425C10.6404 29.6018 10.667 29.5544 10.6838 29.5032C10.7006 29.452 10.7073 29.3979 10.7034 29.3441L9.25294 9.82382H27.6597L26.0557 32.0387ZM27.7166 8.99292H9.19037L8.87184 4.66534C8.86183 4.55977 8.81293 4.46191 8.7349 4.39131C8.65687 4.32071 8.55546 4.28257 8.45092 4.28451C8.34378 4.29479 8.24477 4.34686 8.17474 4.42974C8.1047 4.51262 8.06913 4.61984 8.0755 4.72881L8.39404 8.99869H7.501L7.13696 3.95562H28.0807L27.7166 8.99292Z" fill="#407BFF"/>
  <path d="M12.7797 13.9321C13.0452 13.9321 13.3047 13.8522 13.5255 13.7026C13.7462 13.553 13.9183 13.3403 14.0199 13.0915C14.1215 12.8427 14.1481 12.5689 14.0963 12.3047C14.0445 12.0405 13.9166 11.7979 13.7289 11.6075C13.5411 11.417 13.3019 11.2873 13.0415 11.2348C12.7811 11.1822 12.5112 11.2092 12.2659 11.3123C12.0206 11.4153 11.811 11.5899 11.6635 11.8138C11.516 12.0378 11.4373 12.301 11.4373 12.5704C11.4373 12.9315 11.5787 13.2779 11.8304 13.5333C12.0822 13.7886 12.4236 13.9321 12.7797 13.9321ZM12.7797 12.0337C12.8843 12.0337 12.9866 12.0652 13.0735 12.1242C13.1605 12.1831 13.2283 12.267 13.2684 12.365C13.3084 12.4631 13.3189 12.571 13.2985 12.6751C13.2781 12.7791 13.2277 12.8748 13.1537 12.9498C13.0797 13.0249 12.9855 13.076 12.8829 13.0967C12.7802 13.1174 12.6739 13.1068 12.5772 13.0661C12.4806 13.0255 12.3979 12.9567 12.3398 12.8685C12.2817 12.7802 12.2507 12.6765 12.2507 12.5704C12.2507 12.428 12.3064 12.2916 12.4056 12.1909C12.5048 12.0903 12.6394 12.0337 12.7797 12.0337Z" fill="#407BFF"/>
  <path d="M12.7738 18.3578C12.7772 18.6266 12.8589 18.8884 13.0087 19.1102C13.1585 19.332 13.3696 19.5038 13.6155 19.604C13.8614 19.7043 14.1311 19.7284 14.3905 19.6735C14.6499 19.6185 14.8875 19.4869 15.0733 19.2952C15.2591 19.1036 15.3848 18.8604 15.4346 18.5963C15.4844 18.3323 15.456 18.0592 15.353 17.8115C15.2501 17.5638 15.0772 17.3525 14.856 17.2043C14.6349 17.0561 14.3755 16.9777 14.1105 16.9788C13.9332 16.9795 13.7579 17.0159 13.5946 17.0857C13.4312 17.1556 13.2832 17.2576 13.1589 17.3858C13.0346 17.514 12.9366 17.6659 12.8705 17.8327C12.8044 17.9996 12.7715 18.178 12.7738 18.3578ZM14.6395 18.3578C14.6395 18.464 14.6085 18.5677 14.5503 18.656C14.4922 18.7442 14.4096 18.813 14.3129 18.8536C14.2163 18.8942 14.1099 18.9048 14.0073 18.8841C13.9047 18.8634 13.8104 18.8123 13.7364 18.7373C13.6625 18.6622 13.6121 18.5666 13.5917 18.4625C13.5713 18.3584 13.5817 18.2505 13.6218 18.1525C13.6618 18.0544 13.7296 17.9706 13.8166 17.9116C13.9036 17.8527 14.0059 17.8212 14.1105 17.8212C14.2508 17.8212 14.3854 17.8777 14.4846 17.9784C14.5838 18.079 14.6395 18.2155 14.6395 18.3578Z" fill="#407BFF"/>
  <path d="M22.3129 18.3924C22.5784 18.3924 22.8379 18.3126 23.0587 18.1629C23.2794 18.0133 23.4515 17.8006 23.5531 17.5518C23.6547 17.303 23.6813 17.0292 23.6295 16.765C23.5777 16.5009 23.4498 16.2582 23.2621 16.0678C23.0743 15.8773 22.8351 15.7477 22.5747 15.6951C22.3143 15.6426 22.0444 15.6695 21.7991 15.7726C21.5539 15.8757 21.3442 16.0502 21.1967 16.2741C21.0492 16.4981 20.9705 16.7614 20.9705 17.0307C20.9705 17.3918 21.1119 17.7382 21.3636 17.9936C21.6154 18.249 21.9568 18.3924 22.3129 18.3924ZM22.3129 16.4998C22.4177 16.4998 22.5202 16.5315 22.6073 16.5907C22.6944 16.6499 22.7622 16.7341 22.8021 16.8325C22.842 16.9309 22.8521 17.039 22.8312 17.1433C22.8104 17.2475 22.7594 17.3431 22.6849 17.418C22.6103 17.4928 22.5155 17.5434 22.4125 17.5635C22.3095 17.5835 22.203 17.5721 22.1064 17.5306C22.0099 17.4891 21.9277 17.4194 21.8702 17.3304C21.8128 17.2414 21.7827 17.1371 21.7839 17.0307C21.7854 16.8894 21.8418 16.7544 21.9408 16.655C22.0398 16.5556 22.1735 16.4998 22.3129 16.4998Z" fill="#407BFF"/>
  <path d="M17.6373 15.8247C17.9028 15.8247 18.1624 15.7448 18.3831 15.5952C18.6039 15.4456 18.7759 15.2329 18.8775 14.9841C18.9791 14.7352 19.0057 14.4614 18.9539 14.1973C18.9021 13.9331 18.7743 13.6905 18.5865 13.5C18.3988 13.3096 18.1596 13.1799 17.8992 13.1274C17.6388 13.0748 17.3689 13.1018 17.1236 13.2049C16.8783 13.3079 16.6687 13.4825 16.5212 13.7064C16.3737 13.9303 16.2949 14.1936 16.2949 14.4629C16.2949 14.8241 16.4364 15.1705 16.6881 15.4258C16.9399 15.6812 17.2813 15.8247 17.6373 15.8247ZM17.6373 13.9263C17.7419 13.9263 17.8442 13.9578 17.9312 14.0168C18.0182 14.0757 18.086 14.1595 18.126 14.2576C18.1661 14.3556 18.1766 14.4635 18.1562 14.5676C18.1357 14.6717 18.0854 14.7673 18.0114 14.8424C17.9374 14.9174 17.8431 14.9685 17.7405 14.9893C17.6379 15.01 17.5315 14.9993 17.4349 14.9587C17.3382 14.9181 17.2556 14.8493 17.1975 14.7611C17.1394 14.6728 17.1083 14.5691 17.1083 14.4629C17.1045 14.3901 17.1153 14.3172 17.1401 14.2487C17.165 14.1802 17.2033 14.1176 17.2528 14.0647C17.3024 14.0118 17.362 13.9696 17.4281 13.9409C17.4942 13.9121 17.5654 13.8974 17.6373 13.8975V13.9263Z" fill="#407BFF"/>
  <path d="M15.0776 23.5451C15.0832 23.7664 15.153 23.981 15.2782 24.1622C15.4035 24.3434 15.5786 24.4831 15.7817 24.5639C15.9848 24.6446 16.2069 24.6628 16.4201 24.6162C16.6334 24.5696 16.8283 24.4602 16.9806 24.3018C17.1329 24.1433 17.2358 23.9428 17.2763 23.7254C17.3169 23.508 17.2933 23.2832 17.2086 23.0793C17.1239 22.8754 16.9817 22.7013 16.8 22.5789C16.6183 22.4565 16.405 22.3912 16.1868 22.3911C15.8901 22.3986 15.608 22.5235 15.4007 22.7392C15.1935 22.9548 15.0775 23.244 15.0776 23.5451ZM16.1868 23.2451C16.2453 23.2451 16.3025 23.2627 16.3512 23.2957C16.3998 23.3286 16.4377 23.3755 16.4601 23.4303C16.4825 23.4851 16.4883 23.5455 16.4769 23.6037C16.4655 23.6619 16.4373 23.7153 16.396 23.7573C16.3546 23.7993 16.3019 23.8278 16.2445 23.8394C16.1872 23.851 16.1277 23.845 16.0736 23.8223C16.0196 23.7996 15.9734 23.7612 15.9409 23.7118C15.9084 23.6625 15.891 23.6045 15.891 23.5451C15.891 23.4656 15.9222 23.3892 15.9777 23.333C16.0331 23.2767 16.1084 23.2451 16.1868 23.2451Z" fill="#407BFF"/>
  <path d="M20.4414 22.2931C20.6691 22.3011 20.894 22.2396 21.0868 22.1164C21.2797 21.9933 21.4317 21.8143 21.523 21.6025C21.6144 21.3908 21.641 21.1561 21.5994 20.9288C21.5577 20.7016 21.4497 20.4922 21.2894 20.3279C21.1292 20.1637 20.9239 20.052 20.7003 20.0074C20.4767 19.9628 20.2451 19.9874 20.0354 20.0779C19.8258 20.1684 19.6477 20.3207 19.5244 20.515C19.401 20.7094 19.338 20.9368 19.3436 21.1679C19.3507 21.4621 19.4683 21.7424 19.6723 21.9515C19.8764 22.1607 20.1515 22.2829 20.4414 22.2931ZM20.4414 20.8678C20.5199 20.8678 20.5951 20.8995 20.6506 20.9557C20.706 21.012 20.7372 21.0883 20.7372 21.1679C20.7372 21.2475 20.706 21.3238 20.6506 21.3801C20.5951 21.4363 20.5199 21.4679 20.4414 21.4679C20.3624 21.468 20.2866 21.4365 20.2302 21.3804C20.1738 21.3243 20.1414 21.248 20.1399 21.1679C20.1399 21.128 20.1478 21.0885 20.163 21.0517C20.1782 21.0149 20.2005 20.9816 20.2286 20.9537C20.2566 20.9257 20.2899 20.9037 20.3265 20.889C20.363 20.8743 20.4021 20.8671 20.4414 20.8678Z" fill="#407BFF"/>
  <path d="M22.7851 12.98C23.0101 12.98 23.23 12.9124 23.4171 12.7856C23.6042 12.6587 23.75 12.4785 23.8361 12.2676C23.9222 12.0568 23.9448 11.8247 23.9009 11.6009C23.857 11.377 23.7486 11.1714 23.5895 11.01C23.4304 10.8486 23.2277 10.7387 23.007 10.6942C22.7863 10.6496 22.5576 10.6725 22.3497 10.7598C22.1419 10.8472 21.9642 10.9951 21.8392 11.1849C21.7142 11.3747 21.6475 11.5978 21.6475 11.826C21.6475 12.1321 21.7673 12.4256 21.9807 12.642C22.194 12.8585 22.4834 12.98 22.7851 12.98ZM22.7851 11.5548C22.8291 11.5421 22.8754 11.5399 22.9205 11.5483C22.9655 11.5568 23.0079 11.5758 23.0445 11.6038C23.081 11.6318 23.1107 11.668 23.1311 11.7095C23.1515 11.7511 23.1621 11.7969 23.1621 11.8433C23.1621 11.8898 23.1515 11.9356 23.1311 11.9771C23.1107 12.0187 23.081 12.0549 23.0445 12.0829C23.0079 12.1108 22.9655 12.1298 22.9205 12.1383C22.8754 12.1468 22.8291 12.1446 22.7851 12.1318C22.7411 12.1446 22.6947 12.1468 22.6497 12.1383C22.6047 12.1298 22.5623 12.1108 22.5257 12.0829C22.4892 12.0549 22.4595 12.0187 22.4391 11.9771C22.4187 11.9356 22.4081 11.8898 22.4081 11.8433C22.4081 11.7969 22.4187 11.7511 22.4391 11.7095C22.4595 11.668 22.4892 11.6318 22.5257 11.6038C22.5623 11.5758 22.6047 11.5568 22.6497 11.5483C22.6947 11.5399 22.7411 11.5421 22.7851 11.5548Z" fill="#407BFF"/>
  <path d="M11.6646 30.5904C11.6136 30.6143 11.568 30.6485 11.5306 30.691C11.4931 30.7335 11.4647 30.7834 11.4471 30.8375C11.4295 30.8917 11.4231 30.9489 11.4282 31.0056C11.4333 31.0624 11.4499 31.1175 11.4769 31.1674C11.5119 31.2348 11.5642 31.2913 11.6283 31.331C11.6924 31.3706 11.7659 31.3918 11.841 31.3925C11.904 31.3942 11.9665 31.3804 12.023 31.3521C13.7609 30.4489 15.6845 29.9744 17.6372 29.9672C19.7037 29.9978 21.7414 30.4634 23.6211 31.3348C23.6955 31.3742 23.78 31.3894 23.8632 31.3785C23.9464 31.3676 24.0243 31.331 24.0863 31.2738C24.1484 31.2165 24.1916 31.1413 24.2101 31.0583C24.2286 30.9753 24.2216 30.8885 24.1899 30.8097C24.1499 30.7074 24.0724 30.6247 23.9738 30.5789C21.9837 29.6554 19.8254 29.1641 17.6372 29.1364C15.5614 29.1382 13.5152 29.6364 11.6646 30.5904Z" fill="#407BFF"/>
</svg>