<svg xmlns="http://www.w3.org/2000/svg" width="74.667" height="74.667" version="1.0" viewBox="0 0 56 56"><path d="M21.9.7c-4.8.8-13.1 6.6-16.5 11.6-6.3 9.2-6.7 20.5-1 29.9 5.6 9.3 17.4 14.9 28.1 13.3 6.3-1 14.2-6.1 18.1-11.8C62.9 25.8 51.6 2.3 29.8.6c-2.9-.2-6.5-.2-7.9.1zm14.3 2.5c6.1 1.8 13.3 8.9 15.7 15.4 3.8 10.1 2.3 18.7-4.6 26.4-7 7.8-17.6 10.8-27.5 7.8C13.7 51 6.5 43.9 4.1 37.4.3 27.3 1.8 18.7 8.7 11c7-7.8 17.6-10.8 27.5-7.8z"/><path d="M24.9 9.8c-4.3 2.1-5.7 5.8-3.8 9.8 1.9 3.9 5.3 5.5 9.1 4.2 7.4-2.6 7.2-12.4-.3-15.1-.9-.3-3.2.2-5 1.1zm7.9 2.9c3.2 4.3-.6 11-5.6 9.8-5.3-1.2-6.9-6.8-3.1-10.6 2.4-2.4 6.5-2 8.7.8zM20.3 31c-4.1 2.4-6.5 6.1-6.7 10.1-.1 2.8.3 3.3 3.9 4.6 7.4 2.6 23.9 1.1 25.2-2.3.9-2.4-3.5-10.3-6.9-12.4-4.3-2.6-11.3-2.6-15.5 0zm13.3 1c3.9 1.9 7.4 6.6 7.4 9.9 0 3.2-15.1 4.6-22.3 2.2-3.2-1.1-3.7-1.6-3.1-3.4 1.5-5.1 4.5-8.4 8.9-9.9 3.4-1 4.7-.9 9.1 1.2z"/></svg>