<svg width="28.000000" height="28.000000" viewBox="0 0 28 28" fill="none" xmlns="http://www.w3.org/2000/svg" xmlns:xlink="http://www.w3.org/1999/xlink">
	<desc>
		
	</desc>
	<defs>
		<clipPath id="clip139_528">
			<rect id="user/outline" rx="-0.500000" width="27.000000" height="27.000000" transform="translate(0.500000 0.500000)" fill="white" fill-opacity="0"/>
		</clipPath>
	</defs>
	<rect id="user/outline" rx="-0.500000" width="27.000000" height="27.000000" transform="translate(0.500000 0.500000)" fill="#FFFFFF" fill-opacity="0"/>
	<g clip-path="url(#clip139_528)">
		<circle id="Ellipse 12" cx="14.000000" cy="14.000000" r="13.500000" stroke="#2F2F2F" stroke-opacity="1.000000" stroke-width="1.000000"/>
		<path id="Vector" d="M16.47 10.79C15.81 11.46 14.92 11.84 14 11.84C13.07 11.84 12.18 11.46 11.52 10.79C10.86 10.12 10.49 9.2 10.49 8.25C10.49 7.3 10.86 6.39 11.52 5.71C12.18 5.04 13.07 4.66 14 4.66C14.92 4.66 15.81 5.04 16.47 5.71C17.13 6.39 17.5 7.3 17.5 8.25C17.5 9.2 17.13 10.12 16.47 10.79ZM9.09 16.77C10.39 15.44 12.16 14.7 14 14.7C15.83 14.7 17.6 15.44 18.9 16.77C20.21 18.09 20.97 19.88 21 21.77C18.8 22.8 16.41 23.33 14 23.33C11.5 23.33 9.13 22.77 7 21.77C7.02 19.88 7.78 18.09 9.09 16.77Z" stroke="#2F2F2F" stroke-opacity="1.000000" stroke-width="1.000000" stroke-linejoin="round"/>
	</g>
</svg>
