<svg width="14.000000" height="14.666687" viewBox="0 0 15 19.6667" fill="none" xmlns="http://www.w3.org/2000/svg" xmlns:xlink="http://www.w3.org/1999/xlink">
	<desc>
			
	</desc>
	<defs/>
	<path id="Vector" d="M9.97 6.62C9.31 7.3 8.42 7.67 7.5 7.67C6.57 7.67 5.68 7.3 5.02 6.62C4.36 5.95 3.99 5.04 3.99 4.08C3.99 3.13 4.36 2.22 5.02 1.55C5.68 0.87 6.57 0.5 7.5 0.5C8.42 0.5 9.31 0.87 9.97 1.55C10.63 2.22 11 3.13 11 4.08C11 5.04 10.63 5.95 9.97 6.62ZM2.59 12.6C3.89 11.28 5.66 10.54 7.5 10.54C9.33 10.54 11.1 11.28 12.4 12.6C13.71 13.92 14.47 15.72 14.5 17.6C12.3 18.63 9.91 19.17 7.5 19.16C5 19.16 2.63 18.6 0.5 17.6C0.52 15.72 1.28 13.92 2.59 12.6Z" stroke="" stroke-opacity="1.000000" stroke-width="1.000000" stroke-linejoin="round"/>
</svg>
