<svg width="518.000000" height="386.000000" viewBox="0 0 518 386" fill="none" xmlns="http://www.w3.org/2000/svg" xmlns:xlink="http://www.w3.org/1999/xlink">
	<desc>
			Created with Pixso.
	</desc>
	<defs>
		<clipPath id="clip115_311">
			<rect id="Frame" rx="-0.500000" width="517.000000" height="385.000000" transform="translate(0.500000 0.500000)" fill="white" fill-opacity="0"/>
		</clipPath>
	</defs>
	<rect id="Frame" rx="-0.500000" width="517.000000" height="385.000000" transform="translate(0.500000 0.500000)" fill="#FFFFFF" fill-opacity="0"/>
	<g clip-path="url(#clip115_311)">
		<path id="&lt;Path&gt;" d="M459.87 374.27C459.87 380.75 369.93 386 259 386C148.06 386 58.12 380.75 58.12 374.27C58.12 367.79 148.06 362.54 259 362.54C369.93 362.54 459.87 367.79 459.87 374.27Z" fill="#F5F5F5" fill-opacity="1.000000" fill-rule="evenodd"/>
		<g opacity="0.100000">
			<path id="Vector" d="M142.24 292.4C142.36 291.47 142.84 290.62 143.57 290.02C144.31 289.43 145.24 289.14 146.17 289.22C155.04 289.08 163.34 295.35 171.04 302.07C172.75 303.56 174.6 305.09 176.52 303.54C177.11 303.04 177.55 302.39 177.76 301.65C178.09 300.44 178.09 299.17 177.76 297.96C177.48 296.97 177 296.03 176.36 295.22C173.02 290.81 168.95 288.7 165.64 284.15C163.79 281.55 162.26 278.73 161.07 275.76C160.04 273.15 157.96 268.93 158.79 265.4C159.72 261.18 162.88 261.54 164.79 262.12C170.85 263.93 176.51 268.25 181.65 273.63C187.13 279.35 192.09 286.23 197.03 293.08C198.9 295.68 200.87 298.35 203.25 299.3C205.63 300.24 208.65 298.72 209.65 294.97C210.66 291.22 209.47 286.91 209.23 283.18C208.89 278.73 209.11 274.25 209.87 269.86C210.2 267.53 210.99 265.29 212.18 263.27C214.85 259.35 218.81 260.73 221.4 263.69C223.38 266.17 224.9 268.98 225.92 271.98C228.82 280.28 230.57 288.94 231.1 297.72C231.49 303.16 232.32 308.83 234.56 313.04C238.17 319.86 244.92 319.32 250.15 315.75C259.25 309.53 266.28 295.49 268.15 279.78C268.76 274.66 268.92 269.13 270.79 264.84C272.41 261.13 276.59 258.63 278.63 262.63C279.45 264.63 279.68 266.82 279.29 268.95C278.93 271.05 278.41 273.13 277.75 275.16C276.71 278.68 275.68 285.28 278.47 287.34C278.89 287.6 279.36 287.76 279.84 287.81C280.33 287.86 280.82 287.81 281.28 287.65C290.44 285.75 298.95 277.13 304.55 265.1C306.57 260.57 308.12 255.85 309.17 251C309.84 248.04 310.12 244.86 310.87 241.92C311.35 239.6 312.31 237.42 313.71 235.51C317.27 231.24 325.5 233.25 325.96 242.39C326.24 247.69 324.83 252.87 324.32 258.05C323.99 261.28 325.99 261.26 327.49 261.15C334.63 260.43 340.95 253.22 346.56 245.72C353.22 236.8 360.6 225.22 369.69 224.88C371.76 224.8 375.21 225.07 376.46 228.27C377.03 230.24 377.03 232.32 376.46 234.28C374.61 241.93 369.21 245.87 365.06 249.66C353.38 260.61 343.1 272.98 334.47 286.47C333.15 288.54 331.8 291.96 333.05 293.99C333.29 294.38 333.64 294.69 334.05 294.87C334.47 295.06 334.93 295.11 335.38 295.03C339.66 294.7 343.67 291.3 347.57 288.48C351.48 285.67 355.91 283.2 360.01 285.32C361.27 286.08 362.37 287.08 363.24 288.26C364.11 289.45 364.74 290.79 365.09 292.22C365.82 294.73 365.94 297.37 365.43 299.93C363.93 306.96 357.44 310.12 353.86 313.59C348.94 318.34 344.43 323.5 340.39 329.02C336.66 334.13 333.14 339.72 329.41 344.73C315.94 362.69 297.3 365.35 280.72 367.43C262.68 369.69 244.61 368.47 226.67 366.1C213.63 364.35 200.77 360.65 188.04 356.24C183.67 354.66 179.33 352.93 175.04 350.88C170.43 348.68 163.64 347.32 161.87 338.67C161.5 336.81 161.93 335.3 163.17 334.6C166.99 332.43 172.44 335.34 176.03 337.25C181 339.91 185.7 343.69 190.8 345.73C191.61 346.13 192.51 346.36 193.42 346.41C194.33 346.46 195.24 346.32 196.1 346.01C196.94 345.66 197.63 345.02 198.06 344.22C198.6 343.17 198.73 341.95 198.43 340.81C198.22 340.19 197.87 339.63 197.39 339.18C188.22 329.78 177.26 322.31 165.15 317.2C161.27 315.53 157.3 314.16 153.56 311.8C150.54 309.93 147.93 307.46 145.89 304.55C144.15 301.76 141.36 296.84 142.24 292.4Z" fill="#407BFF" fill-opacity="1.000000" fill-rule="nonzero"/>
		</g>
		<g opacity="0.100000">
			<path id="Vector" d="M340.39 216.25C339.7 216.96 338.79 217.44 337.81 217.59C336.83 217.75 335.82 217.58 334.94 217.11C334.06 216.64 333.35 215.9 332.93 215C332.51 214.09 332.4 213.08 332.6 212.1C336.18 194.75 343.95 182.13 353.19 188.68C360.09 193.56 349.27 207.02 340.39 216.25Z" fill="#407BFF" fill-opacity="1.000000" fill-rule="nonzero"/>
		</g>
		<g opacity="0.300000">
			<path id="Vector" d="M315.32 224.35C318.15 222.79 320.54 220.55 322.3 217.84C324.05 215.13 325.1 212.03 325.36 208.81L332.36 123.5C332.73 119.11 332.17 114.7 330.73 110.54C329.28 106.39 326.99 102.58 323.98 99.36L302.4 76.25C301.22 74.97 300.31 73.46 299.74 71.81C299.16 70.17 298.94 68.42 299.08 66.68L300.11 54.18L244.26 49.6L243.23 62.09C243.08 63.83 242.58 65.52 241.75 67.05C240.91 68.58 239.77 69.92 238.39 70.99L213.32 90.29C209.83 92.97 206.95 96.36 204.85 100.22C202.74 104.09 201.47 108.35 201.11 112.74L194.1 198.05C193.84 201.26 194.37 204.49 195.65 207.44C196.94 210.4 198.94 213 201.47 214.99C198.64 216.55 196.24 218.79 194.49 221.5C192.74 224.21 191.69 227.32 191.44 230.53L182.5 339.31C182.08 344.48 183.72 349.6 187.08 353.56C190.44 357.52 195.23 359.98 200.4 360.41L292.6 367.98C295.16 368.19 297.74 367.9 300.19 367.11C302.63 366.33 304.9 365.07 306.86 363.41C308.82 361.75 310.43 359.71 311.61 357.43C312.78 355.14 313.5 352.65 313.71 350.09L322.65 241.32C322.92 238.1 322.4 234.87 321.12 231.91C319.84 228.95 317.85 226.35 315.32 224.35Z" fill="#407BFF" fill-opacity="1.000000" fill-rule="nonzero"/>
		</g>
		<g opacity="0.300000">
			<path id="Vector" d="M243.49 59.25L244.28 49.61L300.12 54.21L299.32 63.84L243.49 59.25Z" fill="#407BFF" fill-opacity="1.000000" fill-rule="evenodd"/>
		</g>
		<g opacity="0.300000">
			<path id="Vector" d="M323.47 101.59L301.89 78.46C301.89 78.46 287.97 79.06 298.78 96.12C307.99 110.55 324.04 108.3 323.47 101.59Z" fill="#FFFFFF" fill-opacity="1.000000" fill-rule="nonzero"/>
		</g>
		<g opacity="0.200000">
			<path id="Vector" d="M182.51 339.26C182.09 344.44 183.74 349.56 187.09 353.52C190.45 357.48 195.24 359.94 200.41 360.37L292.61 367.94C295.17 368.15 297.75 367.86 300.2 367.07C302.64 366.29 304.91 365.03 306.87 363.37C308.83 361.7 310.44 359.67 311.62 357.39C312.79 355.1 313.51 352.61 313.72 350.05L182.51 339.26Z" fill="#407BFF" fill-opacity="1.000000" fill-rule="nonzero"/>
		</g>
		<g opacity="0.300000">
			<path id="Vector" d="M319.44 103.59C321.85 106.17 323.69 109.23 324.85 112.57C326.01 115.91 326.46 119.45 326.17 122.97L319.17 208.29C318.98 210.48 318.26 212.6 317.07 214.45C315.87 216.29 314.24 217.82 312.31 218.88L304.15 223.4L311.46 229.19C313.19 230.55 314.55 232.32 315.43 234.33C316.31 236.35 316.67 238.55 316.49 240.75L307.55 349.52C307.26 353.05 305.59 356.31 302.9 358.6C300.2 360.9 296.71 362.02 293.18 361.74L200.98 354.17C199.23 354.03 197.52 353.55 195.96 352.75C194.39 351.95 193 350.86 191.86 349.52C190.72 348.18 189.86 346.64 189.31 344.97C188.77 343.29 188.56 341.53 188.7 339.78L197.64 231.01C197.82 228.81 198.54 226.7 199.74 224.85C200.93 223 202.56 221.48 204.49 220.41L212.64 215.89L205.39 210.1C203.66 208.74 202.3 206.97 201.42 204.96C200.54 202.94 200.18 200.74 200.36 198.54L207.37 113.23C207.66 109.71 208.69 106.29 210.37 103.19C212.06 100.08 214.38 97.36 217.18 95.21C225.47 89.85 247.23 103.19 272.7 105.28C298.18 107.37 314.11 100.91 319.44 103.59Z" fill="#407BFF" fill-opacity="1.000000" fill-rule="nonzero"/>
		</g>
		<g opacity="0.200000">
			<path id="Vector" d="M272.65 105.29C247.19 103.22 225.41 89.85 217.12 95.21C231.62 103.19 248.2 108.13 272.25 110.11C296.29 112.08 319.44 103.59 319.44 103.59C314.11 100.91 298.11 107.39 272.65 105.29Z" fill="#407BFF" fill-opacity="1.000000" fill-rule="nonzero"/>
		</g>
		<g opacity="0.200000">
			<path id="Vector" d="M194.11 198.05C193.85 201.26 194.38 204.49 195.66 207.44C196.95 210.4 198.95 213 201.48 214.99L315.32 224.32C318.15 222.76 320.54 220.52 322.3 217.81C324.05 215.1 325.1 212 325.36 208.78L194.11 198.05Z" fill="#407BFF" fill-opacity="1.000000" fill-rule="nonzero"/>
		</g>
		<path id="Vector" d="M245.6 34.34L301.29 38.93C303.62 39.12 305.35 41.17 305.16 43.5L304.05 57.04C303.86 59.38 301.82 61.11 299.48 60.92L243.8 56.33C241.47 56.13 239.73 54.09 239.92 51.76L241.03 38.21C241.22 35.88 243.27 34.14 245.6 34.34Z" fill="#407BFF" fill-opacity="1.000000" fill-rule="evenodd"/>
		<g opacity="0.200000">
			<path id="Vector" d="M246.63 54.24C246.56 54.23 246.49 54.21 246.43 54.18C246.37 54.15 246.32 54.11 246.27 54.06C246.23 54 246.19 53.94 246.17 53.88C246.15 53.81 246.14 53.75 246.15 53.68L247.45 37.29C247.47 37.15 247.53 37.02 247.64 36.93C247.74 36.85 247.88 36.8 248.01 36.81C248.15 36.82 248.28 36.89 248.37 36.99C248.46 37.1 248.5 37.23 248.49 37.37L247.14 53.75C247.14 53.88 247.08 54.01 246.98 54.1C246.89 54.19 246.76 54.24 246.63 54.24Z" fill="#FFFFFF" fill-opacity="1.000000" fill-rule="nonzero"/>
		</g>
		<g opacity="0.200000">
			<path id="Vector" d="M256.73 55.07C256.66 55.06 256.59 55.04 256.53 55.01C256.47 54.98 256.42 54.94 256.37 54.88C256.33 54.83 256.29 54.77 256.27 54.71C256.25 54.64 256.24 54.57 256.25 54.51L257.6 38.13C257.61 37.99 257.68 37.87 257.78 37.78C257.88 37.69 258.02 37.64 258.16 37.65C258.22 37.66 258.29 37.68 258.35 37.71C258.41 37.74 258.46 37.78 258.51 37.83C258.55 37.88 258.58 37.95 258.6 38.01C258.62 38.07 258.63 38.14 258.62 38.21L257.24 54.59C257.23 54.72 257.17 54.84 257.08 54.93C256.98 55.01 256.86 55.06 256.73 55.07Z" fill="#FFFFFF" fill-opacity="1.000000" fill-rule="nonzero"/>
		</g>
		<g opacity="0.200000">
			<path id="Vector" d="M266.82 55.94C266.75 55.93 266.68 55.91 266.62 55.88C266.56 55.85 266.51 55.81 266.46 55.76C266.42 55.7 266.38 55.64 266.36 55.58C266.34 55.51 266.34 55.44 266.34 55.38L267.69 39C267.7 38.86 267.77 38.74 267.87 38.65C267.98 38.56 268.11 38.52 268.25 38.52C268.32 38.53 268.38 38.55 268.44 38.58C268.5 38.61 268.56 38.65 268.6 38.7C268.65 38.75 268.68 38.81 268.7 38.88C268.72 38.94 268.73 39.01 268.72 39.08L267.38 55.46C267.37 55.53 267.35 55.59 267.32 55.65C267.29 55.72 267.25 55.77 267.2 55.81C267.14 55.86 267.08 55.89 267.02 55.91C266.95 55.93 266.89 55.94 266.82 55.94Z" fill="#FFFFFF" fill-opacity="1.000000" fill-rule="nonzero"/>
		</g>
		<g opacity="0.200000">
			<path id="Vector" d="M276.92 56.72C276.85 56.72 276.78 56.7 276.72 56.67C276.66 56.64 276.61 56.59 276.56 56.54C276.52 56.49 276.49 56.43 276.46 56.37C276.44 56.3 276.44 56.23 276.44 56.16L277.79 39.79C277.8 39.65 277.87 39.52 277.97 39.43C278.08 39.34 278.21 39.3 278.35 39.31C278.42 39.31 278.48 39.33 278.54 39.36C278.6 39.39 278.66 39.44 278.7 39.49C278.74 39.54 278.78 39.6 278.79 39.67C278.81 39.73 278.82 39.8 278.81 39.87L277.47 56.25C277.46 56.31 277.45 56.38 277.42 56.44C277.39 56.5 277.34 56.56 277.29 56.6C277.24 56.64 277.18 56.68 277.12 56.7C277.05 56.72 276.99 56.73 276.92 56.72Z" fill="#FFFFFF" fill-opacity="1.000000" fill-rule="nonzero"/>
		</g>
		<g opacity="0.200000">
			<path id="Vector" d="M286.97 57.55C286.9 57.55 286.83 57.53 286.77 57.5C286.71 57.47 286.66 57.42 286.61 57.37C286.57 57.32 286.54 57.26 286.51 57.19C286.49 57.13 286.49 57.06 286.49 56.99L287.84 40.61C287.85 40.48 287.92 40.36 288.03 40.27C288.13 40.18 288.26 40.13 288.4 40.14C288.47 40.14 288.53 40.16 288.59 40.19C288.65 40.22 288.71 40.27 288.75 40.32C288.8 40.37 288.83 40.43 288.85 40.5C288.87 40.56 288.88 40.63 288.87 40.7L287.53 57.08C287.52 57.14 287.51 57.21 287.47 57.27C287.44 57.33 287.4 57.39 287.35 57.43C287.3 57.48 287.24 57.51 287.17 57.53C287.1 57.55 287.04 57.56 286.97 57.55Z" fill="#FFFFFF" fill-opacity="1.000000" fill-rule="nonzero"/>
		</g>
		<g opacity="0.200000">
			<path id="Vector" d="M297.11 58.38C297.04 58.38 296.98 58.36 296.91 58.33C296.85 58.29 296.8 58.25 296.76 58.2C296.71 58.15 296.68 58.09 296.66 58.02C296.64 57.96 296.63 57.89 296.63 57.82L297.94 41.43C297.95 41.3 298.02 41.17 298.12 41.08C298.23 40.99 298.36 40.95 298.5 40.96C298.63 40.97 298.76 41.04 298.85 41.14C298.93 41.24 298.98 41.38 298.96 41.52L297.63 57.9C297.62 58.03 297.56 58.15 297.46 58.24C297.36 58.33 297.24 58.38 297.11 58.38Z" fill="#FFFFFF" fill-opacity="1.000000" fill-rule="nonzero"/>
		</g>
		<g opacity="0.200000">
			<path id="Vector" d="M211.34 169.55C209.76 160.83 197.07 161.46 196.35 170.27L194.07 198.05C193.8 201.26 194.34 204.49 195.62 207.44C196.91 210.4 198.9 213 201.44 214.99C198.61 216.55 196.21 218.79 194.46 221.5C192.71 224.21 191.66 227.32 191.41 230.53L182.47 339.31C182.05 344.48 183.69 349.6 187.05 353.56C190.41 357.52 195.2 359.98 200.37 360.41L224.2 362.37C226.82 362.58 229.46 362.19 231.91 361.22C234.36 360.25 236.56 358.74 238.33 356.79C240.1 354.84 241.39 352.51 242.12 349.97C242.85 347.44 242.98 344.78 242.51 342.19L211.34 169.55Z" fill="#407BFF" fill-opacity="1.000000" fill-rule="nonzero"/>
		</g>
		<g opacity="0.300000">
			<path id="Vector" d="M303.03 311.98C302.86 313.97 302.11 315.88 300.86 317.45C299.62 319.02 297.93 320.18 296.03 320.79C294.12 321.41 292.07 321.44 290.14 320.89C288.22 320.34 286.5 319.23 285.2 317.7C283.91 316.17 283.09 314.29 282.86 312.3C282.63 310.31 283 308.3 283.91 306.52C284.83 304.74 286.25 303.26 288 302.29C289.76 301.32 291.76 300.89 293.75 301.05C296.43 301.27 298.91 302.54 300.65 304.6C302.39 306.64 303.24 309.3 303.03 311.98Z" fill="#407BFF" fill-opacity="1.000000" fill-rule="nonzero"/>
		</g>
		<g opacity="0.300000">
			<path id="Vector" d="M270.82 272.75C270.7 274.16 270.17 275.51 269.29 276.62C268.41 277.73 267.22 278.55 265.87 278.99C264.51 279.42 263.07 279.45 261.7 279.06C260.34 278.67 259.12 277.88 258.2 276.8C257.29 275.72 256.71 274.39 256.55 272.98C256.39 271.57 256.65 270.15 257.29 268.89C257.94 267.63 258.95 266.59 260.19 265.9C261.43 265.21 262.85 264.9 264.26 265.02C266.15 265.18 267.9 266.08 269.13 267.53C270.36 268.98 270.97 270.85 270.82 272.75Z" fill="#407BFF" fill-opacity="1.000000" fill-rule="nonzero"/>
		</g>
		<g opacity="0.300000">
			<path id="Vector" d="M240.84 185.43C239.43 185.49 238.03 185.14 236.81 184.41C235.6 183.68 234.63 182.6 234.02 181.32C233.42 180.04 233.21 178.6 233.42 177.2C233.63 175.8 234.25 174.49 235.21 173.45C236.16 172.4 237.4 171.65 238.78 171.31C240.15 170.97 241.6 171.04 242.93 171.52C244.27 172 245.43 172.86 246.27 174C247.12 175.14 247.6 176.5 247.67 177.92C247.72 178.86 247.58 179.8 247.26 180.69C246.94 181.58 246.45 182.39 245.82 183.09C245.18 183.79 244.42 184.35 243.56 184.75C242.71 185.16 241.79 185.38 240.84 185.43Z" fill="#407BFF" fill-opacity="1.000000" fill-rule="nonzero"/>
		</g>
		<g opacity="0.300000">
			<path id="Vector" d="M260.39 142.57C259.39 142.62 258.39 142.37 257.53 141.86C256.67 141.34 255.98 140.58 255.55 139.67C255.12 138.76 254.97 137.75 255.12 136.75C255.27 135.76 255.71 134.83 256.38 134.09C257.06 133.35 257.94 132.82 258.91 132.58C259.89 132.33 260.91 132.39 261.86 132.73C262.81 133.07 263.63 133.68 264.23 134.49C264.82 135.3 265.17 136.26 265.21 137.27C265.27 138.61 264.8 139.92 263.9 140.91C263 141.91 261.74 142.5 260.39 142.57Z" fill="#407BFF" fill-opacity="1.000000" fill-rule="nonzero"/>
		</g>
		<g opacity="0.300000">
			<path id="Vector" d="M291.85 241.76C291.8 242.35 291.58 242.9 291.21 243.36C290.85 243.82 290.35 244.16 289.8 244.34C289.24 244.51 288.64 244.52 288.08 244.36C287.51 244.2 287.01 243.88 286.63 243.43C286.26 242.98 286.02 242.43 285.95 241.85C285.88 241.27 285.99 240.68 286.26 240.16C286.53 239.64 286.94 239.21 287.45 238.93C287.96 238.64 288.55 238.51 289.13 238.56C289.92 238.63 290.64 239 291.15 239.6C291.66 240.2 291.91 240.98 291.85 241.76Z" fill="#407BFF" fill-opacity="1.000000" fill-rule="nonzero"/>
		</g>
		<g opacity="0.700000">
			<path id="Vector" d="M238.18 322.81L237.68 322.81C236.89 322.76 236.12 322.55 235.41 322.19C234.69 321.84 234.06 321.34 233.54 320.74C233.03 320.14 232.64 319.45 232.4 318.7C232.16 317.95 232.07 317.16 232.14 316.37C232.24 315.21 232.67 314.1 233.39 313.18C234.1 312.26 235.07 311.57 236.17 311.19C237.27 310.82 238.46 310.77 239.59 311.05C240.72 311.34 241.74 311.95 242.53 312.8C243.32 313.66 243.84 314.73 244.04 315.87C244.23 317.02 244.08 318.2 243.62 319.27C243.15 320.34 242.38 321.25 241.41 321.88C240.43 322.52 239.3 322.86 238.13 322.87L238.18 322.81ZM238.18 311.58C237 311.59 235.86 312 234.95 312.74C234.03 313.48 233.4 314.51 233.15 315.66C232.9 316.81 233.05 318.02 233.57 319.07C234.1 320.13 234.96 320.97 236.03 321.47C237.1 321.96 238.31 322.07 239.45 321.79C240.6 321.51 241.61 320.84 242.33 319.91C243.04 318.97 243.41 317.82 243.39 316.64C243.36 315.46 242.93 314.33 242.17 313.43C241.73 312.9 241.19 312.47 240.58 312.16C239.97 311.85 239.3 311.66 238.62 311.6L238.18 311.58Z" fill="#FFFFFF" fill-opacity="1.000000" fill-rule="nonzero"/>
		</g>
		<g opacity="0.700000">
			<path id="Vector" d="M302.26 201.59L301.9 201.59C300.75 201.49 299.68 200.95 298.93 200.07C298.18 199.19 297.82 198.05 297.91 196.9C298 195.74 298.55 194.68 299.43 193.93C300.32 193.18 301.46 192.81 302.61 192.91C303.76 193 304.83 193.55 305.57 194.43C306.32 195.31 306.69 196.45 306.6 197.6C306.5 198.75 305.95 199.82 305.08 200.57C304.29 201.24 303.29 201.6 302.26 201.59ZM298.68 196.94C298.63 197.64 298.79 198.35 299.14 198.96C299.49 199.58 300.01 200.07 300.64 200.39C301.27 200.71 301.98 200.84 302.68 200.76C303.38 200.68 304.04 200.39 304.58 199.93C304.94 199.63 305.23 199.25 305.45 198.84C305.67 198.42 305.8 197.96 305.83 197.49C305.87 197.02 305.82 196.55 305.67 196.1C305.53 195.65 305.3 195.23 304.99 194.88C304.68 194.53 304.29 194.24 303.87 194.05C303.44 193.85 302.98 193.73 302.51 193.72C302.04 193.68 301.57 193.73 301.12 193.87C300.67 194.02 300.25 194.25 299.9 194.55C299.54 194.85 299.24 195.23 299.03 195.64C298.81 196.06 298.68 196.52 298.64 196.99L298.68 196.94Z" fill="#FFFFFF" fill-opacity="1.000000" fill-rule="nonzero"/>
		</g>
		<g opacity="0.700000">
			<path id="Vector" d="M235.32 109.74L235.17 109.74C234.63 109.69 234.14 109.43 233.79 109.02C233.44 108.61 233.27 108.08 233.3 107.55C233.33 107.14 233.47 106.76 233.72 106.43C233.96 106.11 234.29 105.87 234.67 105.73C235.05 105.59 235.46 105.57 235.86 105.67C236.25 105.76 236.6 105.97 236.88 106.26C237.16 106.56 237.34 106.93 237.41 107.32C237.48 107.72 237.43 108.13 237.27 108.5C237.11 108.87 236.85 109.19 236.51 109.41C236.17 109.63 235.78 109.75 235.37 109.75L235.32 109.74ZM234.07 107.61C234.05 107.86 234.1 108.1 234.22 108.32C234.35 108.53 234.53 108.71 234.75 108.82C234.97 108.94 235.22 108.98 235.46 108.95C235.71 108.92 235.94 108.82 236.13 108.66C236.32 108.5 236.46 108.29 236.52 108.05C236.59 107.82 236.59 107.56 236.51 107.33C236.44 107.09 236.29 106.88 236.1 106.73C235.91 106.57 235.67 106.48 235.43 106.46C235.26 106.44 235.09 106.46 234.94 106.51C234.78 106.56 234.63 106.64 234.51 106.75C234.38 106.85 234.28 106.99 234.2 107.13C234.13 107.28 234.08 107.44 234.07 107.61Z" fill="#FFFFFF" fill-opacity="1.000000" fill-rule="nonzero"/>
		</g>
		<g opacity="0.700000">
			<path id="Vector" d="M281.13 163.39L280.7 163.39C280.02 163.34 279.35 163.15 278.74 162.84C278.14 162.53 277.59 162.1 277.15 161.58C276.71 161.06 276.38 160.45 276.17 159.8C275.96 159.15 275.88 158.46 275.94 157.78C276.03 156.78 276.41 155.83 277.03 155.03C277.65 154.25 278.49 153.65 279.44 153.33C280.39 153.01 281.41 152.97 282.39 153.22C283.36 153.46 284.24 153.99 284.92 154.73C285.6 155.47 286.05 156.39 286.21 157.38C286.38 158.37 286.25 159.39 285.85 160.31C285.45 161.23 284.79 162.01 283.95 162.56C283.11 163.11 282.13 163.41 281.12 163.41L281.13 163.39ZM281.13 153.76C280.09 153.75 279.08 154.12 278.29 154.8C277.39 155.55 276.83 156.63 276.73 157.8C276.67 158.52 276.79 159.25 277.08 159.92C277.37 160.58 277.82 161.17 278.39 161.62C278.96 162.07 279.63 162.38 280.35 162.51C281.06 162.64 281.8 162.59 282.49 162.37C283.18 162.14 283.81 161.76 284.32 161.24C284.82 160.71 285.19 160.08 285.39 159.38C285.59 158.68 285.62 157.94 285.47 157.23C285.32 156.52 284.99 155.86 284.52 155.3C284.15 154.86 283.69 154.49 283.17 154.23C282.65 153.96 282.09 153.8 281.51 153.76L281.13 153.76Z" fill="#FFFFFF" fill-opacity="1.000000" fill-rule="nonzero"/>
		</g>
		<g opacity="0.300000">
			<path id="Vector" d="M323.63 208.68L330.32 127.33C330.37 126.81 330.31 126.29 330.15 125.79C329.99 125.3 329.73 124.84 329.39 124.44C329.06 124.04 328.64 123.72 328.18 123.48C327.71 123.24 327.21 123.1 326.69 123.05C326.17 123.01 325.65 123.07 325.15 123.23C324.65 123.39 324.19 123.64 323.79 123.98C323.4 124.32 323.07 124.73 322.83 125.19C322.59 125.65 322.45 126.16 322.41 126.68L315.72 208.03C315.5 210.74 314.61 213.34 313.14 215.62C311.67 217.9 309.65 219.78 307.27 221.08L303.2 223.35L306.86 226.24C308.99 227.92 310.67 230.1 311.76 232.59C312.84 235.08 313.29 237.79 313.07 240.5L304.13 349.27C303.6 355.8 299.49 358.98 293.72 361.52C293.36 361.68 293.05 361.96 292.87 362.31C292.68 362.67 292.61 363.07 292.68 363.47C292.74 363.87 292.94 364.23 293.23 364.5C293.53 364.77 293.9 364.94 294.3 364.98C298.65 365.33 302.96 363.95 306.29 361.12C309.62 358.3 311.69 354.27 312.05 349.92L320.99 241.15C321.21 238.45 320.76 235.73 319.68 233.24C318.59 230.75 316.91 228.57 314.77 226.9L311.12 224L315.19 221.74C317.56 220.43 319.58 218.55 321.05 216.27C322.52 214 323.41 211.39 323.63 208.68Z" fill="#FFFFFF" fill-opacity="1.000000" fill-rule="nonzero"/>
		</g>
		<g opacity="0.300000">
			<path id="Vector" d="M431.17 335.11C430.05 330.03 416.08 333.04 413.19 333.5C407.58 334.52 402.08 336.11 396.78 338.24C390.95 340.53 384.18 343.9 378.14 340.41C374.64 338.4 386.77 334.44 387.86 334.03C393.02 332.22 397.99 329.94 402.72 327.22C404.64 326.08 408.35 323.35 406.75 320.59C405.42 318.3 400.67 318.51 397.78 318.87C389.02 319.94 380.43 322.09 372.2 325.28C364.2 328.46 356.36 332.04 348.72 336.02C345.76 337.69 342.55 338.85 339.2 339.45C335.56 339.97 331.09 339.19 329.65 337.17C328.21 335.15 330.07 332.79 330.49 330.76C331.09 328.33 330.84 325.77 329.78 323.51C329.07 321.99 327.89 320.75 326.41 319.96C322.46 317.89 316.49 318.66 312.53 320.3C309.95 321.39 307.6 322.94 305.59 324.88C301.54 328.64 298.7 333.53 297.43 338.91C297.11 340.6 296.46 342.2 295.52 343.64C294.58 345.07 293.36 346.31 291.94 347.27C286.39 351.01 276.21 350.79 268.43 348.92C254.85 345.7 244.49 338.17 242 329.66C240.78 325.61 240.19 321.37 234.74 319.79C231.22 318.75 223.84 319.48 225.42 323.93C225.99 325.15 226.74 326.28 227.64 327.29C229.08 329.18 230.61 332.76 226.33 333.91C224.95 334.2 223.52 334.27 222.11 334.12C208.36 333.19 195.7 328.6 187.49 322.14C184.82 320.04 182.55 317.47 180.8 314.55C179.82 312.94 179.47 311.21 178.41 309.63C177.39 308.1 175.95 306.9 174.26 306.18C168.98 303.91 156.57 305.09 155.7 310.06C155.23 312.75 156.91 315.68 157.77 318.24C157.92 318.56 157.96 318.92 157.87 319.27C157.62 319.92 156.64 320.11 155.8 320.16C144.7 320.9 133.94 316.59 124.63 312.09C114.76 307.33 103.91 301.12 90.2 301.05C87.37 300.92 84.53 301.24 81.8 302.01C81.11 302.2 80.46 302.53 79.91 302.99C79.58 303.33 79.35 303.78 79.27 304.25C79.19 304.73 79.26 305.22 79.46 305.66C79.9 306.57 80.56 307.36 81.38 307.96C85.53 311.34 91.33 312.7 96.62 314.44C112.33 319.53 127.52 326.11 141.98 334.07C143.44 334.89 146.03 336.79 143.98 338.22C141.93 339.65 137.76 338.73 135.31 338.32C130.85 337.6 126.57 336.44 122.23 335.35C116.49 333.9 109.8 332.58 103.59 333.78C100.3 334.42 97.37 335.76 95.83 337.59C95.29 338.12 94.94 338.81 94.82 339.55C94.7 340.29 94.82 341.06 95.16 341.73C97.3 345.53 107.02 347.17 112.34 348.98C119.14 351.3 125.8 354.05 132.26 357.2C137.78 359.93 142.91 362.93 148.51 365.61C168.49 375.19 196.4 376.42 221.36 377.36C248.45 378.39 275.66 377.51 302.68 376.01C322.37 374.91 341.69 372.75 360.98 370.2C366.52 369.47 372.03 368.58 377.56 367.83C383.16 367.18 388.7 366.08 394.13 364.54C396.08 364.04 397.9 363.13 399.47 361.87C400.95 360.49 401.41 358.69 398.76 358.17C393.21 357.06 387.49 358.33 382.06 359.31C375.97 360.43 369.93 361.72 363.95 363.17C361.23 363.9 358.46 364.46 355.66 364.86C352.86 365.26 350 365.07 347.26 364.32C346.37 364.04 345.4 363.55 345.35 362.76C345.29 361.97 346.04 361.47 346.81 361.17C357.99 356.74 369.86 353.92 381.81 351.33C389.93 349.57 398.18 348.49 406.36 347.12C413.81 345.86 421.66 345.57 428.11 340.85C429.4 340.02 430.4 338.82 430.97 337.4C431.25 336.67 431.32 335.88 431.17 335.11Z" fill="#407BFF" fill-opacity="1.000000" fill-rule="nonzero"/>
		</g>
		<g opacity="0.300000">
			<path id="Vector" d="M110.59 293.17C107.55 284.54 96.74 269.26 94.46 278.28C93.24 283.34 110.59 293.17 110.59 293.17Z" fill="#407BFF" fill-opacity="1.000000" fill-rule="nonzero"/>
		</g>
		<g opacity="0.300000">
			<path id="Vector" d="M382.21 310.15C387.99 304.88 395.2 301.74 396.13 306.38C397 310.78 382.21 310.15 382.21 310.15Z" fill="#407BFF" fill-opacity="1.000000" fill-rule="nonzero"/>
		</g>
		<g opacity="0.300000">
			<path id="Vector" d="M145.03 268.22C141.08 266.15 137.99 262.82 140.31 261.43C142.63 260.05 145.03 268.22 145.03 268.22Z" fill="#407BFF" fill-opacity="1.000000" fill-rule="nonzero"/>
		</g>
	</g>
</svg>
