<svg width="374.000000" height="278.000000" viewBox="0 0 374 278" fill="none" xmlns="http://www.w3.org/2000/svg" xmlns:xlink="http://www.w3.org/1999/xlink">
	<desc>
			Created with Pixso.
	</desc>
	<defs>
		<clipPath id="clip103_130">
			<rect id="Frame" rx="-0.500000" width="373.000000" height="277.000000" transform="translate(0.500000 0.500000)" fill="white" fill-opacity="0"/>
		</clipPath>
	</defs>
	<rect id="Frame" rx="-0.500000" width="373.000000" height="277.000000" transform="translate(0.500000 0.500000)" fill="#FFFFFF" fill-opacity="0"/>
	<g clip-path="url(#clip103_130)">
		<path id="&lt;Path&gt;" d="M332.03 269.55C332.03 274.21 267.09 278 187 278C106.9 278 41.97 274.21 41.97 269.55C41.97 264.89 106.9 261.1 187 261.1C267.09 261.1 332.03 264.89 332.03 269.55Z" fill="#F5F5F5" fill-opacity="1.000000" fill-rule="evenodd"/>
		<g opacity="0.100000">
			<path id="Vector" d="M102.7 210.59C102.79 209.91 103.13 209.3 103.66 208.88C104.19 208.45 104.86 208.24 105.54 208.3C111.94 208.2 117.93 212.71 123.49 217.55C124.72 218.62 126.06 219.73 127.45 218.61C127.88 218.25 128.19 217.78 128.34 217.25C128.58 216.38 128.58 215.46 128.34 214.59C128.14 213.88 127.8 213.2 127.33 212.62C124.92 209.44 121.98 207.92 119.59 204.65C118.26 202.77 117.15 200.74 116.29 198.6C115.55 196.72 114.05 193.69 114.65 191.14C115.31 188.1 117.6 188.36 118.98 188.78C123.36 190.08 127.44 193.2 131.15 197.07C135.11 201.19 138.69 206.15 142.26 211.08C143.6 212.95 145.03 214.88 146.75 215.56C148.47 216.23 150.64 215.14 151.37 212.44C152.09 209.74 151.24 206.63 151.06 203.95C150.82 200.74 150.98 197.52 151.53 194.35C151.77 192.68 152.33 191.07 153.19 189.61C155.12 186.79 157.98 187.78 159.85 189.91C161.28 191.7 162.38 193.72 163.11 195.88C165.21 201.86 166.47 208.1 166.85 214.42C167.14 218.34 167.73 222.42 169.35 225.46C171.96 230.37 176.83 229.98 180.61 227.4C187.18 222.93 192.25 212.81 193.61 201.5C194.05 197.81 194.16 193.83 195.51 190.74C196.68 188.07 199.7 186.26 201.17 189.14C201.76 190.58 201.93 192.16 201.65 193.69C201.38 195.21 201.01 196.71 200.53 198.17C199.79 200.71 199.04 205.46 201.06 206.95C201.36 207.13 201.7 207.24 202.05 207.28C202.4 207.32 202.75 207.28 203.08 207.17C209.7 205.8 215.85 199.59 219.89 190.93C221.35 187.67 222.47 184.26 223.22 180.77C223.71 178.64 223.91 176.35 224.45 174.23C224.79 172.56 225.49 170.99 226.5 169.61C229.07 166.54 235.01 167.98 235.35 174.57C235.55 178.39 234.53 182.12 234.16 185.85C233.93 188.17 235.37 188.16 236.45 188.08C241.61 187.56 246.17 182.37 250.22 176.97C255.03 170.54 260.35 162.2 266.92 161.96C268.42 161.9 270.91 162.1 271.8 164.4C272.22 165.82 272.22 167.32 271.8 168.73C270.47 174.24 266.57 177.08 263.57 179.8C255.14 187.69 247.72 196.6 241.49 206.32C240.54 207.81 239.56 210.27 240.46 211.74C240.64 212.01 240.89 212.23 241.19 212.37C241.49 212.5 241.82 212.54 242.15 212.48C245.23 212.24 248.13 209.8 250.95 207.77C253.77 205.74 256.97 203.96 259.93 205.49C260.84 206.04 261.63 206.76 262.26 207.61C262.89 208.46 263.35 209.43 263.6 210.46C264.13 212.26 264.21 214.17 263.85 216.01C262.76 221.08 258.07 223.35 255.49 225.85C251.94 229.27 248.68 232.99 245.77 236.96C243.07 240.64 240.53 244.67 237.84 248.28C228.11 261.21 214.65 263.13 202.68 264.63C189.66 266.25 176.61 265.37 163.66 263.66C154.24 262.41 144.96 259.74 135.77 256.57C132.61 255.43 129.47 254.18 126.38 252.7C123.05 251.12 118.15 250.14 116.87 243.91C116.6 242.57 116.92 241.48 117.81 240.98C120.57 239.42 124.5 241.51 127.1 242.89C130.68 244.8 134.07 247.53 137.75 249C138.35 249.29 138.99 249.45 139.65 249.49C140.31 249.52 140.97 249.42 141.58 249.2C142.19 248.94 142.69 248.49 143 247.91C143.39 247.15 143.49 246.27 143.27 245.45C143.12 245.01 142.86 244.6 142.52 244.28C135.89 237.51 127.98 232.13 119.24 228.45C116.44 227.25 113.57 226.26 110.87 224.56C108.69 223.21 106.81 221.44 105.34 219.34C104.08 217.33 102.06 213.79 102.7 210.59Z" fill="#407BFF" fill-opacity="1.000000" fill-rule="nonzero"/>
		</g>
		<g opacity="0.100000">
			<path id="Vector" d="M245.77 155.74C245.27 156.26 244.61 156.6 243.9 156.71C243.19 156.82 242.46 156.7 241.83 156.36C241.19 156.03 240.68 155.49 240.38 154.84C240.07 154.19 239.99 153.46 240.14 152.76C242.72 140.26 248.33 131.17 255 135.89C259.99 139.4 252.18 149.09 245.77 155.74Z" fill="#407BFF" fill-opacity="1.000000" fill-rule="nonzero"/>
		</g>
		<g opacity="0.300000">
			<path id="Vector" d="M227.66 161.58C229.7 160.45 231.43 158.84 232.7 156.89C233.96 154.94 234.72 152.7 234.91 150.38L239.97 88.94C240.23 85.79 239.83 82.61 238.79 79.61C237.74 76.62 236.09 73.88 233.92 71.56L218.34 54.91C217.48 53.99 216.82 52.91 216.41 51.72C216 50.53 215.83 49.27 215.94 48.02L216.68 39.02L176.36 35.72L175.61 44.72C175.51 45.97 175.14 47.18 174.54 48.29C173.94 49.39 173.11 50.36 172.12 51.12L154.02 65.02C151.5 66.96 149.42 69.4 147.9 72.18C146.38 74.96 145.46 78.03 145.2 81.19L140.14 142.63C139.95 144.95 140.33 147.27 141.26 149.4C142.19 151.53 143.63 153.4 145.46 154.84C143.42 155.96 141.69 157.57 140.42 159.52C139.16 161.48 138.4 163.71 138.22 166.03L131.76 244.37C131.46 248.09 132.65 251.79 135.07 254.64C137.5 257.49 140.95 259.26 144.69 259.57L211.26 265.02C213.11 265.17 214.97 264.96 216.74 264.4C218.5 263.83 220.14 262.92 221.56 261.73C222.97 260.53 224.13 259.07 224.98 257.42C225.83 255.78 226.35 253.98 226.5 252.14L232.95 173.8C233.15 171.48 232.77 169.16 231.85 167.02C230.92 164.89 229.49 163.02 227.66 161.58Z" fill="#407BFF" fill-opacity="1.000000" fill-rule="nonzero"/>
		</g>
		<g opacity="0.300000">
			<path id="Vector" d="M175.8 42.67L176.37 35.73L216.69 39.04L216.11 45.98L175.8 42.67Z" fill="#407BFF" fill-opacity="1.000000" fill-rule="evenodd"/>
		</g>
		<g opacity="0.300000">
			<path id="Vector" d="M233.54 73.16L217.96 56.5C217.96 56.5 207.92 56.94 215.72 69.22C222.37 79.62 233.95 78 233.54 73.16Z" fill="#FFFFFF" fill-opacity="1.000000" fill-rule="nonzero"/>
		</g>
		<g opacity="0.200000">
			<path id="Vector" d="M131.77 244.34C131.47 248.06 132.66 251.76 135.08 254.61C137.5 257.46 140.96 259.23 144.7 259.54L211.27 264.99C213.12 265.14 214.98 264.93 216.74 264.37C218.51 263.8 220.15 262.89 221.56 261.7C222.98 260.5 224.14 259.04 224.99 257.39C225.84 255.75 226.35 253.95 226.5 252.11L131.77 244.34Z" fill="#407BFF" fill-opacity="1.000000" fill-rule="nonzero"/>
		</g>
		<g opacity="0.300000">
			<path id="Vector" d="M230.63 74.6C232.37 76.46 233.7 78.67 234.54 81.07C235.38 83.48 235.7 86.03 235.5 88.56L230.44 150.01C230.31 151.59 229.79 153.11 228.92 154.44C228.06 155.77 226.88 156.87 225.49 157.64L219.6 160.89L224.87 165.06C226.12 166.04 227.11 167.31 227.74 168.77C228.38 170.22 228.64 171.81 228.51 173.39L222.05 251.73C221.85 254.26 220.64 256.62 218.69 258.27C216.75 259.92 214.22 260.73 211.68 260.53L145.11 255.08C143.84 254.98 142.61 254.63 141.48 254.05C140.35 253.48 139.35 252.69 138.52 251.73C137.7 250.76 137.08 249.65 136.68 248.45C136.29 247.24 136.14 245.97 136.24 244.71L142.7 166.37C142.83 164.79 143.35 163.27 144.21 161.94C145.07 160.61 146.25 159.51 147.64 158.74L153.53 155.49L148.29 151.32C147.05 150.34 146.06 149.06 145.43 147.61C144.79 146.16 144.53 144.57 144.66 142.99L149.72 81.55C149.93 79.01 150.67 76.55 151.89 74.31C153.11 72.08 154.78 70.12 156.81 68.57C162.79 64.71 178.5 74.31 196.89 75.82C215.28 77.33 226.79 72.67 230.63 74.6Z" fill="#407BFF" fill-opacity="1.000000" fill-rule="nonzero"/>
		</g>
		<g opacity="0.200000">
			<path id="Vector" d="M196.85 75.83C178.47 74.34 162.75 64.71 156.76 68.57C167.23 74.31 179.2 77.87 196.56 79.3C213.92 80.72 230.63 74.6 230.63 74.6C226.79 72.67 215.24 77.34 196.85 75.83Z" fill="#407BFF" fill-opacity="1.000000" fill-rule="nonzero"/>
		</g>
		<g opacity="0.200000">
			<path id="Vector" d="M140.15 142.63C139.96 144.95 140.34 147.27 141.27 149.4C142.2 151.53 143.64 153.4 145.47 154.84L227.66 161.55C229.7 160.43 231.43 158.82 232.7 156.87C233.96 154.91 234.72 152.68 234.91 150.36L140.15 142.63Z" fill="#407BFF" fill-opacity="1.000000" fill-rule="nonzero"/>
		</g>
		<path id="Vector" d="M177.33 24.73L217.53 28.03C219.21 28.17 220.47 29.65 220.33 31.33L219.53 41.08C219.39 42.76 217.91 44.01 216.23 43.87L176.02 40.57C174.34 40.43 173.09 38.95 173.22 37.27L174.03 27.52C174.16 25.84 175.64 24.59 177.33 24.73Z" fill="#407BFF" fill-opacity="1.000000" fill-rule="evenodd"/>
		<g opacity="0.200000">
			<path id="Vector" d="M178.06 39.06C178.02 39.06 177.97 39.04 177.92 39.02C177.88 39 177.84 38.97 177.81 38.93C177.78 38.89 177.75 38.85 177.74 38.8C177.72 38.76 177.72 38.71 177.72 38.66L178.66 26.85C178.67 26.76 178.72 26.66 178.79 26.6C178.87 26.53 178.97 26.5 179.07 26.51C179.17 26.52 179.26 26.57 179.32 26.64C179.39 26.72 179.42 26.81 179.41 26.91L178.44 38.71C178.43 38.8 178.39 38.89 178.32 38.96C178.25 39.02 178.16 39.06 178.06 39.06Z" fill="#FFFFFF" fill-opacity="1.000000" fill-rule="nonzero"/>
		</g>
		<g opacity="0.200000">
			<path id="Vector" d="M185.36 39.66C185.31 39.65 185.26 39.64 185.22 39.62C185.17 39.6 185.13 39.56 185.1 39.53C185.07 39.49 185.05 39.45 185.03 39.4C185.02 39.35 185.01 39.3 185.01 39.25L185.99 27.46C186 27.36 186.04 27.27 186.12 27.21C186.19 27.14 186.29 27.11 186.39 27.12C186.44 27.12 186.49 27.13 186.53 27.15C186.57 27.18 186.61 27.21 186.64 27.25C186.67 27.28 186.7 27.33 186.71 27.37C186.73 27.42 186.73 27.47 186.73 27.52L185.73 39.31C185.72 39.41 185.68 39.49 185.61 39.56C185.54 39.62 185.45 39.66 185.36 39.66Z" fill="#FFFFFF" fill-opacity="1.000000" fill-rule="nonzero"/>
		</g>
		<g opacity="0.200000">
			<path id="Vector" d="M192.64 40.28C192.59 40.28 192.55 40.27 192.5 40.24C192.46 40.22 192.42 40.19 192.39 40.15C192.35 40.12 192.33 40.07 192.32 40.03C192.3 39.98 192.29 39.93 192.3 39.88L193.27 28.09C193.28 27.99 193.33 27.9 193.41 27.83C193.48 27.77 193.58 27.74 193.67 27.74C193.72 27.75 193.77 27.76 193.82 27.78C193.86 27.8 193.9 27.83 193.93 27.87C193.96 27.91 193.99 27.95 194 28C194.02 28.05 194.02 28.1 194.02 28.14L193.05 39.94C193.04 39.99 193.03 40.04 193.01 40.08C192.98 40.13 192.95 40.16 192.92 40.2C192.88 40.23 192.84 40.25 192.79 40.27C192.74 40.28 192.69 40.29 192.64 40.28Z" fill="#FFFFFF" fill-opacity="1.000000" fill-rule="nonzero"/>
		</g>
		<g opacity="0.200000">
			<path id="Vector" d="M199.94 40.85C199.89 40.85 199.84 40.83 199.79 40.81C199.75 40.79 199.71 40.76 199.68 40.72C199.65 40.68 199.62 40.64 199.61 40.59C199.59 40.55 199.59 40.5 199.59 40.45L200.56 28.65C200.57 28.55 200.62 28.46 200.7 28.4C200.77 28.34 200.87 28.3 200.97 28.31C201.02 28.31 201.06 28.33 201.11 28.35C201.15 28.37 201.19 28.4 201.22 28.44C201.25 28.48 201.28 28.52 201.29 28.57C201.31 28.61 201.31 28.66 201.3 28.71L200.33 40.51C200.33 40.56 200.32 40.6 200.29 40.65C200.27 40.69 200.24 40.73 200.21 40.76C200.17 40.79 200.13 40.82 200.08 40.83C200.03 40.85 199.98 40.85 199.94 40.85Z" fill="#FFFFFF" fill-opacity="1.000000" fill-rule="nonzero"/>
		</g>
		<g opacity="0.200000">
			<path id="Vector" d="M207.19 41.45C207.14 41.44 207.09 41.43 207.05 41.41C207.01 41.39 206.97 41.36 206.94 41.32C206.9 41.28 206.88 41.24 206.86 41.19C206.85 41.14 206.84 41.09 206.85 41.04L207.82 29.25C207.83 29.15 207.88 29.06 207.96 29C208.03 28.94 208.13 28.9 208.22 28.91C208.27 28.91 208.32 28.92 208.36 28.95C208.41 28.97 208.45 29 208.48 29.04C208.51 29.07 208.54 29.12 208.55 29.16C208.57 29.21 208.57 29.26 208.57 29.31L207.6 41.1C207.59 41.15 207.58 41.2 207.56 41.25C207.54 41.29 207.5 41.33 207.47 41.36C207.43 41.39 207.39 41.42 207.34 41.43C207.29 41.45 207.24 41.45 207.19 41.45Z" fill="#FFFFFF" fill-opacity="1.000000" fill-rule="nonzero"/>
		</g>
		<g opacity="0.200000">
			<path id="Vector" d="M214.51 42.04C214.47 42.04 214.42 42.03 214.37 42.01C214.33 41.98 214.29 41.95 214.26 41.91C214.23 41.88 214.2 41.83 214.19 41.79C214.17 41.74 214.17 41.69 214.17 41.64L215.11 29.84C215.12 29.74 215.17 29.65 215.25 29.59C215.32 29.52 215.42 29.49 215.52 29.5C215.62 29.5 215.71 29.55 215.77 29.63C215.83 29.7 215.86 29.8 215.85 29.9L214.89 41.7C214.88 41.79 214.84 41.88 214.77 41.94C214.7 42.01 214.61 42.04 214.51 42.04Z" fill="#FFFFFF" fill-opacity="1.000000" fill-rule="nonzero"/>
		</g>
		<g opacity="0.200000">
			<path id="Vector" d="M152.59 122.11C151.45 115.83 142.29 116.28 141.76 122.63L140.12 142.63C139.93 144.95 140.31 147.27 141.24 149.4C142.17 151.53 143.61 153.4 145.44 154.84C143.39 155.96 141.67 157.57 140.4 159.52C139.14 161.48 138.38 163.71 138.2 166.03L131.74 244.37C131.44 248.09 132.63 251.79 135.05 254.64C137.47 257.49 140.93 259.26 144.67 259.57L161.87 260.98C163.77 261.13 165.67 260.85 167.44 260.15C169.21 259.46 170.79 258.36 172.07 256.96C173.35 255.55 174.29 253.88 174.81 252.05C175.34 250.23 175.43 248.31 175.09 246.44L152.59 122.11Z" fill="#407BFF" fill-opacity="1.000000" fill-rule="nonzero"/>
		</g>
		<g opacity="0.300000">
			<path id="Vector" d="M218.79 224.69C218.67 226.13 218.12 227.5 217.22 228.63C216.32 229.76 215.11 230.59 213.73 231.04C212.35 231.48 210.88 231.5 209.48 231.1C208.09 230.71 206.85 229.91 205.92 228.81C204.98 227.71 204.39 226.36 204.23 224.92C204.06 223.49 204.33 222.04 204.99 220.76C205.65 219.47 206.68 218.41 207.94 217.71C209.2 217.01 210.65 216.7 212.09 216.82C214.02 216.98 215.82 217.89 217.07 219.37C218.33 220.85 218.94 222.76 218.79 224.69Z" fill="#407BFF" fill-opacity="1.000000" fill-rule="nonzero"/>
		</g>
		<g opacity="0.300000">
			<path id="Vector" d="M195.53 196.43C195.45 197.45 195.06 198.42 194.43 199.22C193.79 200.02 192.93 200.62 191.95 200.93C190.98 201.24 189.93 201.26 188.95 200.98C187.97 200.7 187.09 200.13 186.42 199.35C185.76 198.57 185.35 197.62 185.23 196.6C185.11 195.59 185.3 194.56 185.77 193.65C186.23 192.75 186.96 192 187.86 191.5C188.75 191 189.77 190.78 190.79 190.87C192.16 190.98 193.43 191.63 194.32 192.67C195.2 193.72 195.64 195.07 195.53 196.43Z" fill="#407BFF" fill-opacity="1.000000" fill-rule="nonzero"/>
		</g>
		<g opacity="0.300000">
			<path id="Vector" d="M173.89 133.55C172.87 133.59 171.86 133.34 170.98 132.81C170.1 132.28 169.4 131.51 168.97 130.59C168.53 129.66 168.38 128.63 168.53 127.62C168.68 126.61 169.13 125.67 169.82 124.92C170.51 124.16 171.41 123.63 172.4 123.38C173.39 123.13 174.43 123.18 175.4 123.53C176.36 123.87 177.2 124.49 177.81 125.31C178.42 126.13 178.77 127.12 178.82 128.14C178.85 128.81 178.75 129.49 178.52 130.13C178.29 130.77 177.94 131.36 177.48 131.86C177.02 132.36 176.47 132.77 175.85 133.06C175.24 133.35 174.57 133.51 173.89 133.55Z" fill="#407BFF" fill-opacity="1.000000" fill-rule="nonzero"/>
		</g>
		<g opacity="0.300000">
			<path id="Vector" d="M188.01 102.68C187.28 102.72 186.56 102.54 185.94 102.16C185.32 101.79 184.82 101.25 184.51 100.59C184.2 99.94 184.09 99.21 184.2 98.49C184.3 97.77 184.62 97.11 185.11 96.57C185.6 96.03 186.23 95.66 186.94 95.48C187.64 95.31 188.38 95.34 189.06 95.59C189.75 95.83 190.34 96.28 190.77 96.86C191.2 97.44 191.45 98.14 191.48 98.86C191.53 99.83 191.19 100.77 190.54 101.49C189.88 102.2 188.97 102.63 188.01 102.68Z" fill="#407BFF" fill-opacity="1.000000" fill-rule="nonzero"/>
		</g>
		<g opacity="0.300000">
			<path id="Vector" d="M210.71 174.12C210.68 174.54 210.52 174.94 210.26 175.27C209.99 175.6 209.64 175.84 209.24 175.97C208.83 176.1 208.4 176.11 207.99 175.99C207.59 175.87 207.22 175.64 206.95 175.32C206.68 175 206.51 174.6 206.46 174.18C206.41 173.76 206.49 173.34 206.68 172.97C206.87 172.59 207.17 172.28 207.54 172.07C207.91 171.87 208.33 171.78 208.76 171.81C209.32 171.86 209.85 172.13 210.21 172.56C210.58 172.99 210.76 173.55 210.71 174.12Z" fill="#407BFF" fill-opacity="1.000000" fill-rule="nonzero"/>
		</g>
		<g opacity="0.700000">
			<path id="Vector" d="M171.97 232.49L171.61 232.49C171.04 232.45 170.48 232.3 169.96 232.04C169.45 231.79 168.99 231.43 168.62 231C168.25 230.57 167.97 230.07 167.8 229.53C167.62 228.99 167.56 228.42 167.61 227.85C167.68 227.01 167.99 226.22 168.51 225.56C169.02 224.89 169.72 224.4 170.52 224.12C171.31 223.85 172.17 223.82 172.98 224.02C173.8 224.23 174.54 224.66 175.11 225.28C175.68 225.9 176.06 226.67 176.19 227.49C176.33 228.32 176.23 229.17 175.89 229.94C175.55 230.71 175 231.36 174.3 231.82C173.59 232.28 172.77 232.53 171.93 232.53L171.97 232.49ZM171.97 224.4C171.12 224.41 170.29 224.7 169.63 225.24C168.97 225.77 168.51 226.51 168.33 227.34C168.15 228.17 168.26 229.04 168.64 229.8C169.02 230.56 169.64 231.16 170.42 231.52C171.19 231.88 172.06 231.96 172.89 231.76C173.71 231.55 174.44 231.07 174.96 230.4C175.48 229.72 175.75 228.89 175.73 228.05C175.71 227.2 175.4 226.38 174.85 225.73C174.53 225.35 174.14 225.04 173.7 224.82C173.26 224.59 172.78 224.46 172.28 224.42L171.97 224.4Z" fill="#FFFFFF" fill-opacity="1.000000" fill-rule="nonzero"/>
		</g>
		<g opacity="0.700000">
			<path id="Vector" d="M218.23 145.18L217.97 145.18C217.14 145.12 216.37 144.72 215.83 144.09C215.29 143.45 215.02 142.63 215.09 141.8C215.16 140.97 215.56 140.21 216.19 139.67C216.83 139.13 217.65 138.86 218.49 138.93C219.32 139 220.09 139.39 220.63 140.03C221.17 140.66 221.43 141.48 221.37 142.31C221.3 143.14 220.9 143.91 220.27 144.45C219.7 144.93 218.98 145.19 218.23 145.18ZM215.65 141.83C215.61 142.34 215.73 142.85 215.98 143.29C216.23 143.73 216.61 144.09 217.06 144.32C217.52 144.55 218.03 144.64 218.53 144.59C219.04 144.53 219.52 144.32 219.91 143.99C220.17 143.77 220.38 143.5 220.54 143.2C220.69 142.9 220.79 142.57 220.81 142.23C220.84 141.89 220.8 141.55 220.7 141.23C220.59 140.91 220.43 140.61 220.21 140.35C219.98 140.1 219.7 139.89 219.39 139.75C219.09 139.61 218.75 139.53 218.41 139.51C218.07 139.49 217.73 139.52 217.41 139.63C217.08 139.73 216.79 139.89 216.53 140.11C216.27 140.33 216.05 140.6 215.9 140.9C215.74 141.2 215.65 141.53 215.62 141.87L215.65 141.83Z" fill="#FFFFFF" fill-opacity="1.000000" fill-rule="nonzero"/>
		</g>
		<g opacity="0.700000">
			<path id="Vector" d="M169.9 79.04L169.79 79.04C169.41 79 169.05 78.81 168.8 78.52C168.55 78.22 168.42 77.84 168.44 77.45C168.46 77.16 168.57 76.89 168.74 76.65C168.92 76.42 169.16 76.24 169.43 76.15C169.71 76.05 170 76.03 170.29 76.1C170.57 76.17 170.83 76.32 171.03 76.53C171.23 76.74 171.36 77.01 171.41 77.29C171.46 77.58 171.43 77.87 171.31 78.14C171.2 78.41 171 78.64 170.76 78.8C170.52 78.96 170.23 79.04 169.94 79.04L169.9 79.04ZM169 77.5C168.98 77.68 169.02 77.85 169.11 78.01C169.2 78.17 169.33 78.29 169.49 78.37C169.65 78.45 169.83 78.49 170 78.47C170.18 78.45 170.35 78.37 170.49 78.26C170.62 78.14 170.72 77.99 170.77 77.82C170.82 77.65 170.82 77.47 170.76 77.3C170.71 77.13 170.61 76.98 170.47 76.86C170.33 76.75 170.16 76.69 169.98 76.67C169.86 76.66 169.74 76.67 169.62 76.71C169.51 76.74 169.4 76.8 169.31 76.88C169.22 76.96 169.15 77.05 169.09 77.16C169.04 77.26 169.01 77.38 169 77.5Z" fill="#FFFFFF" fill-opacity="1.000000" fill-rule="nonzero"/>
		</g>
		<g opacity="0.700000">
			<path id="Vector" d="M202.98 117.68L202.67 117.68C202.17 117.64 201.69 117.5 201.25 117.28C200.81 117.05 200.42 116.74 200.1 116.37C199.79 115.99 199.54 115.56 199.39 115.09C199.24 114.62 199.19 114.12 199.23 113.63C199.3 112.91 199.57 112.23 200.02 111.66C200.46 111.09 201.07 110.66 201.75 110.43C202.44 110.2 203.18 110.17 203.88 110.35C204.59 110.52 205.22 110.9 205.71 111.44C206.2 111.97 206.53 112.63 206.65 113.35C206.77 114.06 206.68 114.79 206.39 115.45C206.1 116.12 205.62 116.68 205.01 117.08C204.41 117.48 203.7 117.69 202.97 117.69L202.98 117.68ZM202.98 110.74C202.23 110.73 201.5 111 200.92 111.48C200.28 112.03 199.87 112.81 199.8 113.65C199.76 114.17 199.85 114.69 200.06 115.17C200.26 115.65 200.59 116.07 201 116.4C201.41 116.72 201.9 116.94 202.41 117.04C202.93 117.13 203.46 117.1 203.96 116.94C204.46 116.78 204.91 116.5 205.28 116.12C205.64 115.75 205.91 115.29 206.05 114.78C206.2 114.28 206.22 113.75 206.11 113.24C206 112.73 205.76 112.25 205.43 111.85C205.16 111.53 204.82 111.27 204.45 111.08C204.08 110.88 203.67 110.77 203.25 110.74L202.98 110.74Z" fill="#FFFFFF" fill-opacity="1.000000" fill-rule="nonzero"/>
		</g>
		<g opacity="0.300000">
			<path id="Vector" d="M233.66 150.29L238.5 91.7C238.53 91.33 238.48 90.95 238.37 90.6C238.25 90.24 238.07 89.91 237.82 89.62C237.58 89.33 237.28 89.1 236.95 88.93C236.61 88.76 236.25 88.65 235.87 88.62C235.5 88.59 235.12 88.63 234.76 88.75C234.4 88.86 234.07 89.05 233.78 89.29C233.49 89.53 233.26 89.83 233.09 90.16C232.91 90.5 232.81 90.86 232.78 91.23L227.95 149.82C227.79 151.77 227.15 153.65 226.09 155.29C225.02 156.93 223.57 158.28 221.85 159.23L218.91 160.86L221.55 162.94C223.09 164.15 224.31 165.72 225.09 167.51C225.87 169.3 226.2 171.26 226.04 173.21L219.59 251.55C219.2 256.25 216.23 258.54 212.07 260.37C211.8 260.48 211.59 260.69 211.45 260.94C211.31 261.2 211.27 261.49 211.31 261.77C211.36 262.06 211.5 262.32 211.71 262.51C211.93 262.71 212.2 262.83 212.49 262.86C215.63 263.11 218.74 262.12 221.14 260.08C223.55 258.05 225.04 255.15 225.3 252.02L231.76 173.68C231.92 171.73 231.59 169.77 230.81 167.98C230.02 166.19 228.81 164.62 227.27 163.41L224.63 161.32L227.57 159.7C229.28 158.75 230.74 157.4 231.8 155.76C232.86 154.12 233.5 152.24 233.66 150.29Z" fill="#FFFFFF" fill-opacity="1.000000" fill-rule="nonzero"/>
		</g>
		<g opacity="0.300000">
			<path id="Vector" d="M311.31 241.35C310.5 237.69 300.41 239.86 298.33 240.19C294.27 240.93 290.3 242.07 286.48 243.6C282.27 245.25 277.38 247.67 273.01 245.17C270.5 243.72 279.25 240.86 280.04 240.57C283.76 239.27 287.35 237.63 290.76 235.66C292.15 234.84 294.83 232.88 293.68 230.89C292.72 229.24 289.28 229.4 287.2 229.65C280.87 230.42 274.67 231.97 268.73 234.27C262.95 236.56 257.29 239.14 251.78 242C249.64 243.21 247.32 244.04 244.91 244.47C242.27 244.85 239.05 244.29 238.01 242.83C236.97 241.38 238.31 239.68 238.62 238.21C239.05 236.47 238.87 234.62 238.1 232.99C237.59 231.9 236.74 231 235.67 230.44C232.82 228.95 228.51 229.5 225.64 230.68C223.79 231.46 222.09 232.58 220.64 233.98C217.72 236.69 215.67 240.21 214.75 244.09C214.52 245.3 214.05 246.46 213.37 247.49C212.68 248.52 211.81 249.41 210.78 250.11C206.77 252.8 199.43 252.64 193.81 251.29C184 248.97 176.52 243.55 174.72 237.42C173.85 234.51 173.42 231.45 169.48 230.31C166.94 229.57 161.62 230.09 162.75 233.3C163.17 234.18 163.7 234.99 164.35 235.71C165.39 237.08 166.5 239.65 163.41 240.48C162.41 240.69 161.38 240.74 160.37 240.63C150.43 239.97 141.29 236.66 135.37 232.01C133.44 230.49 131.8 228.64 130.54 226.54C129.83 225.38 129.58 224.14 128.81 222.99C128.07 221.9 127.03 221.03 125.82 220.51C122 218.88 113.04 219.73 112.41 223.31C112.08 225.25 113.29 227.35 113.91 229.19C114.02 229.43 114.05 229.69 113.98 229.94C113.8 230.41 113.09 230.54 112.49 230.58C104.48 231.11 96.7 228.01 89.98 224.77C82.86 221.34 75.02 216.87 65.12 216.82C63.08 216.72 61.03 216.96 59.06 217.51C58.56 217.64 58.09 217.88 57.7 218.21C57.45 218.46 57.29 218.78 57.23 219.12C57.18 219.47 57.22 219.82 57.37 220.14C57.69 220.79 58.17 221.36 58.76 221.79C61.75 224.22 65.94 225.21 69.76 226.46C81.1 230.13 92.07 234.86 102.51 240.6C103.56 241.19 105.43 242.56 103.95 243.59C102.47 244.62 99.46 243.95 97.69 243.66C94.48 243.14 91.39 242.3 88.25 241.52C84.11 240.47 79.28 239.53 74.79 240.39C72.42 240.85 70.3 241.82 69.18 243.13C68.8 243.51 68.55 244.01 68.46 244.55C68.38 245.08 68.46 245.63 68.71 246.12C70.25 248.85 77.27 250.03 81.11 251.34C86.02 253.01 90.83 254.99 95.49 257.25C99.48 259.22 103.18 261.38 107.22 263.31C121.65 270.21 141.8 271.1 159.82 271.77C179.38 272.52 199.03 271.89 218.54 270.8C232.75 270.01 246.7 268.45 260.63 266.62C264.63 266.1 268.61 265.45 272.6 264.91C276.64 264.45 280.65 263.66 284.56 262.54C285.97 262.19 287.29 261.53 288.42 260.62C289.49 259.63 289.82 258.33 287.91 257.96C283.9 257.16 279.77 258.07 275.85 258.78C271.45 259.58 267.09 260.51 262.78 261.56C260.81 262.08 258.81 262.49 256.79 262.78C254.76 263.06 252.7 262.93 250.72 262.39C250.08 262.19 249.38 261.83 249.34 261.26C249.3 260.69 249.84 260.34 250.4 260.12C258.47 256.93 267.04 254.9 275.67 253.03C281.53 251.76 287.49 250.99 293.39 249.99C298.77 249.09 304.44 248.88 309.1 245.48C310.03 244.88 310.75 244.02 311.16 243C311.37 242.47 311.41 241.9 311.31 241.35Z" fill="#407BFF" fill-opacity="1.000000" fill-rule="nonzero"/>
		</g>
		<g opacity="0.300000">
			<path id="Vector" d="M79.84 211.14C77.65 204.92 69.84 193.92 68.2 200.42C67.32 204.07 79.84 211.14 79.84 211.14Z" fill="#407BFF" fill-opacity="1.000000" fill-rule="nonzero"/>
		</g>
		<g opacity="0.300000">
			<path id="Vector" d="M275.96 223.37C280.13 219.58 285.34 217.32 286.01 220.66C286.64 223.82 275.96 223.37 275.96 223.37Z" fill="#407BFF" fill-opacity="1.000000" fill-rule="nonzero"/>
		</g>
		<g opacity="0.300000">
			<path id="Vector" d="M104.72 193.17C101.86 191.68 99.63 189.29 101.31 188.29C102.98 187.29 104.72 193.17 104.72 193.17Z" fill="#407BFF" fill-opacity="1.000000" fill-rule="nonzero"/>
		</g>
	</g>
</svg>
