<svg width="1440.000000" height="432.000000" viewBox="0 0 1440 432" fill="none" xmlns="http://www.w3.org/2000/svg" xmlns:xlink="http://www.w3.org/1999/xlink">
	<desc>
			Created with Pixso.
	</desc>
	<defs/>
	<path id="Vector" d="M0 144L50 150C100 156 200 168 300 210C400 252 500 324 600 360C700 396 800 396 900 402C1000 408 1100 420 1150 426L1200 432L1150 432C1100 432 1000 432 900 432C800 432 700 432 600 432C500 432 400 432 300 432C200 432 100 432 50 432L0 432L0 144Z" fill="#9EBBFF" fill-opacity="1.000000" fill-rule="evenodd"/>
	<path id="Vector" d="M50 150C100 156 200 168 300 210C400 252 500 324 600 360C700 396 800 396 900 402C1000 408 1100 420 1150 426L1200 432L1150 432C1100 432 1000 432 900 432C800 432 700 432 600 432C500 432 400 432 300 432C200 432 100 432 50 432L0 432L0 144L50 150Z" stroke="#000000" stroke-opacity="1.000000" stroke-width="0.000000"/>
	<g opacity="0.800000">
		<path id="Vector" d="M1440 0L1400 0C1360 0 1280 0 1200 22C1120 43 1040 86 960 86C880 86 800 43 720 79C640 115 560 230 480 288C400 346 320 346 240 331C160 317 80 288 40 274L0 259L0 432L40 432C80 432 160 432 240 432C320 432 400 432 480 432C560 432 640 432 720 432C800 432 880 432 960 432C1040 432 1120 432 1200 432C1280 432 1360 432 1400 432L1440 432L1440 0Z" fill="#ECF2FF" fill-opacity="1.000000" fill-rule="evenodd"/>
		<path id="Vector" d="M1400 0C1360 0 1280 0 1200 22C1120 43 1040 86 960 86C880 86 800 43 720 79C640 115 560 230 480 288C400 346 320 346 240 331C160 317 80 288 40 274L0 259L0 432L40 432C80 432 160 432 240 432C320 432 400 432 480 432C560 432 640 432 720 432C800 432 880 432 960 432C1040 432 1120 432 1200 432C1280 432 1360 432 1400 432L1440 432L1440 0L1400 0Z" stroke="#000000" stroke-opacity="1.000000" stroke-width="0.000000"/>
	</g>
</svg>
