<svg width="768.000000" height="800.000000" viewBox="0 0 768 800" fill="none" xmlns="http://www.w3.org/2000/svg" xmlns:xlink="http://www.w3.org/1999/xlink">
	<desc>
			Created with Pixso.
	</desc>
	<defs>
		<clipPath id="clip115_2690">
			<rect id="Frame 17" rx="-0.500000" width="767.000000" height="679.000000" transform="translate(0.500000 0.500000)" fill="white" fill-opacity="0"/>
		</clipPath>
		<clipPath id="clip115_311">
			<rect id="Frame" rx="-0.500000" width="517.000000" height="385.000000" transform="translate(389.500000 364.500000)" fill="white" fill-opacity="0"/>
		</clipPath>
		<clipPath id="clip115_308">
			<rect id="Frame 15" rx="-0.500000" width="767.000000" height="799.000000" transform="translate(0.500000 0.500000)" fill="white" fill-opacity="0"/>
		</clipPath>
	</defs>
	<g clip-path="url(#clip115_308)">
		<path id="Vector" d="M-400 336L-319.92 345.66C-239.84 355.33 -79.67 374.66 80.5 442.33C240.66 510 400.83 626 561 684C721.16 742 881.33 742 1041.5 751.66C1201.67 761.33 1361.83 780.66 1441.92 790.33L1522 800L1441.92 800C1361.83 800 1201.67 800 1041.5 800C881.33 800 721.16 800 561 800C400.83 800 240.66 800 80.5 800C-79.67 800 -239.84 800 -319.92 800L-400 800L-400 336Z" fill="#9EBBFF" fill-opacity="1.000000" fill-rule="evenodd"/>
		<path id="Vector" d="M-319.92 345.66C-239.84 355.33 -79.67 374.66 80.5 442.33C240.66 510 400.83 626 561 684C721.16 742 881.33 742 1041.5 751.66C1201.67 761.33 1361.83 780.66 1441.92 790.33L1522 800L1441.92 800C1361.83 800 1201.67 800 1041.5 800C881.33 800 721.16 800 561 800C400.83 800 240.66 800 80.5 800C-79.67 800 -239.84 800 -319.92 800L-400 800L-400 336L-319.92 345.66Z" stroke="#000000" stroke-opacity="1.000000" stroke-width="0.000000"/>
		<g opacity="0.800000">
			<path id="Vector" d="M1907 0L1842.92 0C1778.83 0 1650.67 0 1522.5 40.74C1394.33 79.62 1266.17 159.25 1138 159.25C1009.83 159.25 881.66 79.62 753.5 146.29C625.33 212.96 497.16 425.92 369 533.33C240.83 640.74 112.66 640.74 -15.5 612.96C-143.67 587.03 -271.84 533.33 -335.92 507.4L-400 479.63L-400 800L-335.92 800C-271.84 800 -143.67 800 -15.5 800C112.66 800 240.83 800 369 800C497.16 800 625.33 800 753.5 800C881.66 800 1009.83 800 1138 800C1266.17 800 1394.33 800 1522.5 800C1650.67 800 1778.83 800 1842.92 800L1907 800L1907 0Z" fill="#ECF2FF" fill-opacity="1.000000" fill-rule="evenodd"/>
			<path id="Vector" d="M1842.92 0C1778.83 0 1650.67 0 1522.5 40.74C1394.33 79.62 1266.17 159.25 1138 159.25C1009.83 159.25 881.66 79.62 753.5 146.29C625.33 212.96 497.16 425.92 369 533.33C240.83 640.74 112.66 640.74 -15.5 612.96C-143.67 587.03 -271.84 533.33 -335.92 507.4L-400 479.63L-400 800L-335.92 800C-271.84 800 -143.67 800 -15.5 800C112.66 800 240.83 800 369 800C497.16 800 625.33 800 753.5 800C881.66 800 1009.83 800 1138 800C1266.17 800 1394.33 800 1522.5 800C1650.67 800 1778.83 800 1842.92 800L1907 800L1907 0L1842.92 0Z" stroke="#000000" stroke-opacity="1.000000" stroke-width="0.000000"/>
		</g>
	</g>
</svg>
