<svg width="320" height="952" viewBox="0 0 320 952" fill="none" xmlns="http://www.w3.org/2000/svg">
<g clip-path="url(#clip0_149_632)">
<path fill-rule="evenodd" clip-rule="evenodd" d="M-747 294L-633.458 307.708C-519.917 321.417 -292.833 348.833 -65.75 444.792C161.333 540.75 388.417 705.25 615.5 787.5C842.583 869.75 1069.67 869.75 1296.75 883.458C1523.83 897.167 1750.92 924.583 1864.46 938.292L1978 952H1864.46C1750.92 952 1523.83 952 1296.75 952C1069.67 952 842.583 952 615.5 952C388.417 952 161.333 952 -65.75 952C-292.833 952 -519.917 952 -633.458 952H-747V294Z" fill="#9EBBFF"/>
<path opacity="0.8" fill-rule="evenodd" clip-rule="evenodd" d="M2389 -182H2298.14C2207.28 -182 2025.56 -182 1843.83 -124.25C1662.11 -69.125 1480.39 43.75 1298.67 43.75C1116.94 43.75 935.222 -69.125 753.5 25.375C571.778 119.875 390.056 421.75 208.333 574C26.6111 726.25 -155.111 726.25 -336.833 686.875C-518.556 650.125 -700.278 574 -791.139 537.25L-882 497.875V952H-791.139C-700.278 952 -518.556 952 -336.833 952C-155.111 952 26.6111 952 208.333 952C390.056 952 571.778 952 753.5 952C935.222 952 1116.94 952 1298.67 952C1480.39 952 1662.11 952 1843.83 952C2025.56 952 2207.28 952 2298.14 952H2389V-182Z" fill="#ECF2FF"/>
<g clip-path="url(#clip1_149_632)">
<path opacity="0.7" d="M302.482 157.784H300.41C297.103 157.557 293.875 156.677 290.911 155.195C287.947 153.712 285.306 151.657 283.141 149.148C281.011 146.649 279.399 143.751 278.398 140.623C277.398 137.495 277.029 134.199 277.313 130.927C277.715 126.09 279.517 121.474 282.498 117.643C285.48 113.813 289.512 110.933 294.102 109.356C298.693 107.779 303.643 107.573 308.349 108.762C313.054 109.952 317.312 112.486 320.602 116.055C323.892 119.624 326.071 124.074 326.875 128.862C327.678 133.649 327.071 138.567 325.126 143.015C323.182 147.463 319.985 151.248 315.925 153.909C311.866 156.57 307.12 157.992 302.266 158L302.482 157.784ZM302.482 110.979C297.572 111.004 292.817 112.701 289.002 115.793C285.186 118.884 282.539 123.183 281.496 127.982C280.453 132.781 281.077 137.792 283.265 142.188C285.452 146.584 289.074 150.103 293.53 152.164C297.987 154.225 303.013 154.704 307.779 153.523C312.545 152.343 316.766 149.572 319.746 145.669C322.726 141.766 324.286 136.963 324.169 132.054C324.052 127.145 322.265 122.422 319.103 118.665C317.26 116.481 315.003 114.685 312.461 113.38C309.919 112.076 307.143 111.289 304.295 111.065L302.482 110.979Z" fill="#C6D7FF"/>
<path d="M289.201 372.669C289.006 375.034 288.114 377.288 286.639 379.146C285.163 381.005 283.169 382.384 280.909 383.109C278.65 383.835 276.226 383.874 273.944 383.222C271.662 382.57 269.625 381.256 268.09 379.447C266.554 377.637 265.59 375.413 265.319 373.055C265.048 370.698 265.481 368.313 266.566 366.202C267.65 364.091 269.335 362.349 271.41 361.196C273.484 360.043 275.853 359.53 278.219 359.724C281.391 359.986 284.329 361.497 286.388 363.924C288.447 366.351 289.459 369.496 289.201 372.669Z" fill="#C6D7FF"/>
<path d="M36.7944 160.405C36.5997 162.77 35.7081 165.024 34.2323 166.883C32.7564 168.741 30.7628 170.12 28.5032 170.846C26.2436 171.571 23.8197 171.611 21.5378 170.959C19.2559 170.307 17.2186 168.993 15.6833 167.183C14.1481 165.374 13.1839 163.15 12.9126 160.792C12.6414 158.435 13.0752 156.05 14.1594 153.939C15.2435 151.828 16.9292 150.085 19.0034 148.932C21.0776 147.779 23.4471 147.267 25.8124 147.46C28.9845 147.723 31.9226 149.234 33.9817 151.661C36.0408 154.088 37.0524 157.233 36.7944 160.405Z" fill="#ECF2FF"/>
<path d="M228.166 237.95C228.036 239.527 227.442 241.029 226.458 242.268C225.474 243.507 224.145 244.427 222.639 244.91C221.132 245.394 219.516 245.42 217.995 244.986C216.474 244.551 215.115 243.675 214.092 242.469C213.068 241.262 212.426 239.78 212.245 238.208C212.064 236.636 212.353 235.046 213.076 233.639C213.799 232.232 214.923 231.07 216.305 230.301C217.688 229.533 219.268 229.191 220.845 229.32C222.959 229.495 224.918 230.502 226.291 232.12C227.664 233.738 228.338 235.835 228.166 237.95Z" fill="#ECF2FF"/>
<path opacity="0.7" d="M52.9588 528.001H51.6325C49.5166 527.855 47.4505 527.292 45.5535 526.343C43.6566 525.395 41.9663 524.08 40.5805 522.474C39.2172 520.874 38.1855 519.02 37.5451 517.018C36.9048 515.016 36.6687 512.906 36.8505 510.812C37.108 507.716 38.2612 504.762 40.1694 502.311C42.0775 499.859 44.658 498.016 47.5959 497.007C50.5338 495.997 53.7019 495.865 56.7136 496.627C59.7252 497.388 62.4501 499.01 64.5556 501.294C66.6611 503.579 68.0561 506.426 68.5703 509.49C69.0845 512.554 68.6957 515.702 67.4513 518.548C66.2069 521.395 64.1608 523.818 61.5627 525.521C58.9646 527.224 55.927 528.134 52.8206 528.139L52.9588 528.001ZM52.9588 498.046C49.8164 498.061 46.7732 499.148 44.3314 501.126C41.8896 503.104 40.1952 505.856 39.5276 508.927C38.8601 511.999 39.2594 515.205 40.6597 518.019C42.0599 520.833 44.3774 523.085 47.2298 524.404C50.0821 525.723 53.2988 526.03 56.3491 525.274C59.3994 524.518 62.1009 522.745 64.0079 520.247C65.9148 517.749 66.9133 514.675 66.8385 511.533C66.7637 508.391 65.62 505.369 63.5963 502.964C62.4171 501.567 60.9722 500.417 59.3453 499.582C57.7185 498.747 55.9421 498.244 54.1193 498.101L52.9588 498.046Z" fill="#C6D7FF"/>
<path d="M310.591 693.085C310.397 695.45 309.505 697.705 308.029 699.563C306.553 701.421 304.56 702.801 302.3 703.526C300.041 704.252 297.617 704.291 295.335 703.639C293.053 702.987 291.015 701.673 289.48 699.864C287.945 698.054 286.981 695.83 286.71 693.472C286.438 691.115 286.872 688.73 287.956 686.619C289.04 684.508 290.726 682.766 292.8 681.612C294.875 680.459 297.244 679.947 299.609 680.141C302.781 680.403 305.72 681.914 307.779 684.341C309.838 686.768 310.849 689.913 310.591 693.085Z" fill="#C6D7FF"/>
<path opacity="0.7" d="M19.1992 818.004H17.6243C15.1117 817.831 12.6582 817.162 10.4055 816.036C8.15284 814.909 6.14568 813.347 4.50002 811.441C2.88114 809.541 1.65594 807.339 0.895529 804.961C0.135122 802.584 -0.145291 800.079 0.0706056 797.593C0.37642 793.916 1.74586 790.408 4.01178 787.497C6.27771 784.585 9.34208 782.397 12.8308 781.198C16.3195 780 20.0817 779.843 23.658 780.747C27.2344 781.651 30.4702 783.577 32.9705 786.29C35.4707 789.002 37.1273 792.384 37.7379 796.023C38.3485 799.661 37.8868 803.399 36.4091 806.779C34.9314 810.159 32.5016 813.036 29.4164 815.059C26.3312 817.081 22.724 818.161 19.0352 818.168L19.1992 818.004ZM19.1992 782.432C15.4676 782.45 11.8538 783.741 8.95421 786.09C6.05459 788.439 4.04242 791.707 3.24974 795.354C2.45706 799.001 2.93123 802.809 4.59404 806.15C6.25685 809.492 9.00888 812.166 12.396 813.732C15.7832 815.298 19.6031 815.663 23.2252 814.766C26.8474 813.868 30.0555 811.763 32.32 808.796C34.5845 805.83 35.7702 802.18 35.6814 798.449C35.5925 794.718 34.2345 791.128 31.8313 788.273C30.431 786.613 28.7151 785.248 26.7833 784.257C24.8514 783.265 22.742 782.667 20.5773 782.497L19.1992 782.432Z" fill="#9EBBFF"/>
<path d="M163.711 937.765C163.5 940.327 162.534 942.769 160.935 944.783C159.337 946.796 157.177 948.29 154.729 949.076C152.281 949.862 149.655 949.904 147.183 949.198C144.711 948.492 142.504 947.069 140.841 945.108C139.178 943.148 138.133 940.738 137.839 938.184C137.545 935.63 138.015 933.046 139.19 930.76C140.364 928.473 142.19 926.585 144.437 925.336C146.685 924.087 149.251 923.532 151.814 923.741C155.25 924.026 158.433 925.663 160.664 928.292C162.895 930.921 163.991 934.328 163.711 937.765Z" fill="#C6D7FF"/>
<path opacity="0.7" d="M277.131 922.204H275.804C273.689 922.059 271.622 921.496 269.725 920.547C267.828 919.598 266.138 918.283 264.752 916.678C263.389 915.078 262.357 913.223 261.717 911.221C261.077 909.219 260.841 907.11 261.022 905.016C261.28 901.92 262.433 898.966 264.341 896.514C266.249 894.063 268.83 892.22 271.768 891.21C274.706 890.201 277.874 890.069 280.885 890.83C283.897 891.592 286.622 893.214 288.727 895.498C290.833 897.782 292.228 900.63 292.742 903.694C293.256 906.758 292.868 909.905 291.623 912.752C290.379 915.599 288.333 918.021 285.735 919.724C283.137 921.427 280.099 922.337 276.993 922.343L277.131 922.204ZM277.131 892.249C273.988 892.265 270.945 893.351 268.503 895.33C266.061 897.308 264.367 900.06 263.7 903.131C263.032 906.202 263.431 909.409 264.832 912.223C266.232 915.036 268.549 917.288 271.402 918.607C274.254 919.926 277.471 920.233 280.521 919.478C283.571 918.722 286.273 916.949 288.18 914.451C290.087 911.953 291.085 908.879 291.01 905.737C290.936 902.595 289.792 899.572 287.768 897.168C286.589 895.77 285.144 894.621 283.517 893.786C281.89 892.951 280.114 892.448 278.291 892.304L277.131 892.249Z" fill="#9EBBFF"/>
</g>
</g>
<defs>
<clipPath id="clip0_149_632">
<rect width="320" height="952" fill="white"/>
</clipPath>
<clipPath id="clip1_149_632">
<rect width="320" height="844" fill="white" transform="translate(0 108)"/>
</clipPath>
</defs>
</svg>
