<svg aria-hidden="true" style="position: absolute; width: 0; height: 0; overflow: hidden;" version="1.1" xmlns="http://www.w3.org/2000/svg" xmlns:xlink="http://www.w3.org/1999/xlink">
<defs>
<symbol id="icon-arrow_up" viewBox="0 0 32 32">
<path stroke-linejoin="round" stroke-linecap="round" stroke-miterlimit="4" stroke-width="1.3333" d="M4 22v3c0 0.796 0.316 1.559 0.879 2.121s1.326 0.879 2.121 0.879h18c0.796 0 1.559-0.316 2.121-0.879s0.879-1.326 0.879-2.121v-3M10 10l6-6M16 4l6 6M16 4v18"></path>
</symbol>
<symbol id="icon-arrow-left" viewBox="0 0 32 32">
<path d="M9.706 10.293c0.187 0.188 0.292 0.442 0.292 0.707s-0.105 0.519-0.292 0.707l-3.293 3.293h21.587c0.265 0 0.52 0.105 0.707 0.293s0.293 0.442 0.293 0.707c0 0.265-0.105 0.519-0.293 0.707s-0.442 0.293-0.707 0.293h-21.587l3.293 3.293c0.098 0.091 0.177 0.202 0.232 0.325s0.084 0.255 0.086 0.389c0.002 0.134-0.022 0.268-0.073 0.392s-0.125 0.238-0.22 0.333-0.208 0.17-0.333 0.22c-0.125 0.050-0.258 0.075-0.392 0.073s-0.267-0.032-0.389-0.086-0.233-0.133-0.325-0.232l-5-5c-0.187-0.188-0.292-0.442-0.292-0.707s0.105-0.519 0.292-0.707l5-5c0.188-0.187 0.442-0.292 0.707-0.292s0.519 0.105 0.707 0.292z"></path>
</symbol>
<symbol id="icon-calendar" viewBox="0 0 32 32">
<path fill="none" stroke="#407bff" style="stroke: var(--color1, #407bff)" stroke-linejoin="round" stroke-linecap="round" stroke-miterlimit="4" stroke-width="1.6" d="M9 4v3M23 4v3M4 25v-15c0-0.796 0.316-1.559 0.879-2.121s1.326-0.879 2.121-0.879h18c0.796 0 1.559 0.316 2.121 0.879s0.879 1.326 0.879 2.121v15M4 25c0 0.796 0.316 1.559 0.879 2.121s1.326 0.879 2.121 0.879h18c0.796 0 1.559-0.316 2.121-0.879s0.879-1.326 0.879-2.121M4 25v-10c0-0.796 0.316-1.559 0.879-2.121s1.326-0.879 2.121-0.879h18c0.796 0 1.559 0.316 2.121 0.879s0.879 1.326 0.879 2.121v10M16 17h0.011v0.011h-0.011v-0.011zM16 20h0.011v0.011h-0.011v-0.011zM16 23h0.011v0.011h-0.011v-0.011zM13 20h0.011v0.011h-0.011v-0.011zM13 23h0.011v0.011h-0.011v-0.011zM10 20h0.011v0.011h-0.011v-0.011zM10 23h0.011v0.011h-0.011v-0.011zM19 17h0.011v0.011h-0.011v-0.011zM19 20h0.011v0.011h-0.011v-0.011zM19 23h0.011v0.011h-0.011v-0.011zM22 17h0.011v0.011h-0.011v-0.011zM22 20h0.011v0.011h-0.011v-0.011z"></path>
</symbol>
<symbol id="icon-eye" viewBox="0 0 32 32">
<path stroke-linejoin="round" stroke-linecap="round" stroke-miterlimit="4" stroke-width="1.3333" d="M2.715 16.429c-0.092-0.277-0.092-0.575 0-0.852 1.849-5.564 7.099-9.577 13.285-9.577 6.184 0 11.431 4.009 13.284 9.571 0.093 0.276 0.093 0.575 0 0.852-1.848 5.564-7.097 9.577-13.284 9.577-6.184 0-11.432-4.009-13.285-9.571z"></path>
<path stroke-linejoin="round" stroke-linecap="round" stroke-miterlimit="4" stroke-width="1.3333" d="M20 16c0 1.061-0.421 2.078-1.172 2.828s-1.768 1.172-2.828 1.172c-1.061 0-2.078-0.421-2.828-1.172s-1.172-1.768-1.172-2.828c0-1.061 0.421-2.078 1.172-2.828s1.768-1.172 2.828-1.172c1.061 0 2.078 0.421 2.828 1.172s1.172 1.768 1.172 2.828z"></path>
</symbol>
<symbol id="icon-eye-slush" viewBox="0 0 32 32">
<path stroke-linejoin="round" stroke-linecap="round" stroke-miterlimit="4" stroke-width="1.3333" d="M5.307 10.964c-1.247 1.472-2.176 3.187-2.728 5.036 1.723 5.784 7.080 10 13.421 10 1.324 0 2.604-0.184 3.817-0.527M8.304 8.304c2.284-1.507 4.96-2.308 7.696-2.304 6.341 0 11.697 4.216 13.42 9.997-0.944 3.159-2.971 5.885-5.724 7.699M8.304 8.304l-4.304-4.304M8.304 8.304l4.867 4.867M23.696 23.696l4.304 4.304M23.696 23.696l-4.867-4.867c0.371-0.371 0.666-0.812 0.867-1.298s0.304-1.005 0.304-1.531-0.103-1.045-0.304-1.531c-0.201-0.485-0.496-0.926-0.867-1.298s-0.813-0.666-1.298-0.867c-0.485-0.201-1.005-0.304-1.531-0.304s-1.046 0.103-1.531 0.305c-0.485 0.201-0.926 0.496-1.298 0.867M18.828 18.828l-5.655-5.655"></path>
</symbol>
<symbol id="icon-glass" viewBox="0 0 32 32">
<path fill="#407bff" style="fill: var(--color1, #407bff)" d="M5.565 2.783l1.901 26.363v0.072h16.367l1.901-26.353v-0.082h-20.169zM23.161 28.479h-15.017l-1.426-19.747h0.784l1.289 17.403c0.008 0.092 0.049 0.177 0.115 0.24s0.153 0.098 0.244 0.099h0.030c0.047-0.003 0.093-0.016 0.136-0.037s0.080-0.051 0.111-0.087c0.031-0.036 0.055-0.078 0.070-0.124s0.021-0.094 0.017-0.141l-1.289-17.351h16.362l-1.426 19.747zM24.637 7.994h-16.468l-0.283-3.847c-0.009-0.094-0.052-0.181-0.122-0.244s-0.16-0.097-0.252-0.095c-0.095 0.009-0.183 0.055-0.245 0.129s-0.094 0.169-0.088 0.266l0.283 3.795h-0.794l-0.324-4.483h18.617l-0.324 4.478z"></path>
<path fill="#407bff" style="fill: var(--color1, #407bff)" d="M11.359 12.384c0.236 0 0.467-0.071 0.663-0.204s0.349-0.322 0.439-0.543 0.114-0.465 0.068-0.699c-0.046-0.235-0.16-0.45-0.327-0.62s-0.379-0.285-0.611-0.331c-0.231-0.047-0.471-0.023-0.689 0.069s-0.404 0.247-0.536 0.446c-0.131 0.199-0.201 0.433-0.201 0.673 0 0.321 0.126 0.629 0.35 0.856s0.527 0.354 0.844 0.354zM11.359 10.697c0.093 0 0.184 0.028 0.261 0.080s0.138 0.127 0.173 0.214c0.036 0.087 0.045 0.183 0.027 0.276s-0.063 0.178-0.129 0.244c-0.066 0.067-0.15 0.112-0.241 0.131s-0.186 0.009-0.272-0.027c-0.086-0.036-0.159-0.097-0.211-0.176s-0.079-0.171-0.079-0.265c0-0.127 0.050-0.248 0.138-0.337s0.208-0.14 0.332-0.14z"></path>
<path fill="#407bff" style="fill: var(--color1, #407bff)" d="M11.354 16.318c0.003 0.239 0.076 0.472 0.209 0.669s0.321 0.35 0.539 0.439c0.219 0.089 0.458 0.111 0.689 0.062s0.442-0.166 0.607-0.336c0.165-0.17 0.277-0.387 0.321-0.621s0.019-0.477-0.073-0.698c-0.091-0.22-0.245-0.408-0.442-0.54s-0.427-0.201-0.663-0.2c-0.158 0.001-0.313 0.033-0.459 0.095s-0.277 0.153-0.387 0.267-0.198 0.249-0.256 0.397c-0.059 0.148-0.088 0.307-0.086 0.467zM13.013 16.318c0 0.094-0.028 0.187-0.079 0.265s-0.125 0.14-0.211 0.176c-0.086 0.036-0.18 0.046-0.272 0.027s-0.175-0.064-0.241-0.131c-0.066-0.067-0.111-0.152-0.129-0.244s-0.009-0.188 0.027-0.276c0.036-0.087 0.096-0.162 0.173-0.214s0.168-0.080 0.261-0.080c0.125 0 0.244 0.050 0.333 0.14s0.138 0.211 0.138 0.337z"></path>
<path fill="#407bff" style="fill: var(--color1, #407bff)" d="M19.834 16.349c0.236 0 0.467-0.071 0.663-0.204s0.349-0.322 0.44-0.543c0.090-0.221 0.114-0.465 0.068-0.699s-0.16-0.45-0.326-0.62c-0.167-0.169-0.38-0.285-0.611-0.331s-0.471-0.023-0.689 0.069-0.404 0.247-0.535 0.446c-0.131 0.199-0.201 0.433-0.201 0.673 0 0.321 0.126 0.629 0.349 0.856s0.527 0.354 0.844 0.354zM19.834 14.666c0.093 0 0.184 0.028 0.262 0.081s0.138 0.127 0.173 0.215c0.035 0.087 0.044 0.184 0.026 0.276s-0.064 0.178-0.13 0.244c-0.066 0.066-0.151 0.111-0.242 0.129s-0.186 0.008-0.272-0.029c-0.086-0.037-0.159-0.099-0.21-0.178s-0.078-0.172-0.077-0.266c0.001-0.126 0.051-0.246 0.14-0.334s0.207-0.138 0.331-0.138z"></path>
<path fill="#407bff" style="fill: var(--color1, #407bff)" d="M15.677 14.066c0.236 0 0.467-0.071 0.663-0.204s0.349-0.322 0.439-0.543c0.090-0.221 0.114-0.465 0.068-0.699s-0.16-0.45-0.327-0.62c-0.167-0.169-0.379-0.285-0.611-0.331s-0.471-0.023-0.689 0.069c-0.218 0.092-0.404 0.247-0.536 0.446s-0.201 0.433-0.201 0.672c0 0.321 0.126 0.629 0.35 0.856s0.527 0.355 0.844 0.355zM15.677 12.379c0.093 0 0.184 0.028 0.261 0.080s0.138 0.127 0.173 0.214c0.036 0.087 0.045 0.183 0.027 0.276s-0.063 0.178-0.129 0.244c-0.066 0.067-0.149 0.112-0.241 0.131s-0.186 0.009-0.272-0.027c-0.086-0.036-0.159-0.097-0.211-0.176s-0.079-0.171-0.079-0.265c-0.003-0.065 0.006-0.13 0.028-0.19s0.056-0.117 0.1-0.164 0.097-0.085 0.156-0.11c0.059-0.026 0.122-0.039 0.186-0.039v0.026z"></path>
<path fill="#407bff" style="fill: var(--color1, #407bff)" d="M13.402 20.929c0.005 0.197 0.067 0.387 0.178 0.549s0.267 0.285 0.448 0.357c0.181 0.072 0.378 0.088 0.567 0.047s0.363-0.139 0.498-0.279c0.135-0.141 0.227-0.319 0.263-0.512s0.015-0.393-0.060-0.574c-0.075-0.181-0.202-0.336-0.363-0.445s-0.351-0.167-0.545-0.167c-0.264 0.007-0.515 0.118-0.699 0.309s-0.287 0.449-0.287 0.716zM14.388 20.662c0.052 0 0.103 0.016 0.146 0.045s0.077 0.071 0.097 0.12 0.025 0.102 0.015 0.154c-0.010 0.052-0.035 0.099-0.072 0.137s-0.084 0.063-0.135 0.073-0.104 0.005-0.152-0.015c-0.048-0.020-0.089-0.054-0.118-0.098s-0.044-0.095-0.044-0.148c0-0.071 0.028-0.139 0.077-0.189s0.116-0.078 0.186-0.078z"></path>
<path fill="#407bff" style="fill: var(--color1, #407bff)" d="M18.17 19.816c0.202 0.007 0.402-0.048 0.574-0.157s0.307-0.269 0.388-0.457c0.081-0.188 0.105-0.397 0.068-0.599s-0.133-0.388-0.276-0.534c-0.142-0.146-0.325-0.245-0.524-0.285s-0.405-0.018-0.591 0.063c-0.186 0.080-0.345 0.216-0.454 0.389s-0.166 0.375-0.161 0.58c0.006 0.262 0.111 0.511 0.292 0.697s0.426 0.295 0.684 0.304zM18.17 18.549c0.070 0 0.137 0.028 0.186 0.078s0.077 0.118 0.077 0.189-0.028 0.139-0.077 0.189c-0.049 0.050-0.116 0.078-0.186 0.078s-0.138-0.028-0.188-0.078-0.079-0.118-0.080-0.189c0-0.035 0.007-0.071 0.021-0.103s0.033-0.062 0.058-0.087c0.025-0.025 0.055-0.044 0.087-0.058s0.067-0.019 0.102-0.019z"></path>
<path fill="#407bff" style="fill: var(--color1, #407bff)" d="M20.253 11.538c0.2 0 0.396-0.060 0.562-0.173s0.296-0.273 0.372-0.46c0.077-0.187 0.097-0.394 0.058-0.593s-0.135-0.382-0.277-0.525-0.322-0.241-0.518-0.281c-0.196-0.040-0.399-0.019-0.584 0.058s-0.343 0.209-0.454 0.378-0.17 0.367-0.17 0.57c0 0.272 0.107 0.533 0.296 0.725s0.447 0.3 0.715 0.3zM20.253 10.271c0.039-0.011 0.080-0.013 0.12-0.006s0.078 0.024 0.11 0.049c0.033 0.025 0.059 0.057 0.077 0.094s0.028 0.078 0.028 0.119c0 0.041-0.009 0.082-0.028 0.119s-0.044 0.069-0.077 0.094c-0.032 0.025-0.070 0.042-0.11 0.049s-0.081 0.006-0.12-0.006c-0.039 0.011-0.080 0.013-0.12 0.006s-0.078-0.024-0.11-0.049c-0.033-0.025-0.059-0.057-0.077-0.094s-0.028-0.078-0.028-0.119c0-0.041 0.009-0.082 0.028-0.119s0.044-0.069 0.077-0.094c0.032-0.025 0.070-0.042 0.11-0.049s0.081-0.005 0.12 0.006z"></path>
<path fill="#407bff" style="fill: var(--color1, #407bff)" d="M10.369 27.191c-0.045 0.021-0.086 0.052-0.119 0.089s-0.059 0.082-0.074 0.13c-0.016 0.048-0.021 0.099-0.017 0.149s0.019 0.099 0.043 0.144c0.031 0.060 0.078 0.11 0.135 0.145s0.122 0.054 0.189 0.055c0.056 0.002 0.112-0.011 0.162-0.036 1.545-0.803 3.255-1.225 4.99-1.231 1.837 0.027 3.648 0.441 5.319 1.216 0.066 0.035 0.141 0.049 0.215 0.039s0.143-0.042 0.198-0.093c0.055-0.051 0.094-0.118 0.11-0.192s0.010-0.151-0.018-0.221c-0.036-0.091-0.104-0.164-0.192-0.205-1.769-0.821-3.687-1.258-5.633-1.282-1.845 0.002-3.664 0.444-5.309 1.292z"></path>
</symbol>
<symbol id="icon-Logo" viewBox="0 0 32 32">
<path fill="#9ebbff" style="fill: var(--color2, #9ebbff)" d="M4.963 10.766c0.211-0.166 0.478 0.194 0.506 0.526s-0.267 1.080-1.097 1.274c-0.83 0.194-0.928 0.706-0.9 1.011s-0.112 0.637-0.408 0.568-0.323-0.526-0.056-0.956c0.267-0.43 0.942-0.817 1.055-1.053s0.028-0.512 0.253-0.609c0.225-0.097 0.52 0.152 0.492 0.388 0 0 0.225-0.222 0.197-0.554-0.018-0.218-0.148-0.512-0.042-0.595z"></path>
<path fill="#9ebbff" style="fill: var(--color2, #9ebbff)" d="M10.419 12.789c0.078-0.222 0.633-0.097 0.759 0.208s0.084 0.54 0.211 0.748-0.225 0.554-0.485 0.512c-0.26-0.042-0.162-0.512-0.162-0.72s-0.45-0.388-0.323-0.748z"></path>
<path fill="#9ebbff" style="fill: var(--color2, #9ebbff)" d="M8.662 10.173c0.193-0.169 0.605 0.122 0.717 0.358s0.014 0.859-0.331 0.845c-0.345-0.014-0.207-0.501-0.33-0.603-0.218-0.18-0.211-0.464-0.056-0.6z"></path>
<path fill="#9ebbff" style="fill: var(--color2, #9ebbff)" d="M6.288 8.731c0.136 0.211 0.035 0.499-0.312 0.563s-0.413-0.222-0.6-0.157c-0.188 0.065-0.394 0.111-0.478-0.037s0.009-0.369 0.384-0.369 0.755-0.388 1.006 0z"></path>
<path fill="#9ebbff" style="fill: var(--color2, #9ebbff)" d="M4.105 10.749c0.163 0 0.295-0.14 0.295-0.313s-0.132-0.313-0.295-0.313c-0.163 0-0.295 0.14-0.295 0.313s0.132 0.313 0.295 0.313z"></path>
<path fill="#9ebbff" style="fill: var(--color2, #9ebbff)" d="M2.824 11.787c-0.105-0.052-0.449 0.489-0.214 0.554s0.382-0.471 0.214-0.554z"></path>
<path fill="#9ebbff" style="fill: var(--color2, #9ebbff)" d="M1.907 13.393c0 0 0.459 0.249 0.291 0.762s-0.534 0.448-0.647 0.291c-0.113-0.157-0.112-0.369 0.075-0.517s0.281-0.535 0.281-0.535z"></path>
<path fill="#9ebbff" style="fill: var(--color2, #9ebbff)" d="M11.657 16.153c0 0 0.141 0.208 0.070 0.582s-0.183 1.108 0.211 1.316c0.394 0.208 0.548-0.526 0.394-0.748s0.084-0.983-0.675-1.149z"></path>
<path fill="#9ebbff" style="fill: var(--color2, #9ebbff)" d="M12.156 19.491c0.167 0 0.302-0.161 0.302-0.36s-0.135-0.36-0.302-0.36-0.302 0.161-0.302 0.36c0 0.199 0.135 0.36 0.302 0.36z"></path>
<path fill="#9ebbff" style="fill: var(--color2, #9ebbff)" d="M0.294 19.629c0.261-0.133 0.478 0.083 0.506 0.485s0.408 0.748 0.211 0.956c-0.197 0.208-0.426-0.651-0.605-0.73-0.275-0.122-0.492-0.516-0.112-0.71z"></path>
<path fill="#9ebbff" style="fill: var(--color2, #9ebbff)" d="M11.368 20.031c-0.245 0.249 0.081 0.507-0.498 1.163-0.241 0.273 0.178 1.090-0.984 1.080 0 0-0.675 0.609-1.35 0.693s-0.956-0.028-1.603 0.332c-0.647 0.36-2.081-0.249-2.672-0.512s-0.816-0.291-1.322-0.291c-0.506 0-0.309-0.776-0.675-1.108s-0.788-0.471-0.816-0.775c-0.028-0.305-0.309-0.443-0.281-0.914s-0.45-0.609-0.506-1.191 0.253-0.692 0.14-1.025c-0.112-0.332-0.14-0.609 0.028-0.942 0.020-0.040 0.043-0.079 0.070-0.115 0.145-0.203 0.283-0.187 0.38-0.521 0.113-0.388-0.197-0.554 0.141-0.72s0.45 0.332 0.253 0.831c-0.197 0.499-0.45 0.969-0.112 1.052s0.253-0.942 0.703-1.413c0.45-0.471 0.253-0.581 0.844-1.052s0.647-0.277 0.844-0.776c0.197-0.499 0.753-1.025 1.319-1.274s0.819-0.36 0.735-0.776c-0.085-0.416 0.387-0.415 0.405-0.859s-0.377-0.748-0.714-0.637-0.675 0.111-0.563-0.249c0.113-0.36 0.821-0.332 1.156-0.166s0.616-0.249 1.066 0.166c0.45 0.415 1.041 0.554 0.956 1.524s-0.169 1.301 0.197 1.357c0.365 0.056 0.056-0.443 0.056-0.831s0.647-0.36 0.816-0.056c0.169 0.305-0.056 0.831 0.113 1.025s0.478 0.166 0.563 0.443c0.084 0.277-0.056 1.413 0.338 1.662s0.309-0.609 0.647-0.346c0.338 0.263 0.422 0.734 0.225 1.205-0.131 0.315-0.145 1.101-0.069 1.777 0.037 0.335 0.096 0.643 0.173 0.854 0.232 0.637 0.245 1.135-0.001 1.384z"></path>
<path fill="#c6d7ff" style="fill: var(--color3, #c6d7ff)" d="M6.706 12.972c0.739-0.23 1.358 1.041 1.101 1.587s-0.367 2.23 0.587 2.021c0.954-0.209 0.257-1.829 0.771-1.797s0.294 1.515 0.624 1.985c0.33 0.47 1.47 3.687-0.366 4.808s-4.435 1.085-5.431 0.253c-0.4-0.335-0.69-0.684-0.904-1.024-0.101-0.161-0.162-0.289-0.204-0.401-0.089-0.241-0.074-0.326-0.164-0.567-0.059-0.156-0.135-0.305-0.227-0.444-0.198-0.3-0.288-0.265-0.474-0.527-0.062-0.087-0.259-0.382-0.277-0.78-0.005-0.104-0.018-0.395 0.108-0.447 0.142-0.059 0.326 0.245 0.515 0.182 0.099-0.033 0.142-0.148 0.169-0.219 0.080-0.212 0-0.344-0.038-0.659-0.030-0.243-0.065-0.536 0.080-0.783 0.024-0.040 0.092-0.173 0.319-0.296 0.799-0.434 1.516-0.036 2.039-0.831s0.532-0.848 1.023-1.056c0.491-0.209 0.050-0.787 0.747-1.004z"></path>
<path fill="#407bff" style="fill: var(--color1, #407bff)" d="M6.412 23.529c-0.521 0-1.25-0.211-2.202-0.635-0.58-0.259-0.786-0.28-1.272-0.28-0.384 0-0.466-0.345-0.532-0.623-0.047-0.196-0.095-0.399-0.225-0.517-0.121-0.11-0.247-0.197-0.37-0.281-0.247-0.17-0.461-0.317-0.484-0.571-0.009-0.101-0.056-0.184-0.11-0.28-0.085-0.152-0.191-0.34-0.172-0.652 0.011-0.193-0.081-0.319-0.199-0.478-0.129-0.174-0.276-0.372-0.307-0.695-0.032-0.331 0.044-0.523 0.106-0.677 0.050-0.126 0.081-0.202 0.040-0.321-0.102-0.3-0.168-0.633 0.035-1.032 0.085-0.168 0.175-0.247 0.248-0.31 0.082-0.072 0.141-0.124 0.194-0.306 0.039-0.135 0.017-0.234-0.004-0.331-0.032-0.145-0.072-0.325 0.207-0.463 0.14-0.069 0.278-0.058 0.377 0.031 0.179 0.16 0.196 0.559 0.043 0.949-0.027 0.068-0.055 0.136-0.083 0.202-0.107 0.259-0.228 0.551-0.175 0.653 0.004 0.008 0.014 0.027 0.062 0.039 0.003 0.001 0.006 0.001 0.009 0.001 0.054-0.019 0.12-0.277 0.159-0.432 0.079-0.309 0.176-0.695 0.418-0.948 0.184-0.192 0.252-0.319 0.318-0.442 0.094-0.174 0.183-0.339 0.537-0.622 0.225-0.18 0.376-0.266 0.485-0.329 0.168-0.096 0.213-0.122 0.322-0.398 0.206-0.521 0.774-1.072 1.382-1.339l0.003-0.001c0.589-0.26 0.726-0.333 0.663-0.643-0.057-0.278 0.091-0.423 0.21-0.539 0.1-0.097 0.186-0.181 0.192-0.348 0.007-0.182-0.071-0.351-0.208-0.452-0.108-0.080-0.235-0.105-0.347-0.067-0.216 0.071-0.506 0.125-0.658-0.022-0.061-0.059-0.121-0.172-0.058-0.375 0.041-0.13 0.141-0.232 0.29-0.295 0.308-0.129 0.776-0.071 1.035 0.058 0.093 0.046 0.18 0.030 0.315-0 0.207-0.046 0.465-0.104 0.779 0.186 0.095 0.088 0.201 0.165 0.302 0.24 0.375 0.275 0.763 0.561 0.692 1.38-0.011 0.121-0.021 0.233-0.031 0.335-0.073 0.767-0.059 0.867 0.126 0.895 0.013 0.002 0.026 0.003 0.039 0.003 0.008-0.050-0.026-0.184-0.048-0.275-0.034-0.137-0.073-0.293-0.073-0.441 0-0.192 0.12-0.337 0.32-0.388 0.24-0.060 0.584 0.028 0.721 0.275 0.102 0.185 0.085 0.419 0.070 0.625-0.011 0.15-0.023 0.32 0.028 0.379 0.052 0.060 0.131 0.096 0.214 0.133 0.137 0.062 0.307 0.139 0.373 0.353 0.031 0.1 0.035 0.268 0.041 0.48 0.011 0.389 0.027 0.977 0.246 1.116 0.040 0.025 0.063 0.029 0.070 0.027 0.032-0.009 0.078-0.107 0.105-0.166 0.052-0.112 0.112-0.24 0.239-0.27 0.077-0.018 0.159 0.006 0.242 0.070 0.377 0.294 0.48 0.821 0.262 1.343-0.181 0.432-0.118 1.931 0.107 2.546 0.258 0.706 0.249 1.227-0.027 1.507-0.064 0.065-0.071 0.124-0.080 0.25-0.015 0.204-0.037 0.482-0.414 0.909-0.047 0.053-0.058 0.168-0.070 0.289-0.032 0.328-0.081 0.822-0.959 0.831-0.152 0.13-0.758 0.615-1.381 0.692-0.192 0.024-0.353 0.032-0.496 0.039-0.36 0.019-0.62 0.032-1.063 0.279-0.152 0.085-0.345 0.127-0.579 0.127zM1.542 15.27c-0.016 0-0.038 0.005-0.069 0.020-0.112 0.055-0.108 0.069-0.079 0.2 0.024 0.107 0.056 0.254 0.001 0.447-0.072 0.249-0.171 0.335-0.266 0.418-0.066 0.058-0.128 0.112-0.192 0.239-0.155 0.305-0.123 0.552-0.022 0.851 0.068 0.2 0.011 0.344-0.045 0.483s-0.117 0.294-0.090 0.568c0.025 0.258 0.145 0.421 0.262 0.578 0.129 0.174 0.262 0.353 0.245 0.632-0.014 0.243 0.062 0.379 0.143 0.523 0.061 0.11 0.125 0.223 0.139 0.373 0.013 0.144 0.176 0.256 0.382 0.398 0.123 0.084 0.262 0.18 0.395 0.301 0.184 0.167 0.243 0.417 0.296 0.637 0.074 0.312 0.122 0.439 0.298 0.439 0.505 0 0.754 0.026 1.372 0.301 1.603 0.714 2.279 0.676 2.563 0.517 0.492-0.274 0.791-0.289 1.169-0.309 0.139-0.007 0.295-0.015 0.478-0.038 0.63-0.078 1.277-0.656 1.284-0.662 0.022-0.020 0.051-0.031 0.081-0.031h0.001c0.703 0.006 0.731-0.283 0.764-0.617 0.016-0.16 0.031-0.312 0.128-0.422 0.325-0.367 0.341-0.591 0.355-0.771 0.010-0.132 0.020-0.268 0.148-0.397 0.201-0.205 0.192-0.665-0.027-1.262-0.248-0.679-0.307-2.228-0.103-2.716 0.176-0.422 0.102-0.84-0.188-1.067-0.011-0.009-0.024-0.017-0.037-0.023-0.022 0.021-0.055 0.092-0.076 0.136-0.056 0.12-0.119 0.255-0.257 0.295-0.083 0.024-0.173 0.006-0.268-0.055-0.326-0.206-0.343-0.818-0.357-1.309-0.005-0.179-0.010-0.349-0.031-0.419-0.032-0.106-0.109-0.145-0.243-0.206-0.098-0.044-0.209-0.095-0.296-0.194-0.116-0.133-0.101-0.336-0.085-0.55 0.013-0.183 0.027-0.371-0.041-0.495-0.076-0.137-0.3-0.197-0.45-0.159-0.139 0.035-0.139 0.127-0.139 0.158 0 0.119 0.035 0.26 0.066 0.384 0.052 0.207 0.097 0.386-0.007 0.497-0.057 0.061-0.142 0.083-0.255 0.066-0.432-0.065-0.398-0.428-0.329-1.152 0.010-0.101 0.020-0.212 0.031-0.333 0.060-0.688-0.229-0.9-0.596-1.169-0.107-0.079-0.218-0.16-0.323-0.257-0.221-0.204-0.371-0.17-0.561-0.128-0.142 0.032-0.303 0.067-0.477-0.019-0.207-0.103-0.599-0.149-0.832-0.051-0.083 0.035-0.135 0.084-0.154 0.146-0.021 0.066-0.022 0.118-0.004 0.136 0.032 0.031 0.168 0.047 0.414-0.034 0.189-0.062 0.396-0.024 0.568 0.103 0.201 0.148 0.314 0.392 0.304 0.651s-0.15 0.397-0.263 0.507c-0.118 0.115-0.174 0.177-0.144 0.324 0.103 0.508-0.237 0.658-0.801 0.906l-0.003 0.001c-0.546 0.24-1.074 0.749-1.255 1.209-0.134 0.339-0.222 0.4-0.426 0.517-0.103 0.059-0.244 0.14-0.455 0.308-0.316 0.252-0.39 0.389-0.476 0.549-0.070 0.13-0.15 0.278-0.356 0.493-0.199 0.208-0.288 0.56-0.36 0.843-0.042 0.166-0.078 0.309-0.131 0.415-0.103 0.209-0.251 0.208-0.329 0.188-0.128-0.032-0.19-0.105-0.218-0.161-0.102-0.199 0.022-0.5 0.167-0.85 0.027-0.065 0.055-0.132 0.081-0.199 0.132-0.335 0.096-0.619 0.020-0.688-0.005-0.005-0.011-0.009-0.018-0.011s-0.014-0.004-0.021-0.003z"></path>
<path fill="#407bff" style="fill: var(--color1, #407bff)" d="M3.142 14.244c-0.033-0-0.066-0.004-0.098-0.012-0.121-0.028-0.215-0.11-0.266-0.231-0.095-0.225-0.036-0.554 0.153-0.858 0.154-0.247 0.425-0.472 0.665-0.671 0.176-0.146 0.343-0.284 0.385-0.373 0.037-0.077 0.050-0.163 0.063-0.247 0.023-0.153 0.050-0.326 0.236-0.406 0.127-0.055 0.282-0.030 0.413 0.065 0.066 0.048 0.12 0.111 0.158 0.182 0.041-0.083 0.075-0.195 0.064-0.325-0.006-0.067-0.024-0.145-0.041-0.221-0.042-0.186-0.082-0.361 0.032-0.451 0.084-0.066 0.184-0.079 0.283-0.037 0.184 0.078 0.347 0.353 0.37 0.626 0.031 0.363-0.289 1.163-1.166 1.368-0.78 0.182-0.855 0.652-0.831 0.916 0.022 0.241-0.051 0.472-0.187 0.587-0.065 0.056-0.148 0.087-0.234 0.087zM4.423 11.596c-0.024-0-0.048 0.005-0.070 0.014-0.090 0.039-0.107 0.119-0.13 0.27-0.014 0.092-0.030 0.196-0.078 0.296-0.059 0.124-0.224 0.261-0.432 0.433-0.229 0.19-0.489 0.405-0.627 0.628-0.155 0.249-0.211 0.529-0.14 0.697 0.029 0.068 0.076 0.11 0.141 0.126 0.068 0.016 0.124 0.004 0.172-0.036 0.092-0.078 0.142-0.254 0.125-0.437-0.024-0.259 0.023-0.884 0.969-1.105 0.772-0.18 1.054-0.869 1.028-1.18-0.019-0.224-0.153-0.431-0.261-0.477-0.037-0.016-0.067-0.012-0.098 0.013-0.025 0.029 0.011 0.188 0.031 0.274 0.019 0.082 0.038 0.166 0.045 0.245 0.031 0.369-0.213 0.614-0.223 0.624-0.013 0.013-0.030 0.022-0.049 0.025s-0.037 0-0.054-0.008c-0.017-0.008-0.031-0.021-0.040-0.037s-0.013-0.035-0.011-0.053c0.010-0.084-0.043-0.185-0.133-0.251-0.053-0.039-0.11-0.059-0.163-0.059v-0z"></path>
<path fill="#407bff" style="fill: var(--color1, #407bff)" d="M10.95 14.349c-0.020 0-0.040-0.002-0.060-0.005-0.291-0.046-0.264-0.421-0.245-0.668 0.004-0.053 0.008-0.102 0.008-0.14 0-0.048-0.062-0.117-0.123-0.185-0.122-0.137-0.29-0.324-0.196-0.592 0.037-0.106 0.142-0.169 0.288-0.172 0.23-0.006 0.541 0.136 0.64 0.376 0.064 0.154 0.087 0.29 0.108 0.41 0.021 0.124 0.039 0.23 0.097 0.325 0.065 0.106 0.050 0.242-0.041 0.374-0.1 0.145-0.288 0.277-0.476 0.277zM10.638 12.764h-0.010c-0.032 0.001-0.107 0.008-0.122 0.053-0.056 0.158 0.027 0.268 0.161 0.416 0.086 0.097 0.168 0.188 0.168 0.303 0 0.044-0.004 0.097-0.008 0.153-0.014 0.183-0.034 0.459 0.094 0.48 0.11 0.017 0.271-0.071 0.358-0.197 0.023-0.034 0.074-0.12 0.036-0.182-0.075-0.124-0.097-0.252-0.12-0.387-0.020-0.117-0.041-0.237-0.097-0.373-0.066-0.158-0.291-0.265-0.458-0.265z"></path>
<path fill="#407bff" style="fill: var(--color1, #407bff)" d="M9.060 11.465c-0.005 0-0.010 0-0.015-0-0.297-0.012-0.33-0.292-0.35-0.46-0.007-0.055-0.017-0.146-0.035-0.164-0.125-0.103-0.198-0.248-0.2-0.399-0.002-0.132 0.050-0.254 0.142-0.336 0.074-0.065 0.174-0.087 0.29-0.064 0.234 0.047 0.484 0.271 0.569 0.45 0.088 0.183 0.071 0.559-0.083 0.787-0.082 0.121-0.191 0.185-0.317 0.185zM8.806 10.212c-0.035 0-0.063 0.009-0.084 0.028-0.053 0.047-0.083 0.12-0.082 0.2 0.002 0.1 0.050 0.194 0.136 0.265 0.072 0.059 0.085 0.166 0.098 0.279 0.024 0.202 0.049 0.297 0.178 0.302 0.068 0.003 0.125-0.032 0.175-0.105 0.114-0.17 0.134-0.479 0.070-0.613-0.066-0.137-0.268-0.317-0.442-0.352-0.016-0.003-0.033-0.005-0.049-0.005z"></path>
<path fill="#407bff" style="fill: var(--color1, #407bff)" d="M5.876 9.393c-0.16 0-0.261-0.069-0.339-0.123-0.073-0.050-0.097-0.061-0.132-0.049-0.135 0.047-0.453 0.156-0.586-0.077-0.027-0.046-0.041-0.098-0.040-0.151s0.015-0.105 0.042-0.15c0.044-0.075 0.163-0.201 0.461-0.201 0.114 0 0.236-0.044 0.355-0.086 0.234-0.083 0.524-0.187 0.727 0.127 0.082 0.127 0.096 0.275 0.037 0.408-0.065 0.148-0.214 0.254-0.409 0.29-0.038 0.007-0.077 0.011-0.116 0.011zM5.43 9.038c0.086 0 0.153 0.046 0.211 0.086 0.084 0.057 0.163 0.112 0.319 0.083 0.137-0.025 0.235-0.092 0.277-0.186 0.034-0.077 0.025-0.166-0.024-0.242-0.119-0.185-0.258-0.146-0.513-0.055-0.133 0.047-0.271 0.096-0.416 0.096-0.152 0-0.263 0.041-0.306 0.112-0.011 0.019-0.017 0.040-0.017 0.062s0.006 0.043 0.017 0.062c0.041 0.072 0.155 0.071 0.37-0.003 0.027-0.010 0.055-0.015 0.083-0.015z"></path>
<path fill="#407bff" style="fill: var(--color1, #407bff)" d="M4.105 10.838c-0.213 0-0.386-0.18-0.386-0.402s0.173-0.402 0.386-0.402c0.213 0 0.386 0.18 0.386 0.402s-0.173 0.402-0.386 0.402zM4.105 10.212c-0.113 0-0.205 0.101-0.205 0.224s0.092 0.224 0.205 0.224c0.113 0 0.205-0.101 0.205-0.224s-0.092-0.224-0.205-0.224z"></path>
<path fill="#407bff" style="fill: var(--color1, #407bff)" d="M2.65 12.435c-0.022-0-0.044-0.003-0.065-0.009-0.075-0.021-0.127-0.077-0.142-0.153-0.033-0.174 0.131-0.446 0.255-0.537 0.074-0.055 0.131-0.046 0.166-0.029 0.144 0.072 0.148 0.292 0.077 0.473-0.064 0.163-0.172 0.255-0.291 0.255zM2.797 11.885c-0.066 0.056-0.182 0.238-0.176 0.344 0.001 0.023 0.006 0.024 0.014 0.026 0.052 0.015 0.108-0.062 0.139-0.139 0.040-0.103 0.037-0.192 0.023-0.23z"></path>
<path fill="#407bff" style="fill: var(--color1, #407bff)" d="M1.786 14.647c-0.123 0-0.242-0.057-0.31-0.151-0.152-0.213-0.114-0.475 0.092-0.638 0.133-0.105 0.226-0.387 0.25-0.487 0.003-0.013 0.010-0.026 0.018-0.036s0.020-0.019 0.033-0.024c0.013-0.006 0.027-0.008 0.040-0.008s0.027 0.004 0.040 0.011c0.181 0.098 0.485 0.406 0.333 0.867-0.119 0.362-0.326 0.444-0.439 0.461-0.019 0.003-0.039 0.004-0.058 0.004zM1.957 13.54c-0.047 0.137-0.137 0.349-0.275 0.458-0.161 0.127-0.132 0.293-0.058 0.396 0.032 0.044 0.106 0.086 0.193 0.073 0.124-0.018 0.228-0.139 0.294-0.34 0.098-0.298-0.048-0.492-0.155-0.587v-0z"></path>
<path fill="#407bff" style="fill: var(--color1, #407bff)" d="M12.072 18.176c-0.057 0-0.116-0.016-0.176-0.047-0.426-0.225-0.351-0.912-0.257-1.41 0.062-0.329-0.055-0.514-0.057-0.516-0.010-0.015-0.015-0.032-0.015-0.050s0.006-0.035 0.016-0.050c0.010-0.015 0.025-0.026 0.041-0.032s0.035-0.008 0.053-0.004c0.598 0.131 0.644 0.604 0.675 0.917 0.011 0.114 0.022 0.222 0.055 0.269 0.133 0.191 0.084 0.614-0.094 0.81-0.069 0.075-0.152 0.114-0.241 0.114zM11.81 16.297c0.027 0.109 0.043 0.262 0.007 0.454-0.129 0.685-0.073 1.095 0.165 1.221 0.080 0.042 0.141 0.034 0.197-0.028 0.129-0.142 0.158-0.478 0.079-0.59-0.059-0.085-0.071-0.209-0.086-0.353-0.026-0.265-0.055-0.561-0.362-0.704z"></path>
<path fill="#407bff" style="fill: var(--color1, #407bff)" d="M12.156 19.58c-0.216 0-0.393-0.201-0.393-0.449s0.176-0.449 0.393-0.449 0.393 0.201 0.393 0.449c0 0.248-0.176 0.449-0.393 0.449zM12.156 18.86c-0.117 0-0.212 0.122-0.212 0.271s0.095 0.271 0.212 0.271c0.117 0 0.212-0.122 0.212-0.271s-0.095-0.271-0.212-0.271z"></path>
<path fill="#407bff" style="fill: var(--color1, #407bff)" d="M0.947 21.191c-0.008 0-0.016-0.001-0.024-0.002-0.143-0.021-0.244-0.221-0.362-0.454-0.055-0.11-0.148-0.293-0.192-0.315-0.208-0.093-0.364-0.301-0.369-0.494-0.004-0.157 0.086-0.29 0.252-0.375 0.124-0.064 0.253-0.065 0.361-0.005 0.157 0.087 0.258 0.292 0.277 0.563 0.011 0.154 0.080 0.302 0.147 0.444 0.096 0.204 0.195 0.415 0.040 0.578-0.045 0.048-0.093 0.061-0.13 0.061zM0.444 19.679c-0.034 0-0.070 0.010-0.108 0.029-0.105 0.054-0.157 0.125-0.155 0.213 0.003 0.125 0.119 0.273 0.263 0.337 0.097 0.043 0.169 0.179 0.28 0.398 0.058 0.114 0.163 0.323 0.22 0.355l0.001-0.002c0.069-0.072 0.017-0.192-0.072-0.382-0.070-0.15-0.15-0.32-0.163-0.506-0.014-0.207-0.084-0.364-0.185-0.42-0.025-0.014-0.053-0.021-0.082-0.021z"></path>
<path fill="#407bff" style="fill: var(--color1, #407bff)" d="M7.144 18.667c0.072 0.354-0.158 0.726-0.492 0.866-0.467 0.209-1.053-0.037-1.194-0.528-0.032-0.112-0.039-0.229-0.017-0.338 0.002-0.012 0.009-0.022 0.018-0.030s0.021-0.012 0.033-0.012 0.024 0.004 0.033 0.011c0.010 0.007 0.016 0.018 0.019 0.029 0.077 0.36 0.38 0.629 0.743 0.625 0.36-0.003 0.655-0.268 0.733-0.624 0.013-0.066 0.111-0.065 0.123 0l0 0z"></path>
<path fill="#fff" style="fill: var(--color4, #fff)" opacity="0.5" d="M3.102 19.208c0.326-0.061 0.525-0.443 0.445-0.854s-0.408-0.693-0.734-0.631c-0.325 0.061-0.525 0.443-0.445 0.854s0.408 0.693 0.734 0.631z"></path>
<path fill="#fff" style="fill: var(--color4, #fff)" opacity="0.5" d="M3.12 17.317c0.336 0.103 0.675-0.982 1.271-1.227s0.989-1.018 1.172-1.518c0.183-0.5 0.933-0.826 0.775-1.175s-0.845-0.068-1.25 0.464-0.224 1.087-0.834 1.322c-0.61 0.235-1.83 1.921-1.134 2.135z"></path>
<path fill="#407bff" style="fill: var(--color1, #407bff)" opacity="0.2" d="M11.061 19.993c-0.231 0.225 0.076 0.458-0.468 1.050-0.227 0.246 0.167 0.984-0.925 0.975 0 0-0.634 0.55-1.269 0.625s-0.899-0.025-1.507 0.3c-0.608 0.325-1.956-0.225-2.511-0.463s-0.766-0.263-1.242-0.263-0.291-0.7-0.635-1c-0.344-0.3-0.74-0.425-0.767-0.7s-0.291-0.4-0.264-0.825c0.026-0.425-0.423-0.55-0.476-1.075s0.238-0.625 0.132-0.925-0.132-0.55 0.027-0.85c0.019-0.036 0.041-0.071 0.066-0.104 0.007 0.17 0.016 0.34 0.075 0.446 0.061 0.109 0.142 0.21 0.179 0.328 0.096 0.304-0.119 0.612-0.15 0.928-0.058 0.584 0.489 1.035 0.864 1.502 0.333 0.416 0.572 0.927 1.043 1.199 0.524 0.303 1.203 0.225 1.776 0.019s1.097-0.529 1.681-0.706c0.676-0.206 1.401-0.209 2.111-0.174 0.511 0.025 1.094 0.045 1.449-0.303 0.204-0.2 0.286-0.483 0.342-0.756 0.107-0.524 0.148-1.060 0.12-1.594 0.062 0.115 0.124 0.231 0.186 0.347 0.035 0.302 0.090 0.581 0.163 0.771 0.219 0.575 0.23 1.025-0 1.25z"></path>
<path fill="#407bff" style="fill: var(--color1, #407bff)" d="M7.973 16.292c0.386-0.039 0.743 0.378 0.796 0.93s-0.216 1.031-0.602 1.070c-0.386 0.039-0.743-0.378-0.796-0.93s0.216-1.031 0.602-1.070z"></path>
<path fill="#fff" style="fill: var(--color4, #fff)" d="M8 16.523c0.123 0.051 0.176 0.239 0.118 0.42s-0.204 0.287-0.327 0.237c-0.123-0.051-0.176-0.239-0.118-0.42s0.204-0.287 0.327-0.237z"></path>
<path fill="#8baeff" style="fill: var(--color5, #8baeff)" d="M8.414 17.71c0.058 0.043 0.065 0.146 0.016 0.231s-0.137 0.12-0.195 0.078c-0.058-0.042-0.065-0.146-0.016-0.231s0.137-0.12 0.195-0.078z"></path>
<path fill="#407bff" style="fill: var(--color1, #407bff)" d="M4.661 16.292c-0.386-0.039-0.743 0.378-0.796 0.93s0.216 1.031 0.602 1.070c0.386 0.039 0.743-0.378 0.796-0.93s-0.216-1.031-0.602-1.070z"></path>
<path fill="#fff" style="fill: var(--color4, #fff)" d="M4.634 16.523c-0.123 0.051-0.176 0.239-0.118 0.42s0.204 0.287 0.327 0.237 0.176-0.239 0.118-0.42c-0.058-0.181-0.204-0.287-0.327-0.237z"></path>
<path fill="#8baeff" style="fill: var(--color5, #8baeff)" d="M4.22 17.71c-0.058 0.043-0.065 0.146-0.016 0.231s0.137 0.12 0.195 0.078 0.065-0.146 0.016-0.231c-0.050-0.085-0.137-0.12-0.195-0.078z"></path>
<path fill="#407bff" style="fill: var(--color1, #407bff)" d="M15.24 12.382v2.676h-0.55v-2.676h0.55zM16.063 12.382v0.432h-2.184v-0.432h2.184zM16.377 12.382h0.998c0.205 0 0.381 0.031 0.528 0.092 0.148 0.061 0.262 0.152 0.342 0.272s0.119 0.268 0.119 0.443c0 0.143-0.024 0.267-0.074 0.37-0.048 0.102-0.116 0.187-0.204 0.255-0.087 0.067-0.189 0.121-0.307 0.162l-0.175 0.092h-0.868l-0.004-0.43h0.645c0.097 0 0.177-0.017 0.241-0.051s0.111-0.082 0.143-0.143c0.033-0.061 0.050-0.132 0.050-0.213 0-0.086-0.016-0.16-0.048-0.222s-0.080-0.11-0.145-0.143c-0.065-0.033-0.146-0.050-0.244-0.050h-0.447v2.245h-0.551v-2.676zM17.874 15.059l-0.61-1.193 0.583-0.004 0.618 1.171v0.026h-0.59zM19.877 12.84l-0.728 2.219h-0.586l0.994-2.676h0.373l-0.053 0.458zM20.482 15.059l-0.73-2.219-0.059-0.458h0.377l1 2.676h-0.588zM20.449 14.063v0.432h-1.414v-0.432h1.414zM22.837 14.171h0.55c-0.011 0.18-0.061 0.34-0.149 0.48-0.087 0.14-0.209 0.249-0.366 0.327-0.156 0.078-0.343 0.118-0.563 0.118-0.172 0-0.325-0.029-0.461-0.088-0.136-0.060-0.252-0.146-0.349-0.257-0.096-0.111-0.169-0.246-0.219-0.404s-0.075-0.335-0.075-0.531v-0.186c0-0.196 0.026-0.373 0.077-0.531 0.053-0.159 0.127-0.295 0.224-0.406 0.098-0.111 0.215-0.197 0.351-0.257s0.288-0.090 0.456-0.090c0.223 0 0.411 0.040 0.564 0.121 0.154 0.081 0.274 0.192 0.358 0.335 0.086 0.142 0.137 0.304 0.154 0.485h-0.551c-0.006-0.108-0.028-0.199-0.064-0.274-0.037-0.076-0.093-0.133-0.167-0.171-0.073-0.039-0.172-0.059-0.294-0.059-0.092 0-0.172 0.017-0.241 0.051s-0.126 0.086-0.173 0.156c-0.047 0.070-0.081 0.158-0.105 0.265-0.022 0.105-0.033 0.229-0.033 0.371v0.189c0 0.138 0.010 0.26 0.031 0.366 0.021 0.104 0.053 0.192 0.096 0.265 0.044 0.071 0.101 0.125 0.169 0.162 0.070 0.036 0.154 0.053 0.252 0.053 0.115 0 0.21-0.018 0.285-0.055s0.132-0.091 0.171-0.164c0.040-0.072 0.064-0.162 0.072-0.27zM24.3 12.382v2.676h-0.551v-2.676h0.551zM25.903 12.382l-1.061 1.322-0.612 0.658-0.099-0.522 0.414-0.566 0.682-0.892h0.676zM25.276 15.059l-0.789-1.237 0.408-0.342 1.033 1.579h-0.653zM27.938 14.629v0.43h-1.425v-0.43h1.425zM26.694 12.382v2.676h-0.551v-2.676h0.551zM27.752 13.472v0.419h-1.239v-0.419h1.239zM27.936 12.382v0.432h-1.423v-0.432h1.423zM28.26 12.382h0.998c0.205 0 0.381 0.031 0.528 0.092 0.148 0.061 0.262 0.152 0.342 0.272s0.119 0.268 0.119 0.443c0 0.143-0.024 0.267-0.074 0.37-0.048 0.102-0.116 0.187-0.204 0.255-0.087 0.067-0.189 0.121-0.307 0.162l-0.175 0.092h-0.868l-0.004-0.43h0.645c0.097 0 0.177-0.017 0.241-0.051s0.111-0.082 0.143-0.143c0.033-0.061 0.050-0.132 0.050-0.213 0-0.086-0.016-0.16-0.048-0.222s-0.080-0.11-0.145-0.143c-0.065-0.033-0.146-0.050-0.244-0.050h-0.447v2.245h-0.551v-2.676zM29.756 15.059l-0.61-1.193 0.583-0.004 0.618 1.171v0.026h-0.59zM16.241 18.050v0.127c0 0.203-0.028 0.386-0.083 0.548s-0.133 0.3-0.233 0.414c-0.101 0.113-0.221 0.199-0.36 0.259-0.138 0.060-0.292 0.090-0.461 0.090-0.168 0-0.322-0.030-0.461-0.090-0.138-0.060-0.259-0.146-0.36-0.259-0.102-0.114-0.181-0.252-0.237-0.414-0.055-0.162-0.083-0.344-0.083-0.548v-0.127c0-0.205 0.028-0.387 0.083-0.548 0.055-0.162 0.133-0.3 0.233-0.414 0.102-0.114 0.222-0.201 0.36-0.261 0.14-0.060 0.293-0.090 0.461-0.090 0.169 0 0.323 0.030 0.461 0.090 0.14 0.060 0.26 0.147 0.36 0.261 0.102 0.114 0.18 0.252 0.235 0.414 0.056 0.161 0.085 0.343 0.085 0.548zM15.684 18.177v-0.131c0-0.142-0.013-0.267-0.039-0.375s-0.064-0.199-0.114-0.272c-0.050-0.073-0.112-0.129-0.184-0.165-0.072-0.038-0.155-0.057-0.248-0.057s-0.176 0.019-0.248 0.057c-0.071 0.037-0.132 0.092-0.182 0.165-0.049 0.074-0.086 0.164-0.112 0.272s-0.039 0.233-0.039 0.375v0.131c0 0.141 0.013 0.266 0.039 0.375 0.026 0.108 0.064 0.199 0.114 0.274 0.050 0.074 0.112 0.129 0.184 0.167s0.155 0.057 0.248 0.057 0.176-0.019 0.248-0.057c0.072-0.038 0.133-0.094 0.182-0.167 0.049-0.075 0.086-0.166 0.112-0.274 0.026-0.109 0.039-0.234 0.039-0.375zM17.19 16.775v2.676h-0.551v-2.676h0.551zM18.256 17.918v0.43h-1.217v-0.43h1.217zM18.385 16.775v0.432h-1.346v-0.432h1.346zM20.287 19.026l0.533-2.252h0.298l0.068 0.375-0.568 2.301h-0.32l-0.011-0.425zM20.014 16.775l0.441 2.252-0.037 0.425h-0.357l-0.594-2.676h0.546zM21.655 19.017l0.436-2.243h0.546l-0.592 2.676h-0.357l-0.033-0.434zM21.286 16.775l0.537 2.261-0.015 0.415h-0.32l-0.572-2.303 0.074-0.373h0.296zM23.944 17.232l-0.728 2.219h-0.586l0.994-2.676h0.373l-0.053 0.458zM24.548 19.451l-0.73-2.219-0.059-0.458h0.377l1 2.676h-0.588zM24.515 18.455v0.432h-1.414v-0.432h1.414zM26.354 16.775v2.676h-0.55v-2.676h0.55zM27.177 16.775v0.432h-2.184v-0.432h2.184zM29.287 19.021v0.43h-1.425v-0.43h1.425zM28.043 16.775v2.676h-0.551v-2.676h0.551zM29.102 17.865v0.419h-1.239v-0.419h1.239zM29.286 16.775v0.432h-1.423v-0.432h1.423zM29.609 16.775h0.998c0.205 0 0.381 0.031 0.528 0.092 0.148 0.061 0.262 0.152 0.342 0.272s0.12 0.268 0.12 0.443c0 0.143-0.024 0.267-0.073 0.369-0.048 0.102-0.116 0.187-0.204 0.256-0.087 0.067-0.189 0.121-0.307 0.162l-0.175 0.092h-0.868l-0.004-0.43h0.645c0.097 0 0.177-0.017 0.241-0.051s0.112-0.082 0.143-0.143c0.033-0.061 0.050-0.132 0.050-0.213 0-0.086-0.016-0.16-0.048-0.222s-0.080-0.11-0.145-0.143c-0.065-0.033-0.146-0.050-0.244-0.050h-0.447v2.244h-0.551v-2.676zM31.105 19.451l-0.61-1.193 0.583-0.004 0.618 1.171v0.026h-0.59z"></path>
</symbol>
<symbol id="icon-minus" viewBox="0 0 32 32">
<path d="M7 16c0-0.265 0.105-0.52 0.293-0.707s0.442-0.293 0.707-0.293h16c0.265 0 0.52 0.105 0.707 0.293s0.293 0.442 0.293 0.707-0.105 0.52-0.293 0.707c-0.187 0.188-0.442 0.293-0.707 0.293h-16c-0.265 0-0.52-0.105-0.707-0.293s-0.293-0.442-0.293-0.707z"></path>
</symbol>
<symbol id="icon-pencil-square" viewBox="0 0 32 32">
<path stroke-linejoin="round" stroke-linecap="round" stroke-miterlimit="4" stroke-width="1.3333" d="M22.483 5.983l2.249-2.251c0.469-0.469 1.105-0.732 1.768-0.732s1.299 0.263 1.768 0.732c0.469 0.469 0.732 1.105 0.732 1.768s-0.263 1.299-0.732 1.768l-14.159 14.159c-0.705 0.705-1.574 1.222-2.529 1.507l-3.58 1.067 1.067-3.58c0.284-0.955 0.802-1.824 1.507-2.529l11.909-11.908zM22.483 5.983l3.517 3.517M24 18.667v6.333c0 0.796-0.316 1.559-0.879 2.121s-1.326 0.879-2.121 0.879h-14c-0.796 0-1.559-0.316-2.121-0.879s-0.879-1.326-0.879-2.121v-14c0-0.796 0.316-1.559 0.879-2.121s1.326-0.879 2.121-0.879h6.333"></path>
</symbol>
<symbol id="icon-plus" viewBox="0 0 32 32">
<path stroke-linejoin="round" stroke-linecap="round" stroke-miterlimit="4" stroke-width="1.3333" d="M16 8v16M24 16h-16"></path>
</symbol>
<symbol id="icon-plus_in_ring" viewBox="0 0 32 32">
<path stroke-linejoin="round" stroke-linecap="round" stroke-miterlimit="4" stroke-width="1.3333" d="M16 12v8M20 16h-8M28 16c0 1.576-0.31 3.136-0.913 4.592s-1.487 2.779-2.601 3.893c-1.114 1.114-2.437 1.998-3.893 2.601s-3.016 0.913-4.592 0.913-3.136-0.31-4.592-0.913c-1.456-0.603-2.779-1.487-3.893-2.601s-1.998-2.437-2.601-3.893c-0.603-1.456-0.913-3.016-0.913-4.592 0-3.183 1.264-6.235 3.515-8.485s5.303-3.515 8.485-3.515c3.183 0 6.235 1.264 8.485 3.515s3.515 5.303 3.515 8.485z"></path>
</symbol>
<symbol id="icon-repair" viewBox="0 0 32 32">
<path fill="none" stroke="#407bff" style="stroke: var(--color1, #407bff)" stroke-linejoin="round" stroke-linecap="round" stroke-miterlimit="4" stroke-width="1.6" d="M15.227 20.227l7.773 7.773c0.667 0.645 1.56 1.003 2.488 0.995s1.816-0.379 2.472-1.036c0.656-0.656 1.028-1.544 1.036-2.472s-0.35-1.821-0.995-2.488l-7.836-7.836M15.227 20.227l3.328-4.040c0.423-0.512 0.987-0.835 1.611-1.021 0.733-0.219 1.551-0.251 2.324-0.187 1.042 0.090 2.090-0.095 3.039-0.536s1.766-1.121 2.371-1.975 0.975-1.851 1.076-2.893c0.1-1.041-0.074-2.091-0.504-3.045l-4.368 4.369c-0.731-0.169-1.399-0.54-1.93-1.070s-0.901-1.199-1.070-1.93l4.368-4.368c-0.954-0.431-2.003-0.605-3.044-0.504s-2.039 0.471-2.893 1.076-1.535 1.422-1.975 2.371c-0.44 0.949-0.625 1.997-0.536 3.039 0.121 1.435-0.095 3.019-1.205 3.933l-0.136 0.113M15.227 20.227l-6.207 7.537c-0.301 0.367-0.675 0.666-1.099 0.88s-0.887 0.336-1.361 0.359c-0.474 0.023-0.947-0.053-1.39-0.224s-0.844-0.432-1.18-0.767-0.597-0.737-0.767-1.18c-0.171-0.442-0.247-0.916-0.223-1.39s0.146-0.937 0.359-1.361c0.213-0.424 0.513-0.798 0.88-1.099l9.116-7.507-5.476-5.476h-1.879l-3-5 2-2 5 3v1.879l5.68 5.68-2.327 1.916M24.5 24.5l-3.5-3.5M6.489 25.5h0.011v0.011h-0.011v-0.011z"></path>
</symbol>
<symbol id="icon-settings" viewBox="0 0 32 32">
<path stroke-linejoin="round" stroke-linecap="round" stroke-miterlimit="4" stroke-width="1.3333" d="M12.792 5.253c0.12-0.723 0.747-1.253 1.48-1.253h3.457c0.733 0 1.36 0.531 1.48 1.253l0.284 1.708c0.084 0.499 0.417 0.915 0.86 1.16 0.099 0.053 0.196 0.111 0.293 0.169 0.432 0.261 0.96 0.343 1.433 0.165l1.623-0.608c0.333-0.125 0.699-0.128 1.033-0.008s0.616 0.354 0.793 0.662l1.728 2.996c0.177 0.308 0.24 0.668 0.177 1.018s-0.249 0.665-0.523 0.89l-1.337 1.103c-0.391 0.32-0.584 0.817-0.575 1.323 0.002 0.113 0.002 0.227 0 0.34-0.009 0.504 0.184 1 0.573 1.32l1.34 1.104c0.565 0.467 0.712 1.272 0.347 1.907l-1.731 2.996c-0.177 0.307-0.458 0.542-0.793 0.662s-0.7 0.117-1.033-0.007l-1.623-0.608c-0.473-0.177-1-0.096-1.435 0.165-0.097 0.059-0.194 0.116-0.293 0.171-0.441 0.244-0.775 0.66-0.859 1.159l-0.284 1.707c-0.12 0.724-0.747 1.255-1.48 1.255h-3.459c-0.733 0-1.36-0.531-1.48-1.253l-0.284-1.708c-0.083-0.499-0.416-0.915-0.859-1.16-0.099-0.055-0.197-0.111-0.293-0.169-0.433-0.261-0.96-0.343-1.435-0.165l-1.623 0.608c-0.332 0.125-0.698 0.127-1.032 0.008s-0.615-0.354-0.793-0.661l-1.729-2.996c-0.177-0.308-0.24-0.668-0.176-1.018s0.249-0.665 0.523-0.89l1.339-1.103c0.389-0.32 0.583-0.817 0.573-1.323-0.002-0.113-0.002-0.227 0-0.34 0.009-0.504-0.184-1-0.573-1.32l-1.339-1.104c-0.274-0.225-0.459-0.541-0.523-0.89s-0.001-0.709 0.176-1.017l1.729-2.996c0.178-0.308 0.459-0.543 0.793-0.662s0.701-0.117 1.033 0.008l1.621 0.608c0.475 0.177 1.001 0.096 1.435-0.165 0.096-0.059 0.195-0.116 0.293-0.171 0.443-0.244 0.776-0.66 0.859-1.159l0.285-1.708z"></path>
<path stroke-linejoin="round" stroke-linecap="round" stroke-miterlimit="4" stroke-width="1.3333" d="M20 16c0 1.061-0.421 2.078-1.172 2.828s-1.768 1.172-2.828 1.172c-1.061 0-2.078-0.421-2.828-1.172s-1.172-1.768-1.172-2.828c0-1.061 0.421-2.078 1.172-2.828s1.768-1.172 2.828-1.172c1.061 0 2.078 0.421 2.828 1.172s1.172 1.768 1.172 2.828z"></path>
</symbol>
<symbol id="icon-swap-arrow-right" viewBox="0 0 32 32">
<path stroke-linejoin="round" stroke-linecap="round" stroke-miterlimit="4" stroke-width="1.3333" d="M21 12v-5c0-0.796-0.316-1.559-0.879-2.121s-1.326-0.879-2.121-0.879h-8c-0.796 0-1.559 0.316-2.121 0.879s-0.879 1.326-0.879 2.121v18c0 0.796 0.316 1.559 0.879 2.121s1.326 0.879 2.121 0.879h8c0.796 0 1.559-0.316 2.121-0.879s0.879-1.326 0.879-2.121v-5M25 20l4-4M29 16l-4-4M29 16h-17"></path>
</symbol>
<symbol id="icon-trush" viewBox="0 0 32 32">
<path stroke-linejoin="round" stroke-linecap="round" stroke-miterlimit="4" stroke-width="1.3333" d="M19.653 12l-0.461 12M12.808 24l-0.461-12M25.637 7.72c0.456 0.069 0.909 0.143 1.363 0.221M25.637 7.72l-1.424 18.511c-0.058 0.754-0.399 1.458-0.953 1.971s-1.283 0.799-2.039 0.798h-10.443c-0.756 0-1.484-0.285-2.039-0.798s-0.895-1.217-0.953-1.971l-1.424-18.511M25.637 7.72c-1.539-0.233-3.086-0.409-4.637-0.529M6.363 7.72c-0.456 0.068-0.909 0.141-1.363 0.22M6.363 7.72c1.539-0.233 3.086-0.409 4.637-0.529M21 7.191v-1.221c0-1.573-1.213-2.885-2.787-2.935-1.475-0.047-2.951-0.047-4.427 0-1.573 0.049-2.787 1.363-2.787 2.935v1.221M21 7.191c-3.328-0.257-6.672-0.257-10 0"></path>
</symbol>
<symbol id="icon-user" viewBox="0 0 32 32">
<path stroke-linejoin="miter" stroke-linecap="butt" stroke-miterlimit="4" stroke-width="1.3333" d="M31.333 16c0 8.468-6.865 15.333-15.333 15.333s-15.333-6.865-15.333-15.333c0-8.468 6.865-15.333 15.333-15.333s15.333 6.865 15.333 15.333z"></path>
<path stroke-linejoin="round" stroke-linecap="round" stroke-miterlimit="4" stroke-width="1.3333" d="M20.001 9.436c0 1.088-0.421 2.132-1.172 2.901s-1.768 1.202-2.829 1.202c-1.061 0-2.079-0.432-2.829-1.202s-1.172-1.813-1.172-2.901c0-1.088 0.421-2.132 1.172-2.901s1.768-1.202 2.829-1.202c1.061 0 2.079 0.432 2.829 1.202s1.172 1.813 1.172 2.901zM8 24.881c0.034-2.153 0.892-4.205 2.389-5.715s3.512-2.356 5.611-2.356c2.099 0 4.115 0.846 5.611 2.356s2.355 3.562 2.389 5.715c-2.51 1.18-5.239 1.789-8 1.785-2.855 0-5.564-0.639-8-1.785z"></path>
</symbol>
<symbol id="icon-v-down" viewBox="0 0 32 32">
<path d="M16.706 21.707c-0.187 0.187-0.442 0.293-0.707 0.293s-0.519-0.105-0.707-0.293l-10-10c-0.177-0.19-0.273-0.44-0.268-0.699s0.11-0.506 0.293-0.689c0.183-0.183 0.43-0.288 0.689-0.293s0.51 0.092 0.699 0.268l9.293 9.293 9.293-9.293c0.092-0.098 0.202-0.177 0.325-0.232s0.255-0.084 0.389-0.086c0.134-0.002 0.268 0.022 0.392 0.073s0.238 0.125 0.333 0.22 0.17 0.208 0.22 0.333c0.050 0.125 0.075 0.258 0.073 0.392s-0.032 0.267-0.086 0.389-0.133 0.233-0.232 0.325l-10 10z"></path>
</symbol>
<symbol id="icon-view_static" viewBox="0 0 32 32">
<path fill="none" stroke="#407bff" style="stroke: var(--color1, #407bff)" stroke-linejoin="round" stroke-linecap="round" stroke-miterlimit="4" stroke-width="1.6" d="M5 4v15c0 0.796 0.316 1.559 0.879 2.121s1.326 0.879 2.121 0.879h3M5 4h-2M5 4h22M11 22h10M11 22l-1.333 4M27 4h2M27 4v15c0 0.796-0.316 1.559-0.879 2.121s-1.326 0.879-2.121 0.879h-3M21 22l1.333 4M9.667 26h12.667M9.667 26l-0.667 2M22.333 26l0.667 2M12 15v2M16 12v5M20 9v8"></path>
</symbol>
<symbol id="icon-x-closed" viewBox="0 0 32 32">
<path fill="none" stroke="#407bff" style="stroke: var(--color1, #407bff)" stroke-linejoin="round" stroke-linecap="round" stroke-miterlimit="4" stroke-width="2" d="M8 24l16-16M8 8l16 16"></path>
</symbol>
</defs>
</svg>
