<svg width="40" height="40" viewBox="0 0 40 40" fill="none" xmlns="http://www.w3.org/2000/svg">
<path d="M11.25 5V8.75M28.75 5V8.75M5 31.25V12.5C5 11.5054 5.39509 10.5516 6.09835 9.84835C6.80161 9.14509 7.75544 8.75 8.75 8.75H31.25C32.2446 8.75 33.1984 9.14509 33.9016 9.84835C34.6049 10.5516 35 11.5054 35 12.5V31.25M5 31.25C5 32.2446 5.39509 33.1984 6.09835 33.9016C6.80161 34.6049 7.75544 35 8.75 35H31.25C32.2446 35 33.1984 34.6049 33.9016 33.9016C34.6049 33.1984 35 32.2446 35 31.25M5 31.25V18.75C5 17.7554 5.39509 16.8016 6.09835 16.0983C6.80161 15.3951 7.75544 15 8.75 15H31.25C32.2446 15 33.1984 15.3951 33.9016 16.0983C34.6049 16.8016 35 17.7554 35 18.75V31.25M20 21.25H20.0133V21.2633H20V21.25ZM20 25H20.0133V25.0133H20V25ZM20 28.75H20.0133V28.7633H20V28.75ZM16.25 25H16.2633V25.0133H16.25V25ZM16.25 28.75H16.2633V28.7633H16.25V28.75ZM12.5 25H12.5133V25.0133H12.5V25ZM12.5 28.75H12.5133V28.7633H12.5V28.75ZM23.75 21.25H23.7633V21.2633H23.75V21.25ZM23.75 25H23.7633V25.0133H23.75V25ZM23.75 28.75H23.7633V28.7633H23.75V28.75ZM27.5 21.25H27.5133V21.2633H27.5V21.25ZM27.5 25H27.5133V25.0133H27.5V25Z" stroke="#407BFF" stroke-width="2" stroke-linecap="round" stroke-linejoin="round"/>
</svg>
