<svg width="40" height="40" viewBox="0 0 40 40" fill="none" xmlns="http://www.w3.org/2000/svg">
<path d="M19.0333 25.2833L28.75 35C29.5833 35.8067 30.7003 36.2535 31.8601 36.2441C33.0199 36.2347 34.1295 35.7698 34.9497 34.9497C35.7698 34.1295 36.2347 33.0199 36.2441 31.8601C36.2535 30.7003 35.8067 29.5833 35 28.75L25.205 18.955M19.0333 25.2833L23.1933 20.2333C23.7217 19.5933 24.4267 19.19 25.2067 18.9567C26.1233 18.6833 27.145 18.6433 28.1117 18.7233C29.4147 18.8352 30.7244 18.6044 31.9107 18.0539C33.097 17.5033 34.1187 16.6521 34.8744 15.5847C35.6301 14.5173 36.0936 13.2708 36.2188 11.969C36.3441 10.6672 36.1267 9.35521 35.5883 8.16333L30.1283 13.625C29.2148 13.4138 28.379 12.9503 27.716 12.2873C27.0531 11.6243 26.5896 10.7885 26.3783 9.875L31.8383 4.415C30.6464 3.87661 29.3345 3.65924 28.0327 3.78447C26.7308 3.90971 25.4844 4.37318 24.417 5.12891C23.3496 5.88465 22.4984 6.90636 21.9478 8.09266C21.3972 9.27896 21.1664 10.5886 21.2783 11.8917C21.43 13.685 21.16 15.665 19.7717 16.8083L19.6017 16.95M19.0333 25.2833L11.275 34.705C10.899 35.1633 10.4312 35.5379 9.90165 35.8045C9.37215 36.0711 8.79268 36.2239 8.20055 36.2531C7.60842 36.2822 7.01674 36.1871 6.46361 35.9737C5.91048 35.7604 5.40814 35.4336 4.98894 35.0144C4.56973 34.5952 4.24294 34.0928 4.0296 33.5397C3.81627 32.9866 3.72111 32.3949 3.75025 31.8028C3.7794 31.2107 3.9322 30.6312 4.19882 30.1017C4.46544 29.5722 4.83998 29.1043 5.29833 28.7283L16.6933 19.345L9.84833 12.5H7.49999L3.75 6.25L6.24999 3.75L12.5 7.5V9.84833L19.6 16.9483L16.6917 19.3433M30.625 30.625L26.25 26.25M8.11166 31.875H8.12499V31.8883H8.11166V31.875Z" stroke="#407BFF" stroke-width="2" stroke-linecap="round" stroke-linejoin="round"/>
</svg>
