<svg width="22" height="22" viewBox="0 0 22 22" fill="none" xmlns="http://www.w3.org/2000/svg">
<path opacity="0.7" d="M11.1951 21.6955H10.3157C8.91277 21.5994 7.54284 21.2275 6.28506 20.601C5.02727 19.9745 3.90657 19.106 2.9877 18.0455C2.0838 16.9891 1.3997 15.7643 0.97512 14.4422C0.550544 13.1201 0.393974 11.7271 0.514521 10.3442C0.685274 8.29947 1.44991 6.34853 2.7151 4.72949C3.98029 3.11044 5.69129 1.89338 7.63924 1.22681C9.58719 0.560244 11.6878 0.473052 13.6847 0.975855C15.6815 1.47866 17.4883 2.5497 18.8843 4.05827C20.2803 5.56683 21.2053 7.44761 21.5462 9.47106C21.8872 11.4945 21.6294 13.5731 20.8043 15.453C19.9792 17.333 18.6225 18.933 16.8999 20.0577C15.1772 21.1824 13.1631 21.7832 11.1035 21.7867L11.1951 21.6955ZM11.1951 1.91284C9.11152 1.92315 7.09374 2.64078 5.47472 3.94727C3.8557 5.25376 2.7322 7.07104 2.28961 9.09925C1.84701 11.1275 2.11176 13.2454 3.0402 15.1035C3.96864 16.9616 5.50525 18.449 7.39649 19.32C9.28772 20.191 11.4206 20.3937 13.443 19.8947C15.4655 19.3956 17.2567 18.2246 18.5211 16.5749C19.7855 14.9252 20.4476 12.8953 20.398 10.8203C20.3484 8.74535 19.5901 6.74917 18.2483 5.16128C17.4664 4.23829 16.5083 3.4791 15.4297 2.92774C14.351 2.37639 13.1732 2.04381 11.9645 1.94932L11.1951 1.91284Z" fill="white"/>
</svg>
