<svg width="320" height="844" viewBox="0 0 320 844" fill="none" xmlns="http://www.w3.org/2000/svg">
<g clip-path="url(#clip0_149_635)">
<path opacity="0.7" d="M302.482 49.784H300.41C297.103 49.5569 293.875 48.6769 290.911 47.1946C287.947 45.7124 285.306 43.6574 283.141 41.1484C281.011 38.649 279.399 35.7511 278.398 32.623C277.398 29.495 277.029 26.1992 277.313 22.9274C277.715 18.0897 279.517 13.4738 282.498 9.64325C285.48 5.81266 289.512 2.93312 294.102 1.35606C298.693 -0.221009 303.643 -0.427301 308.349 0.762309C313.054 1.95192 317.312 4.48597 320.602 8.05517C323.892 11.6244 326.071 16.0742 326.875 20.8616C327.678 25.649 327.071 30.5669 325.126 35.0148C323.182 39.4626 319.985 43.2481 315.925 45.9091C311.866 48.5701 307.12 49.9917 302.266 50L302.482 49.784ZM302.482 2.97918C297.572 3.00356 292.817 4.70145 289.002 7.79256C285.186 10.8837 282.539 15.1833 281.496 19.9819C280.453 24.7806 281.077 29.7915 283.265 34.1878C285.452 38.584 289.074 42.103 293.53 44.1638C297.987 46.2247 303.013 46.7042 307.779 45.5234C312.545 44.3427 316.766 41.5721 319.746 37.669C322.726 33.7658 324.286 28.9633 324.169 24.054C324.052 19.1446 322.265 14.4217 319.103 10.6648C317.26 8.4811 315.003 6.68489 312.461 5.3804C309.919 4.07591 307.143 3.28905 304.295 3.06549L302.482 2.97918Z" fill="#C6D7FF"/>
<path d="M289.201 264.669C289.006 267.034 288.114 269.288 286.639 271.146C285.163 273.005 283.169 274.384 280.909 275.109C278.65 275.835 276.226 275.874 273.944 275.222C271.662 274.57 269.625 273.256 268.09 271.447C266.554 269.637 265.59 267.413 265.319 265.055C265.048 262.698 265.481 260.313 266.566 258.202C267.65 256.091 269.335 254.349 271.41 253.196C273.484 252.043 275.853 251.53 278.219 251.724C281.391 251.986 284.329 253.497 286.388 255.924C288.447 258.351 289.459 261.496 289.201 264.669Z" fill="#C6D7FF"/>
<path d="M36.7944 52.4051C36.5997 54.7702 35.7081 57.0245 34.2323 58.8829C32.7564 60.7413 30.7628 62.1204 28.5032 62.8459C26.2436 63.5714 23.8197 63.6106 21.5378 62.9587C19.2559 62.3068 17.2186 60.993 15.6833 59.1834C14.1481 57.3738 13.1839 55.1496 12.9126 52.792C12.6414 50.4345 13.0752 48.0495 14.1594 45.9385C15.2435 43.8275 16.9292 42.0853 19.0034 40.9323C21.0776 39.7792 23.4471 39.2669 25.8124 39.4603C28.9845 39.723 31.9226 41.2337 33.9817 43.6607C36.0408 46.0878 37.0524 49.2328 36.7944 52.4051Z" fill="#ECF2FF"/>
<path d="M228.166 129.95C228.036 131.527 227.442 133.029 226.458 134.268C225.474 135.507 224.145 136.427 222.639 136.91C221.132 137.394 219.516 137.42 217.995 136.986C216.474 136.551 215.115 135.675 214.092 134.469C213.068 133.262 212.426 131.78 212.245 130.208C212.064 128.636 212.353 127.046 213.076 125.639C213.799 124.232 214.923 123.07 216.305 122.301C217.688 121.533 219.268 121.191 220.845 121.32C222.959 121.495 224.918 122.502 226.291 124.12C227.664 125.738 228.338 127.835 228.166 129.95Z" fill="#ECF2FF"/>
<path opacity="0.7" d="M52.9588 420.001H51.6325C49.5166 419.855 47.4505 419.292 45.5535 418.343C43.6566 417.395 41.9663 416.08 40.5805 414.474C39.2172 412.874 38.1855 411.02 37.5451 409.018C36.9048 407.016 36.6687 404.906 36.8505 402.812C37.108 399.716 38.2612 396.762 40.1694 394.311C42.0775 391.859 44.658 390.016 47.5959 389.007C50.5338 387.997 53.7019 387.865 56.7136 388.627C59.7252 389.388 62.4501 391.01 64.5556 393.294C66.6611 395.579 68.0561 398.426 68.5703 401.49C69.0845 404.554 68.6957 407.702 67.4513 410.548C66.2069 413.395 64.1608 415.818 61.5627 417.521C58.9646 419.224 55.927 420.134 52.8206 420.139L52.9588 420.001ZM52.9588 390.046C49.8164 390.061 46.7732 391.148 44.3314 393.126C41.8896 395.104 40.1952 397.856 39.5276 400.927C38.8601 403.999 39.2594 407.205 40.6597 410.019C42.0599 412.833 44.3774 415.085 47.2298 416.404C50.0821 417.723 53.2988 418.03 56.3491 417.274C59.3994 416.518 62.1009 414.745 64.0079 412.247C65.9148 409.749 66.9133 406.675 66.8385 403.533C66.7637 400.391 65.62 397.369 63.5963 394.964C62.4171 393.567 60.9722 392.417 59.3453 391.582C57.7185 390.747 55.9421 390.244 54.1193 390.101L52.9588 390.046Z" fill="#C6D7FF"/>
<path d="M310.591 585.085C310.397 587.45 309.505 589.705 308.029 591.563C306.553 593.421 304.56 594.801 302.3 595.526C300.041 596.252 297.617 596.291 295.335 595.639C293.053 594.987 291.015 593.673 289.48 591.864C287.945 590.054 286.981 587.83 286.71 585.472C286.438 583.115 286.872 580.73 287.956 578.619C289.04 576.508 290.726 574.766 292.8 573.612C294.875 572.459 297.244 571.947 299.609 572.141C302.781 572.403 305.72 573.914 307.779 576.341C309.838 578.768 310.849 581.913 310.591 585.085Z" fill="#C6D7FF"/>
<path opacity="0.7" d="M19.1992 710.004H17.6243C15.1117 709.831 12.6582 709.162 10.4055 708.036C8.15284 706.909 6.14568 705.347 4.50002 703.441C2.88114 701.541 1.65594 699.339 0.895529 696.961C0.135122 694.584 -0.145291 692.079 0.0706056 689.593C0.37642 685.916 1.74586 682.408 4.01178 679.497C6.27771 676.585 9.34208 674.397 12.8308 673.198C16.3195 672 20.0817 671.843 23.658 672.747C27.2344 673.651 30.4702 675.577 32.9705 678.29C35.4707 681.002 37.1273 684.384 37.7379 688.023C38.3485 691.661 37.8868 695.399 36.4091 698.779C34.9314 702.159 32.5016 705.036 29.4164 707.059C26.3312 709.081 22.724 710.161 19.0352 710.168L19.1992 710.004ZM19.1992 674.432C15.4676 674.45 11.8538 675.741 8.95421 678.09C6.05459 680.439 4.04242 683.707 3.24974 687.354C2.45706 691.001 2.93123 694.809 4.59404 698.15C6.25685 701.492 9.00888 704.166 12.396 705.732C15.7832 707.298 19.6031 707.663 23.2252 706.766C26.8474 705.868 30.0555 703.763 32.32 700.796C34.5845 697.83 35.7702 694.18 35.6814 690.449C35.5925 686.718 34.2345 683.128 31.8313 680.273C30.431 678.613 28.7151 677.248 26.7833 676.257C24.8514 675.265 22.742 674.667 20.5773 674.497L19.1992 674.432Z" fill="#9EBBFF"/>
<path d="M163.711 829.765C163.5 832.327 162.534 834.769 160.935 836.783C159.337 838.796 157.177 840.29 154.729 841.076C152.281 841.862 149.655 841.904 147.183 841.198C144.711 840.492 142.504 839.069 140.841 837.108C139.178 835.148 138.133 832.738 137.839 830.184C137.545 827.63 138.015 825.046 139.19 822.76C140.364 820.473 142.19 818.585 144.437 817.336C146.685 816.087 149.251 815.532 151.814 815.741C155.25 816.026 158.433 817.663 160.664 820.292C162.895 822.921 163.991 826.328 163.711 829.765Z" fill="#C6D7FF"/>
<path opacity="0.7" d="M277.131 814.204H275.804C273.689 814.059 271.622 813.496 269.725 812.547C267.828 811.598 266.138 810.283 264.752 808.678C263.389 807.078 262.357 805.223 261.717 803.221C261.077 801.219 260.841 799.11 261.022 797.016C261.28 793.92 262.433 790.966 264.341 788.514C266.249 786.063 268.83 784.22 271.768 783.21C274.706 782.201 277.874 782.069 280.885 782.83C283.897 783.592 286.622 785.214 288.727 787.498C290.833 789.782 292.228 792.63 292.742 795.694C293.256 798.758 292.868 801.905 291.623 804.752C290.379 807.599 288.333 810.021 285.735 811.724C283.137 813.427 280.099 814.337 276.993 814.343L277.131 814.204ZM277.131 784.249C273.988 784.265 270.945 785.351 268.503 787.33C266.061 789.308 264.367 792.06 263.7 795.131C263.032 798.202 263.431 801.409 264.832 804.223C266.232 807.036 268.549 809.288 271.402 810.607C274.254 811.926 277.471 812.233 280.521 811.478C283.571 810.722 286.273 808.949 288.18 806.451C290.087 803.953 291.085 800.879 291.01 797.737C290.936 794.595 289.792 791.572 287.768 789.168C286.589 787.77 285.144 786.621 283.517 785.786C281.89 784.951 280.114 784.448 278.291 784.304L277.131 784.249Z" fill="#9EBBFF"/>
</g>
<defs>
<clipPath id="clip0_149_635">
<rect width="320" height="844" fill="white"/>
</clipPath>
</defs>
</svg>
